<?xml version="1.0" encoding="utf-8"?>
<!-- Generator: Adobe Illustrator 24.0.1, SVG Export Plug-In . SVG Version: 6.00 Build 0)  -->
<svg version="1.1" id="Camada_2_1_"
  xmlns="http://www.w3.org/2000/svg"
  fill="#fff"
  xmlns:xlink="http://www.w3.org/1999/xlink" x="0px" y="0px" viewBox="0 0 211.6 202.7" style="enable-background:new 0 0 211.6 202.7;" xml:space="preserve">

  <path d="M136.2,183.3l-0.7-2.3c-1.7-1.6-11.7-4.3-27.7-4.3s-25.7,2.6-27.7,4.3l-0.7,2.3H45.7c-5,0-27.7-19.7-32-21.7
	c8.7,8.7,35.4,32.7,48.4,32.7l17,4.7c18.5,5.1,38.1,4.9,56.5-0.6l13.9-4.1c15,0,39.1-22.3,47.8-32.7c-6,4-24.4,21.7-32.4,21.7
	L136.2,183.3z"/>
  <path d="M0,118.9v24.4c0,4,3.3,7.3,7.3,7.3v-39C3.3,111.6,0,114.9,0,118.9z"/>
  <path d="M93.2,44.1c0,7,5.6,12.6,12.6,12.7c0.4,0,0.8,0,1.2-0.1c6.6-0.7,11.6-6.4,11.5-13v-0.6l34.7-21.6
	c-12.8-7.6-27.5-11.5-42.4-11.4h-9.7c-14.9,0-29.6,3.9-42.6,11.3l34.7,21.7V44.1z"/>
  <path d="M41.4,176h33.5c6.3-5.6,26.4-6.3,33-6.3s26.7,0.3,33,6.3h24c1.4,0,2.4-0.3,3.7-0.3l18.7-11c3.3-1.9,5.3-5.4,5.2-9.2v-30.9
	c-7.5-15.6-23.3-25.6-40.7-25.7H59.7c-18.5,0-35.2,11.2-42.1,28.4v28.4c0,3.7,1.9,7.1,5.1,9L41.4,176z M127,134.3
	c4.8,0,8.7,6.9,8.7,15.4s-3.9,15.4-8.7,15.4c-4.8,0-8.7-6.9-8.7-15.4S122.2,134.3,127,134.3z M84.1,134.1c4.8,0,8.7,6.9,8.7,15.4
	s-3.9,15.4-8.7,15.4s-8.7-6.9-8.7-15.4S79.3,134.1,84.1,134.1z"/>
  <path d="M157,23.3L122.6,45c-0.6,8.6-7.7,15.4-16.4,15.4c-8.7,0-15.7-7.1-16.4-15.4L55.4,23.3C41.3,32.3,30,45.2,23,60.4V14.3
	c3.1-1,5.2-3.8,5.3-7c0-4.1-3.4-7.3-7.5-7.3c-0.7,0-1.3,0.1-1.9,0.3c-1.8,0.5-3.3,1.7-4.2,3.3c-2.1,3.4-1,7.9,2.5,10
	c0.6,0.3,1.2,0.6,1.8,0.8v55.2c-2.8,8.7-4.2,17.8-4.3,27v21c9.2-16.2,26.5-26.1,45.1-26h91.8c19,0,35.3,10.2,45.8,26V96.4
	C197.4,66.7,182.2,39.1,157,23.3z"/>
  <path d="M204.3,111.9v38.7c4,0,7.3-3.3,7.3-7.3v-24.1C211.6,115.2,208.3,111.9,204.3,111.9z"/>
</svg>
