<?xml version="1.0" encoding="utf-8"?>
<!-- Generator: Adobe Illustrator 24.0.1, SVG Export Plug-In . SVG Version: 6.00 Build 0)  -->
<svg version="1.1" id="Layer_1" xmlns="http://www.w3.org/2000/svg" xmlns:xlink="http://www.w3.org/1999/xlink" x="0px" y="0px"
	 viewBox="0 0 3069 3069" style="enable-background:new 0 0 3069 3069;" xml:space="preserve">
<style type="text/css">
	.st0{fill:#fff;}
	.st1{fill:#371A45;}
	.st2{opacity:0.35;}
	.st3{fill:#22A7F0;}
	.st4{opacity:0.5;}
	.st5{fill:#111A28;}
	.st6{opacity:0.2;}
	.st7{fill:#390075;}
	.st8{fill:#fff;}
	.st9{display:none;}
	.st10{display:inline;fill:#adbac7;}
	.st11{opacity:0.7;}
	.st12{fill:#93603E;}
	.st13{fill:none;}
	.st14{fill:#371A45;stroke:#371A45;stroke-width:9;stroke-miterlimit:10;}
	.st15{font-family:'Poppins-Regular';}
	.st16{font-size:200px;}
</style>
<g>
	<g>
		<g>
			<g>
				<path class="st0" d="M1854.4,1661.7v690.7c0,116.2-95.1,211.2-211.2,211.2H944.9c-116.1,0-211.2-95-211.2-211.2v-690.7
					c0-68.4,32.9-129.4,83.7-168.1c35.5-27,79.7-43.1,127.5-43.1h698.3c52.2,0,100.2,19.2,137.2,51
					C1825.6,1540.3,1854.4,1597.8,1854.4,1661.7z"/>
			</g>
			<g>
				<path class="st1" d="M1643.2,1450.5c116.1,0,211.2,95,211.2,211.2v690.7c0,116.1-95,211.2-211.2,211.2H944.9
					c-116.1,0-211.2-95-211.2-211.2v-690.7c0-116.1,95-211.2,211.2-211.2H1643.2 M1643.2,1414.7H944.9c-136.2,0-247,110.8-247,247
					v690.7c0,136.2,110.8,247,247,247h698.2c136.2,0,247-110.8,247-247v-690.7C1890.1,1525.5,1779.4,1414.7,1643.2,1414.7
					L1643.2,1414.7z"/>
			</g>
			<g>
				<path class="st0" d="M1559.5,1425.8c260.1,89.3,279.3,295.3,459.2,414.8c77.9,51.7,159.2,39.1,256.4,13
					c51.8-13.9,76.6,37.4,80,125.3c4.7,122.4-37.4,209-292.2,214c-296.9,5.8-348.3-345.7-348.3-345.7"/>
			</g>
			<g class="st2">
				<path class="st1" d="M2063,2193.1c-297,5.8-348.3-345.7-348.3-345.7l-29.6-80.4c122.5,74.3,102.3,337.4,377.9,332
					c210.7-4.1,275.9-64,289.6-153.9c1.3,10.6,2.1,21.9,2.6,33.9C2359.9,2101.4,2317.8,2188,2063,2193.1z"/>
			</g>
			<g>
				<path class="st1" d="M2055.9,2211c-124.9,0-226.5-62-294-179.8c-51.1-89.1-64.5-177.6-65-181.4c-1.4-9.8,5.3-18.9,15.1-20.3
					c9.8-1.4,18.9,5.3,20.3,15.1c0.1,0.8,13.2,86.4,61.1,169.6c62.8,109,153.4,163.3,269.1,160.8c121.5-2.4,199.7-23.8,239-65.4
					c27-28.6,38-68.7,35.6-130c-2.9-74.2-20.3-97.9-30.5-105.4c-4.5-3.3-12.3-7.3-27-3.4c-93,25-183.7,42.5-270.9-15.4
					c-75.9-50.4-124.4-116-171.4-179.5c-69.3-93.7-134.8-182.1-283.7-233.3c-9.4-3.2-14.3-13.4-11.1-22.7
					c3.2-9.4,13.4-14.3,22.7-11.1c159.5,54.8,231.3,151.9,300.9,245.8c47.2,63.8,91.8,124.1,162.4,171
					c68.1,45.2,137.5,38.7,241.8,10.7c21.7-5.8,41.6-2.7,57.5,9.1c27.2,20.1,42.4,64.7,45,132.8c1.9,48.2-1.6,109.6-45.3,155.9
					c-46.9,49.7-130.9,74.1-264.4,76.7C2060.9,2211,2058.4,2211,2055.9,2211z"/>
			</g>
			<g>
				<path class="st0" d="M1027.6,1425.8c-260.1,89.3-297.7,302.4-474.7,426.2c-52.8,36.9-125.6,57.2-240.8,39.2
					c-53-8.3-115.9-15.7-126.8,71.6c-8.9,70.9,113.8,230.8,338.9,230.3c297-0.7,348.3-345.7,348.3-345.7L1027.6,1425.8z"/>
			</g>
			<g class="st2">
				<path class="st1" d="M905.6,1784.5l-33.1,62.8c0,0-51.4,345.1-348.4,345.8c-225.1,0.5-347.7-159.4-338.9-230.3
					c0.6-4.8,1.3-9.3,2.2-13.5c23.5,113.7,153.5,183.1,342.3,182.7C808.5,2131.3,753.6,1849.1,905.6,1784.5z"/>
			</g>
			<g>
				<path class="st1" d="M523.1,2210.9c-171.9,0-268.4-88.1-301.9-126c-38-42.9-58-89.4-53.6-124.4c4.3-34.2,16.6-59.2,36.7-74.4
					c33-24.8,77.8-17.8,110.6-12.7c98.1,15.3,170.5,3.9,227.7-36.2c67.8-47.4,114.1-107.9,163.2-171.9
					c75.6-98.7,153.7-200.8,316-256.5c9.3-3.2,19.5,1.8,22.7,11.1c3.2,9.4-1.8,19.5-11.1,22.7c-152,52.2-226.8,149.9-299.2,244.4
					c-48.5,63.4-98.7,128.9-171.1,179.5c-64.4,45-147.4,58.8-253.8,42.2c-33-5.2-64.3-8.6-83.5,5.9c-12.3,9.2-19.7,25.7-22.8,50.2
					c-2.3,18.4,8.1,54.6,44.9,96.2c30.3,34.3,117.8,113.9,275.1,113.9c0.4,0,0.7,0,1,0c278.4-0.6,330.2-327.2,330.7-330.5
					c1.5-9.8,10.6-16.6,20.3-15.1c9.8,1.5,16.5,10.6,15.1,20.3c-0.5,3.7-13.9,90.7-65,178.9c-68.7,118.8-172.8,181.8-301,182.1
					C523.8,2210.9,523.4,2210.9,523.1,2210.9z"/>
			</g>
			<g>
				<path class="st1" d="M813.4,2025.9c-6.9,0-12.5-5.6-12.5-12.5c0-148.3-143.1-254.7-144.6-255.8c-5.6-4.1-6.8-11.9-2.7-17.5
					c4.1-5.6,11.9-6.8,17.5-2.7c6.3,4.6,154.9,114.8,154.9,276C825.9,2020.3,820.3,2025.9,813.4,2025.9z"/>
			</g>
			<g>
				<path class="st0" d="M332,1908.9c-47-54.3,2.9-88.3,53.1-59.5c45.6,26.1,86.3,57.6,138,42.6c0,0-3.9,32.8-45.4,68.9
					C436.2,1996.9,332,1908.9,332,1908.9z"/>
			</g>
			<g>
				<path class="st1" d="M318.4,1920.6c-9.4-9.7-18.4-21.3-22.9-37.6c-2.1-8.1-3.1-17.7-0.2-27.6c1.3-4.9,3.7-9.6,6.5-13.9
					c3-4.2,6.6-7.8,10.6-10.7c7.9-5.8,16.6-8.6,24.8-9.9c8.3-1.2,16.2-0.6,23.7,0.8c7.5,1.4,14.5,3.9,20.9,7
					c3.2,1.6,6.4,3.2,9.3,5.1c1.6,0.9,2.9,1.8,4.1,2.6l3.8,2.5c20.1,13.4,38.5,27.6,58.3,38c9.9,5.2,20.2,9.2,31,11.6
					c10.8,2.3,22.3,2.7,33.9,1.1l0,0c1.4-0.2,2.7,0.8,2.9,2.2c0.2,1.2-0.5,2.2-1.5,2.7c-11.2,5-23.8,7.8-36.6,8
					c-12.8,0.3-25.6-2.2-37.7-5.8c-24.3-7.5-45.8-19.5-66.7-29.9l-3.9-2c-1.3-0.7-2.6-1.3-3.6-1.7c-2.2-1-4.5-1.8-6.7-2.6
					c-4.5-1.5-9-2.3-13.2-2.8c-8.5-0.9-16.4,1.4-19.6,4.2c-1.5,1.5-2.3,2.5-2.7,4.1c-0.5,1.6-0.5,4.2,0.2,7.6
					c0.8,3.3,2.3,7.3,4.4,11.3c2.1,4,4.9,8.2,7.8,12.4l0.6,0.8c5.6,8.2,3.5,19.3-4.7,24.9C334.1,1927.9,324.4,1926.8,318.4,1920.6z"
					/>
			</g>
			<g>
				<path class="st1" d="M545.1,2086.4c-8.3,0.8-17.2,0.2-25.6-3c-8.4-3.2-15.8-8.6-22-14.6c-6.4-6-11.6-12.6-16.7-19l-14.9-19.1
					c-9.7-12.5-20-24.1-31.2-34.6c-11.1-10.6-23.2-19.6-36.1-28c-13.5-9-26.6-17.4-40-24.8c-13.4-7.4-27-13.9-40.9-19.1
					c-27.8-10.7-56.8-14.7-86.2-13.9l-0.5,0c-9.9,0.3-18.1-7.6-18.4-17.5c-0.2-9.2,6.4-16.9,15.3-18.2c34.9-5.2,71.6,0,103.9,13.4
					c32.5,12.9,60.7,33.6,85.7,54c13.4,10.4,25.9,22.5,37,35.4c11.2,12.9,20.5,27.1,29,41.3c8.4,14.2,15.6,28.6,24.4,40.9
					c4.4,6.1,9.6,11.3,15.8,15.1c6.3,3.7,13.6,5.9,21.4,6.8l0,0c1.4,0.2,2.4,1.4,2.3,2.8C547.2,2085.4,546.2,2086.3,545.1,2086.4z"
					/>
			</g>
			<g>
				<path class="st0" d="M1823.9,2550.3H764.2c0,0-1.2-118.4,19.7-294.3c3.7-31.5,8.2-65,13.5-99.9
					c23.4-154.1,63.1-337.4,130.8-519.5c10.2-27.4,21-54.8,32.5-82c9.1-21.6,18.7-43.2,28.7-64.6c7.3-15.7,14.8-31.3,22.6-46.8
					h564.1c7.8,15.5,15.3,31.1,22.6,46.8c10.1,21.6,19.8,43.5,29,65.3c13.1,31.2,25.4,62.6,36.9,93.9
					c64.8,178,103.3,356.3,126.1,506.8c5.3,35.1,9.8,68.6,13.5,100.3C1825.1,2432.1,1823.9,2550.3,1823.9,2550.3z"/>
			</g>
			<g class="st2">
				<path class="st1" d="M1823.9,2550.3H764.2c0,0-1.2-118.4,19.7-294.3c3.7-31.5,8.2-65,13.5-99.9c10.1-66.3,23.2-138.1,40.3-212.9
					c55.4,193.4,233.7,340.6,452.1,340.6h9.5c217.8,0,395.7-146.5,451.6-339.1c16.9,74.2,29.9,145.5,39.9,211.3
					c5.3,35.1,9.8,68.6,13.5,100.3C1825.1,2432.1,1823.9,2550.3,1823.9,2550.3z"/>
			</g>
			<g>
				<path class="st1" d="M1720.4,1802.3c27,58,44.6,119.3,58.2,181.3c7.4,30.9,12.7,62.2,18.3,93.4c2.7,15.6,4.9,31.3,7.3,47
					l3.7,23.5l3.2,23.6l6.4,47.1l5.8,47.2c3.5,31.5,6.8,63,9.4,94.6c5.3,63.3,8.9,126.3,9.2,190.5l0.1,17.7h-18H1285v-35.8h18v35.8
					H764.2h-18l0.1-17.7c0.2-64.5,3.9-127.8,9.2-191.4c5.4-63.5,12.5-126.8,21.9-189.8l3.4-23.6l3.9-23.6
					c2.7-15.7,5.1-31.5,7.9-47.1c6-31.3,11.5-62.7,17.8-93.9c3.1-15.6,5.8-31.4,9.6-46.8c3.7-15.5,7.9-30.9,12.3-46.2
					c4.2-15.4,9.6-30.5,15.7-45.3c6-14.9,12.5-29.6,20.6-43.8c1.7-2.9,5.4-4,8.4-2.3c2,1.1,3.1,3.3,3.1,5.4l0,0.2
					c-0.6,32.7-6.9,63.5-12.6,94.5c-3,15.5-6.3,30.8-10,46.1l-10.6,46c-14.6,61.2-24.6,123.5-34,185.7
					c-9.3,62.3-16.4,124.9-21.7,187.6c-5.3,62.6-8.9,125.9-9.1,188.1l-17.9-17.7h538.9v35.8h-18v-35.8h538.9l-17.9,17.7
					c-0.2-61.9-3.8-124.9-9-187.2c-5.3-62.4-12.1-124.8-21.7-186.7l-3.5-23.2l-4-23.2c-2.8-15.4-5.3-30.9-8.3-46.2
					c-6.2-30.7-11.7-61.5-18.1-92.2c-11.6-61.6-26-122.3-32.4-185.9l0-0.1c-0.3-3.3,2.1-6.3,5.4-6.6
					C1717,1798.6,1719.4,1800,1720.4,1802.3z"/>
			</g>
			<g>
				<g class="st2">
					<path class="st1" d="M1291.1,2159.1c4.4,6.8,8.7,13.5,12.9,20C1299.9,2172.6,1295.5,2165.9,1291.1,2159.1z"/>
				</g>
				<g>
					<path class="st0" d="M1041,2162.9c-65.7,26.6-167.3,21-236.5,12.6c-41.5-5-70.7-43.4-64.6-84.8h0c5.6-37.8,38.8-65.3,77-63.5
						c64.8,3,162,4.5,223.5-9.2"/>
				</g>
				<g class="st2">
					<path class="st1" d="M1041.1,2162.9c-65.7,26.6-167.3,21-236.6,12.7c-41.5-5-70.7-43.4-64.6-84.8c1.2-8.4,3.9-16.4,7.6-23.6
						c10.9,20.9,31.7,36.3,56.9,39.3c69.1,8.4,170.6,13.9,236.3-12.5L1041.1,2162.9z"/>
				</g>
				<g>
					<path class="st1" d="M910.5,2200.3c-38,0-75.8-3.1-108.2-7.1c-24.9-3-47-15.7-62.2-35.6c-15.2-20-21.6-44.7-17.9-69.6
						c7-47.1,47.9-81.1,95.5-78.7c67.5,3.2,160.3,4.2,218.8-8.8c9.3-2.1,32.4-2.2,46,41.5c13.7,44.2,12.2,118.3-34.8,137.4l0,0
						C1009.2,2195.1,959.7,2200.3,910.5,2200.3z M813.4,2045.1c-27.9,0-51.6,20.3-55.7,48.3c-2.3,15.2,1.6,30.4,11,42.6
						c9.3,12.2,22.8,19.9,38,21.8c99,12,179.8,7.9,227.7-11.5c13.8-5.6,17.9-27.9,19-37.3c4-33.5-6-64.8-12.5-72.7
						c-62.5,13.1-156.4,12.1-224.8,8.9C815.2,2045.1,814.3,2045.1,813.4,2045.1z M1041,2162.9L1041,2162.9L1041,2162.9z"/>
				</g>
				<g>
					<path class="st0" d="M1779.8,2175.5c-32.5,3.9-72.2,7.3-111.9,6.9c-2.7,0-5.4,0-8.2-0.1c-2.9,0-5.8-0.1-8.6-0.2
						c-1.9,0-3.9-0.1-5.7-0.2c-2.3-0.1-4.5-0.2-6.8-0.4c-2.9-0.2-5.7-0.4-8.5-0.6h-0.2c-2.8-0.2-5.7-0.5-8.5-0.7
						c-1.9-0.2-3.7-0.4-5.6-0.6c-1.6-0.1-3.2-0.3-4.7-0.5c-2.4-0.3-4.9-0.6-7.3-1c-2.3-0.3-4.5-0.7-6.7-1c-0.5,0-0.9-0.1-1.3-0.2
						c-2.6-0.4-5.2-0.8-7.7-1.3c-2.6-0.5-5.1-1-7.6-1.5c-0.2,0-0.4-0.1-0.6-0.1c-1.4-0.3-2.8-0.6-4.2-1c-1.5-0.3-3.1-0.7-4.6-1.1h0
						c-4.7-1.2-9.3-2.5-13.8-3.9c-2.4-0.7-4.8-1.6-7.2-2.4c-2.4-0.8-4.7-1.7-6.9-2.7l0.3-69.5l0.3-75.3c15.8,3.5,33.9,6,53.1,7.8
						c56,5.1,122.2,3.7,170.4,1.5c1.2,0,2.3-0.1,3.5-0.1c36.6,0,68.1,26.9,73.5,63.5C1850.5,2132.1,1821.3,2170.5,1779.8,2175.5z"/>
				</g>
				<g class="st2">
					<path class="st1" d="M1779.8,2175.5c-32.5,3.9-72.2,7.3-111.9,6.9c-2.7,0-5.4,0-8.2-0.1c-2.9,0-5.8-0.1-8.6-0.2
						c-1.9,0-3.9-0.1-5.7-0.2c-2.3-0.1-4.5-0.2-6.8-0.4c-2.9-0.2-5.7-0.4-8.5-0.6h-0.2c-2.8-0.2-5.7-0.5-8.5-0.7
						c-1.9-0.2-3.7-0.4-5.6-0.6c-1.6-0.1-3.2-0.3-4.7-0.5c-2.4-0.3-4.9-0.6-7.3-1c-2.3-0.3-4.5-0.7-6.7-1c-0.5,0-0.9-0.1-1.3-0.2
						c-2.6-0.4-5.2-0.8-7.7-1.3c-2.6-0.5-5.1-1-7.6-1.5c-0.2,0-0.4-0.1-0.6-0.1c-1.4-0.3-2.8-0.6-4.2-1c-1.5-0.3-3.1-0.7-4.6-1.1h0
						c-4.7-1.2-9.3-2.5-13.8-3.9c-2.4-0.7-4.8-1.6-7.2-2.4c-2.4-0.8-4.7-1.7-6.9-2.7l0.3-69.5l0-5c2.1,0.9,4.4,1.7,6.6,2.5
						c2.4,0.8,4.8,1.7,7.2,2.4c4.5,1.4,9.1,2.7,13.8,3.9h0c1.5,0.4,3.1,0.8,4.6,1.1c1.4,0.3,2.8,0.6,4.2,1l0.6,0.1
						c2.5,0.5,5,1,7.6,1.5c2.5,0.5,5.1,1,7.7,1.3c0.4,0.1,0.9,0.2,1.3,0.2c2.2,0.4,4.4,0.7,6.7,1c2.4,0.3,4.8,0.7,7.3,1
						c1.5,0.2,3.1,0.4,4.7,0.5c1.8,0.2,3.7,0.4,5.6,0.6c2.8,0.3,5.7,0.5,8.5,0.7h0.2c2.8,0.2,5.7,0.4,8.5,0.6
						c2.2,0.1,4.5,0.2,6.8,0.4c1.9,0.1,3.8,0.2,5.7,0.2c2.9,0.1,5.8,0.2,8.6,0.2c2.7,0.1,5.4,0.1,8.2,0.1
						c39.7,0.4,79.4-2.9,111.9-6.9c24.1-2.9,44.1-17.1,55.4-36.6c4.6,8,7.8,16.9,9.2,26.4
						C1850.5,2132.1,1821.3,2170.5,1779.8,2175.5z"/>
				</g>
				<g>
					<path class="st1" d="M1673.8,2200.3c-49.2,0-98.7-5.2-137.3-20.9l0,0c-47-19-48.5-93.2-34.8-137.4c13.6-43.7,36.7-43.6,46-41.5
						c58.6,13,151.3,11.9,218.8,8.8c47.5-2.4,88.6,31.6,95.5,78.7c3.7,24.9-2.7,49.6-17.9,69.6c-15.2,19.9-37.3,32.6-62.2,35.6
						C1749.6,2197.2,1711.8,2200.3,1673.8,2200.3z M1550,2146.3c47.8,19.4,128.7,23.4,227.7,11.5c15.2-1.8,28.7-9.6,38-21.8
						c9.3-12.2,13.2-27.4,11-42.6c-4.3-28.8-29.3-49.4-58.4-48.2c-68.4,3.2-162.4,4.2-224.8-8.9c-6.5,7.9-16.5,39.2-12.5,72.7
						C1532.1,2118.3,1536.2,2140.7,1550,2146.3L1550,2146.3z"/>
				</g>
				<g>
					<path class="st0" d="M1568.6,1970.2v232c0,43.1-35.2,78.3-78.3,78.3H1063c-43,0-78.2-35.2-78.2-78.3v-232
						c0-43.1,35.2-78.2,78.2-78.2h427.3c25.3,0,48,12.2,62.3,31C1562.7,1936.1,1568.6,1952.5,1568.6,1970.2z"/>
				</g>
				<g class="st2">
					<path class="st1" d="M1568.6,1970.2v232.1c0,43-35.2,78.3-78.3,78.3H1063c-43,0-78.2-35.2-78.2-78.2v-86.8
						c45.8,89,201.3,124,329.3,111.1c28.6-2.9,49-30.1,42.2-58c-2-8.3-3.1-17.2-3.1-26.3c0-50.6,33.5-91.7,74.9-91.7
						c40,0,72.7,38.4,74.9,86.7c51.3-67,54.1-156.7,49.7-214.3C1562.7,1936.1,1568.6,1952.5,1568.6,1970.2z"/>
				</g>
				<g>
					<path class="st1" d="M1490.4,2298.4H1063c-53,0-96.2-43.1-96.2-96.1v-232.1c0-53,43.1-96.2,96.2-96.2h427.4
						c53,0,96.2,43.1,96.2,96.2v232.1C1586.5,2255.3,1543.4,2298.4,1490.4,2298.4z M1063,1909.9c-33.3,0-60.3,27.1-60.3,60.4v232.1
						c0,33.3,27.1,60.3,60.3,60.3h427.4c33.3,0,60.3-27.1,60.3-60.3v-232.1c0-33.3-27.1-60.4-60.3-60.4H1063z"/>
				</g>
				<g>
					<circle class="st3" cx="1428.1" cy="2086.3" r="67.5"/>
				</g>
				<g>
					<path class="st0" d="M1495.6,2086.3c0,3.7-0.3,7.2-0.9,10.8c-5.1-32.2-33-56.7-66.6-56.7c-33.6,0-61.5,24.6-66.6,56.7
						c-0.6-3.5-0.9-7.1-0.9-10.8c0-37.3,30.2-67.5,67.5-67.5C1465.4,2018.8,1495.6,2049,1495.6,2086.3z"/>
				</g>
				<g class="st2">
					<path class="st1" d="M1495.5,2086.2c0,37.3-30.2,67.5-67.5,67.5c-37.3,0-67.5-30.2-67.5-67.5c0-8.6,1.6-16.8,4.6-24.4
						c9.7,25.2,34.2,43,62.8,43c28.6,0,53.1-17.8,62.8-43C1493.9,2069.4,1495.5,2077.6,1495.5,2086.2z"/>
				</g>
				<g>
					<path class="st1" d="M1428.1,2167.2c-44.6,0-80.9-36.3-80.9-80.9s36.3-80.9,80.9-80.9c44.6,0,80.9,36.3,80.9,80.9
						S1472.7,2167.2,1428.1,2167.2z M1428.1,2032.2c-29.8,0-54.1,24.2-54.1,54.1c0,29.8,24.2,54.1,54.1,54.1
						c29.8,0,54.1-24.2,54.1-54.1C1482.1,2056.4,1457.9,2032.2,1428.1,2032.2z"/>
				</g>
				<g>
					<path class="st1" d="M1236.8,2295.5c-8.3,0-15-6.7-15-15v-112c0-28.8-13.7-56.3-36.8-73.7c-30.5-23-48.7-59.5-48.7-97.6V1892
						c0-8.3,6.7-15,15-15c8.3,0,15,6.7,15,15v105.3c0,28.8,13.7,56.4,36.8,73.7c30.5,23,48.7,59.5,48.7,97.6v112
						C1251.8,2288.8,1245.1,2295.5,1236.8,2295.5z"/>
				</g>
			</g>
			<g class="st2">
				<path class="st1" d="M1780.4,1501.6c-126.6,159.2-315.2,253.7-520.2,238.7c-178.3-13-334.7-106.5-442.7-246.6
					c35.5-27,79.7-43.1,127.5-43.1h698.3C1695.4,1450.6,1743.4,1469.8,1780.4,1501.6z"/>
			</g>
			<g>
				<g>
					<path class="st0" d="M1991.6,1153.1L1991.6,1153.1c-7.9,0-14.4-6.3-14.4-14.3l-2.3-412.8c0-7.9,6.3-14.4,14.3-14.4h0
						c83-0.5,150.7,66.5,151.2,149.5l0.8,140.8C2141.6,1084.9,2074.7,1152.6,1991.6,1153.1z"/>
					<path class="st1" d="M1991.5,1156.4c-4.7,0-9.1-1.8-12.4-5.1c-3.4-3.3-5.2-7.8-5.3-12.5l-2.3-412.8c0-4.7,1.8-9.2,5.1-12.5
						c3.3-3.4,7.8-5.2,12.5-5.3c41-0.2,79.7,15.5,108.9,44.4c29.2,28.9,45.4,67.4,45.6,108.4l0.8,140.8
						c0.2,41.1-15.5,79.7-44.4,108.9c-28.9,29.2-67.4,45.4-108.4,45.6l0,0C1991.6,1156.4,1991.6,1156.4,1991.5,1156.4z M1990,715
						c-0.3,0-0.6,0-0.9,0c-2.9,0-5.7,1.2-7.7,3.3c-2.1,2.1-3.2,4.8-3.2,7.8l2.3,412.8c0,2.9,1.2,5.7,3.3,7.7c2.1,2,4.8,3.2,7.7,3.2
						c0,0,0,0,0.1,0l0,0c39.3-0.2,76.1-15.7,103.7-43.6c27.6-27.9,42.7-64.9,42.5-104.2l-0.8-140.8c-0.2-39.3-15.7-76.1-43.6-103.7
						C2065.6,730,2028.9,715,1990,715z"/>
				</g>
				<g class="st2">
					<path class="st1" d="M2140.7,935.9l0.4,66c0.5,83-66.5,150.7-149.5,151.2c-7.9,0.1-14.4-6.4-14.4-14.3l-0.7-109.7
						c2.3,5,7.3,8.4,13.1,8.4l9.8-0.1C2065,1037.1,2120.6,994.7,2140.7,935.9z"/>
				</g>
				<g>
					<path class="st1" d="M1991.5,1171.8c-8.8,0-17-3.4-23.3-9.6c-6.3-6.2-9.8-14.5-9.8-23.3l-2.3-412.8c0-8.8,3.3-17.2,9.6-23.4
						c6.2-6.3,14.5-9.8,23.3-9.8c45.3-0.4,87.7,17.1,119.8,48.9c32.1,31.8,49.9,74.1,50.2,119.3l0.8,140.8
						c0.3,45.2-17.1,87.7-48.9,119.8s-74.1,49.9-119.3,50.2l0,0C1991.7,1171.8,1991.6,1171.8,1991.5,1171.8z M1993.7,730.4
						l2.3,403.8c33.5-1.3,64.7-15,88.4-39c24.7-25,38.2-58.1,38-93.3l-0.8-140.8c-0.2-35.2-14.1-68.1-39.1-92.8
						C2058.6,744.7,2027.2,731.3,1993.7,730.4z"/>
				</g>
				<g>
					<path class="st0" d="M626.6,719.3L626.6,719.3c7.9,0,14.4,6.3,14.4,14.3l2.3,412.8c0,7.9-6.3,14.4-14.3,14.4h0
						c-83,0.5-150.7-66.5-151.2-149.5l-0.8-140.8C476.6,787.4,543.6,719.7,626.6,719.3z"/>
					<path class="st1" d="M628.2,1164.1c-84.4,0-153.2-68.4-153.7-152.9l-0.8-140.8c-0.5-84.8,68.1-154.1,152.8-154.6l0,0
						c4.9,0.1,9.2,1.8,12.5,5.1c3.4,3.3,5.2,7.8,5.3,12.5l2.3,412.8c0,4.7-1.8,9.2-5.1,12.5c-3.3,3.4-7.8,5.2-12.5,5.3
						C628.8,1164.1,628.5,1164.1,628.2,1164.1z M626.6,722.6c-81,0.5-146.6,66.8-146.1,147.8l0.8,140.8
						c0.5,80.8,66.3,146.1,147,146.2c0.3,0,0.6,0,0.8,0c2.9,0,5.7-1.2,7.7-3.3c2.1-2.1,3.2-4.8,3.2-7.8l-2.3-412.8
						c0-2.9-1.2-5.7-3.3-7.7S629.5,722.5,626.6,722.6L626.6,722.6z"/>
				</g>
				<g class="st2">
					<path class="st1" d="M642.7,1031.8l0.6,114.5c0.1,7.9-6.4,14.4-14.3,14.4c-43.6,0.2-83-18.1-110.6-47.6
						c-25-26.6-40.3-62.5-40.5-101.9l-0.3-59.3c23.9,51.9,76.6,87.9,137.5,87.5l15.1-0.1C635.6,1039.3,640.3,1036.3,642.7,1031.8z"
						/>
				</g>
				<g>
					<path class="st1" d="M628.2,1179.5c-92.8,0-168.6-75.2-169.1-168.1l-0.8-140.8c-0.5-93.2,74.9-169.5,168.1-170l0,0
						c8.9,0,17.2,3.3,23.4,9.6c6.3,6.2,9.8,14.5,9.8,23.3l2.3,412.8c0,8.8-3.3,17.2-9.6,23.4c-6.2,6.3-14.5,9.8-23.3,9.8
						C628.9,1179.5,628.6,1179.5,628.2,1179.5z M622.3,738.1c-70.5,2.7-126.8,61.2-126.4,132.2l0.8,140.8
						c0.4,71.1,57.4,128.9,127.9,130.8L622.3,738.1z"/>
				</g>
				<g>
					<circle class="st0" cx="1309.2" cy="936.2" r="703.4"/>
					<path class="st1" d="M1310.2,1643c-15.7,0-31.4-0.5-47.2-1.5C874.1,1616,578.4,1278.9,603.9,890
						c25.5-388.9,362.5-684.6,751.5-659.1c388.9,25.5,684.6,362.6,659.1,751.5c-12.3,188.4-97.3,360.7-239.2,485.2
						C1645.2,1581.6,1481.6,1643,1310.2,1643z M1308.7,236.1c-365.4,0-673.9,284.6-698.1,654.4c-25.2,385.2,267.7,719.1,652.8,744.3
						c15.5,1,30.9,1.5,46.2,1.5c365.4,0,673.9-284.6,698.1-654.4c25.2-385.2-267.7-719.1-652.8-744.3
						C1339.5,236.6,1324,236.1,1308.7,236.1z"/>
				</g>
				<g class="st2">
					<path class="st1" d="M2010.8,884.5c2.4,32,2.5,64.6,0.4,97.6c-25.4,387.7-360.3,681.3-747.9,656
						c-387.7-25.4-681.3-360.2-656-747.9c0.7-11.1,1.7-22.3,3-33.2c25,344.8,300.9,627.1,655.6,650.3
						C1642.3,1531.9,1968.9,1255.6,2010.8,884.5z"/>
				</g>
				<g>
					<path class="st1" d="M1309.7,1658.4c-15.8,0-31.7-0.5-47.7-1.6c-397.4-26-699.5-370.5-673.5-767.8
						c26-397.4,370.4-699.5,767.8-673.5c397.4,26,699.5,370.5,673.5,767.8C2004.9,1364.7,1686.6,1658.4,1309.7,1658.4z
						 M1308.7,251.5c-357.3,0-659.1,278.4-682.8,640c-24.7,376.7,261.8,703.3,638.5,728c15.1,1,30.2,1.5,45.2,1.5
						c357.3,0,659.1-278.4,682.8-640c24.7-376.7-261.8-703.3-638.5-728C1338.8,252,1323.7,251.5,1308.7,251.5z"/>
				</g>
				<g>
					<path class="st1" d="M2007.7,1000c-6.9,137.5-58,262.9-139.6,364.6c-61.2,76.3-303.4,203-594,191
						c-269.4-11.1-507.2-167-560.5-249.1c-71-109.4-109.2-239.3-102.3-376.8c18.3-363.8,338.5-498.9,724.1-479.5
						C1721,469.7,2026,636.2,2007.7,1000z"/>
				</g>
				<g>
					<path class="st1" d="M1313.9,1575.2c-13.4,0-26.9-0.3-40.6-0.8C994,1562.9,753.9,1403,697.9,1316.8
						c-75.8-116.8-112.2-250.9-105.3-387.9c9-178.6,87.5-312.8,233.5-398.7c127.3-74.9,303.7-109,510.2-98.6
						c206.5,10.4,378.6,62,497.8,149.3c136.6,100.1,201.3,241.5,192.3,420.1l0,0c-6.9,137-56.6,266.8-143.7,375.4
						C1825,1448.4,1602.5,1575.2,1313.9,1575.2z M1268.5,467.3c-226.1,0-618.1,58.9-638.5,463.4c-6.5,129.1,27.8,255.5,99.3,365.7
						c50.7,78.2,282.8,229.7,545.5,240.6c291.3,12.1,524-116,578.6-184c82.2-102.4,129-224.8,135.5-353.8
						c8.3-165.2-51.3-295.8-177-388c-113.2-83-278.3-132.1-477.5-142.1C1314.8,468,1292.6,467.3,1268.5,467.3z M2007.7,1000
						L2007.7,1000L2007.7,1000z"/>
				</g>
				<g class="st4">
					
						<ellipse transform="matrix(0.2275 -0.9738 0.9738 0.2275 463.0378 2462.0242)" class="st0" cx="1783.3" cy="939.2" rx="124.5" ry="90.2"/>
				</g>
				<g class="st4">
					
						<ellipse transform="matrix(0.3599 -0.933 0.933 0.3599 -37.8961 2304.5674)" class="st0" cx="1660.5" cy="1179.9" rx="57.1" ry="49"/>
				</g>
				<g class="st2">
					<path class="st5" d="M1889,653.8c81.3,85.7,126,200.1,118.7,346.2c-6.9,137.5-58,262.9-139.6,364.7
						c-61.2,76.3-303.4,203-594,191c-102.6-4.2-200.6-29.4-285.6-63.6c357.5,7.1,652.6-148.5,728.5-243.2
						c103.6-129.2,168.4-288.3,177.2-462.8C1896.6,739.5,1894.6,695.4,1889,653.8z"/>
				</g>
				<g>
					<path class="st1" d="M1963.7,696.3c-4.5,0-9.1-1.7-12.6-5l-1.9-1.7l-1.1-1.8c-109.9-171.8-333.7-278.4-613.9-292.5
						c-281.8-14.1-515.1,72.5-640,237.9l-1.3,1.6c-6.7,7.5-18.2,8-25.7,1.3c-7.3-6.6-8-17.8-1.8-25.4
						c132.4-174.9,376.9-266.7,670.7-252c291.8,14.7,525.8,127.1,642.4,308.5c5.1,7,4.7,16.9-1.5,23.4
						C1973.4,694.4,1968.6,696.3,1963.7,696.3z"/>
				</g>
				<g class="st4">
					<path class="st0" d="M757.3,1154.1c0,0-94.6-364.6,106-497.9s478.9-118.7,471.5-101.2c0,0-311.8,59.1-444.6,296.6
						C787.7,1034.7,757.3,1154.1,757.3,1154.1z"/>
				</g>
			</g>
			<g>
				<path class="st0" d="M1328.4,2734.1c0,0-440.7,49.9-636.5-118.4c-267.6-229.9-38.1-518.1,160.6-441.3
					c173.1,66.8,244.2,119.4,551.7,169.8c257.6,42.2,478.9,306.7,294,460.2C1567.7,2912.7,1328.4,2734.1,1328.4,2734.1z"/>
			</g>
			<g class="st2">
				<path class="st1" d="M1698.1,2804.3c-130.5,108.4-369.8-70.2-369.8-70.2s-440.7,49.9-636.6-118.4
					c-77.1-66.3-113-137.4-120.1-203.2c13.3,15.4,28.7,30.7,46.1,45.6c195.9,168.3,636.6,118.4,636.6,118.4s239.3,178.7,369.8,70.3
					c51-42.4,71.1-93.2,68-145.5C1777.9,2598.2,1801.4,2718.6,1698.1,2804.3z"/>
			</g>
			<g>
				<path class="st1" d="M1593.7,2857.3c-115.9,0-241.5-84.2-270.2-104.7c-59.5,5.9-455,38.4-643.3-123.3
					c-152.4-131-147.9-276-92.8-368.1c58.7-98.1,172.9-141.6,271.6-103.5c38.4,14.8,71.5,28.8,103.6,42.4
					c111,46.9,206.9,87.5,444.5,126.4c171.1,28,333.5,154.5,369.8,288c21.1,77.8-2.7,150.1-67.2,203.7
					C1675.4,2846.5,1635.2,2857.3,1593.7,2857.3z M1333.4,2715.5l5.7,4.2c1.8,1.3,138.1,101.6,254.5,101.7
					c34.1,0,66.4-8.6,93.2-30.8c53.8-44.7,73-102.3,55.5-166.7c-32.9-121-182.7-236.1-341-262c-241.8-39.6-339.5-80.9-452.6-128.8
					c-31.8-13.5-64.7-27.4-102.6-42c-82.4-31.8-178.2,5.4-227.9,88.5c-47.6,79.6-50.2,206.1,85.4,322.6
					c187.8,161.3,618.5,114.6,622.9,114.2L1333.4,2715.5z"/>
			</g>
			<g>
				<path class="st1" d="M916.7,2728.2c-4.5,0-8.8-2.4-11-6.6c-3.2-6.1-0.9-13.7,5.2-16.9c184.9-98.6,133-442,132.4-445.5
					c-1.1-6.8,3.6-13.2,10.4-14.3c6.8-1.1,13.2,3.6,14.3,10.4c2.3,14.8,55.1,364.6-145.4,471.4
					C920.7,2727.8,918.7,2728.2,916.7,2728.2z"/>
			</g>
			<g>
				<path class="st0" d="M1242.4,2734.1c0,0,440.7,49.9,636.5-118.4c267.6-229.9,38.1-518.1-160.6-441.3
					c-173.1,66.8-244.2,119.4-551.7,169.8c-257.6,42.2-478.9,306.7-294,460.2C1003.1,2912.7,1242.4,2734.1,1242.4,2734.1z"/>
			</g>
			<g class="st2">
				<path class="st1" d="M1878.9,2615.7c-195.8,168.3-636.5,118.4-636.5,118.4s-239.3,178.6-369.8,70.2
					c-63.4-52.7-79-118.4-61.7-183.7c9.4,31.9,18.7,81,51.9,106.8c101.3,78.7,213.4,43.9,283.7-18.5c53.3-47.3,44.6-86,78.8-105.3
					c38.4-21.6,92.9,58.2,212.8,64.5c225.5,11.7,379.4-55.1,451.9-129.2c63.1-64.5,93.2-139.2,105.4-198.5
					C2013.1,2423.6,1985.3,2524.3,1878.9,2615.7z"/>
			</g>
			<g>
				<path class="st1" d="M977.1,2857.3c-41.5,0-81.8-10.8-115.9-39.2c-64.5-53.5-88.4-125.9-67.2-203.7
					c36.3-133.4,198.7-259.9,369.8-288c237.6-38.9,333.5-79.5,444.5-126.4c32.1-13.6,65.3-27.6,103.6-42.4
					c98.7-38.1,212.9,5.4,271.6,103.5c55.1,92.1,59.6,237.1-92.8,368.1c-188.2,161.7-583.7,129.2-643.3,123.3
					C1218.6,2773.1,1093,2857.3,977.1,2857.3z M1785.6,2179.8c-20.5,0-41.1,3.7-60.8,11.3c-37.8,14.6-70.7,28.5-102.6,42
					c-113.1,47.8-210.8,89.1-452.6,128.8c-158.4,26-308.2,141-341,262c-17.5,64.4,1.7,122,55.5,166.7
					c118.1,98.1,345.4-69.1,347.6-70.8l5.7-4.2l7,0.8c4.3,0.5,435.2,47.1,622.9-114.2c135.6-116.5,133-243,85.4-322.6
					C1914.9,2216.5,1850.5,2179.8,1785.6,2179.8z"/>
			</g>
			<g>
				<path class="st1" d="M1654,2728.2c-2,0-4-0.5-5.9-1.5c-200.5-106.9-147.7-456.6-145.4-471.4c1.1-6.8,7.5-11.5,14.3-10.4
					c6.8,1.1,11.5,7.5,10.4,14.3c-0.5,3.5-52.4,347,132.4,445.5c6.1,3.2,8.4,10.8,5.2,16.9C1662.8,2725.8,1658.5,2728.2,1654,2728.2
					z"/>
			</g>
			<g>
				<g class="st6">
					<path class="st7" d="M2415.7,2107.4v3.3h-9.4C2409.5,2109.7,2412.6,2108.6,2415.7,2107.4z"/>
				</g>
				<g>
					<path class="st8" d="M2186.1,1967.8c0,52.4,21.3,99.8,55.6,134.2c34.4,34.3,81.8,55.6,134.2,55.6h181.9l-64.9-379.5h-117.1
						C2271.1,1778.1,2186.1,1863,2186.1,1967.8z M2241.7,1967.8c0-63.4,70.8-114.7,134.1-114.7h53.8l39.2,229.4h-93
						c-31.7,0-60.3-12.9-81.1-33.6C2274,2028.2,2241.7,1999.5,2241.7,1967.8z"/>
				</g>
				<g class="st2">
					<path class="st1" d="M2186.1,1967.8c0,52.4,21.3,99.8,55.5,134.2c34.4,34.3,81.8,55.6,134.2,55.6h182l-6.1-35.4h-175.9
						c-52.4,0-99.8-21.3-134.2-55.6c-30.4-30.4-50.5-71.1-54.7-116.4C2186.4,1955.9,2186.1,1961.8,2186.1,1967.8z M2462.8,2047.1
						h6.1l-39.2-229.4h-53.8c-63.3,0-91.2,33.6-128.8,98.5c-3,5.2-6.2,28.2-5.3,33.9c8.5-54.9,76.8-97,134.1-97h53.8L2462.8,2047.1z
						"/>
				</g>
				<g>
					<path class="st1" d="M2579,2175.5h-203.2c-55.4,0-107.6-21.6-146.8-60.8c-39.2-39.3-60.8-91.4-60.8-146.8
						c0-114.5,93.1-207.6,207.6-207.6H2508L2579,2175.5z M2375.8,1796c-94.7,0-171.8,77.1-171.8,171.8c0,45.9,17.9,89,50.3,121.5
						c32.5,32.4,75.6,50.3,121.5,50.3h160.7l-58.7-343.7H2375.8z M2490.1,2100.4h-114.2c-61.1,0-152-35.3-152-132.6
						c0-83,77.3-132.6,152-132.6h68.9L2490.1,2100.4z M2375.8,1871c-56.3,0-116.2,33.9-116.2,96.8c0,95.7,115,96.8,116.2,96.8h71.8
						l-33.1-193.6H2375.8z"/>
				</g>
				<g>
					<path class="st8" d="M2467.7,2151.2c17.6,37.3,52.8,63.6,93.7,68.9c22.5,2.9,45.2,4.4,67.9,4.4c22.7,0,45.4-1.5,67.9-4.4
						c41.1-5.4,76.2-31.9,93.9-69.4c41.9-88.8,63.7-185.8,63.7-284.2c0-14.1-0.4-28.2-1.3-42.3l-6.7-106.5
						c0,22.7-97.4,41.1-217.6,41.1c-120.1,0-217.5-18.4-217.5-41.1l-6.8,106.5C2397.8,1937.1,2419.6,2049.6,2467.7,2151.2z"/>
				</g>
				<g>
					<g class="st9">
						<path class="st10" d="M2688.6,2003.3c-7.9-15.7-19.7-28.3-31.9-40.6c-6.4-6.5-12.1-13.3-16.9-20.6
							c-6.5-9.9-11.3-20.6-13.9-32.2c-0.7-2.9-1.2-5.9-1.6-8.9c-0.5-4-0.8-8.2-0.8-12.4c0-4.4,1.3-6.4,5.7-7.4
							c8.1-1.7,16-1.6,23.5,0.1c0,0,0,0,0,0c5.5,1.3,10.8,3.5,16,6.5c37.8,22.2,60.6,72.8,52.2,115.8c-3,15.5-9.1,29.5-22.9,39.9
							C2698.2,2028.9,2694.8,2015.8,2688.6,2003.3z"/>
					</g>
					<g class="st9">
						<path class="st10" d="M2605.7,1892.6c0.4,20.7,6,38.5,15.3,54.3c7.4,12.5,17.1,23.8,28.4,34.3c5.8,5.4,10.8,11.7,15.3,18.3
							c9.8,14.5,16.1,30.1,15.7,48c-0.1,4.8-1.9,6.8-6.4,7.8c-14.4,3.1-27.8,0.4-40.2-6.8c-25.3-14.8-43.4-42.5-50.2-72.2
							c-3.3-14.6-3.9-29.6-1.2-43.9c0-0.1,0-0.3,0.1-0.4c0.6-3.1,1.4-6.2,2.3-9.1C2588.2,1911.1,2594.4,1900.5,2605.7,1892.6z"/>
					</g>
				</g>
				<g class="st11">
					<path class="st0" d="M2854.8,1866.5c0,98.4-21.8,195.4-63.7,284.2c-6.9,14.6-16.4,27.5-28,38.2
						c38.6-85.8,58.7-178.9,58.7-273.2c0-14.1-0.4-28.2-1.3-42.3l-3.7-58.4c-1.2-19.5-19.6-33.5-38.7-29.1
						c-44.5,10.3-121.4,14-176,5.2c-51.7-8.3-100.7-26.4-143.6-47.9c39.9,9.5,101.6,15.6,170.8,15.6c120.2,0,217.6-18.4,217.6-41.1
						l6.7,106.5C2854.4,1838.4,2854.8,1852.4,2854.8,1866.5z"/>
				</g>
				<g class="st2">
					<path class="st1" d="M2469.1,2154.1c16.9,35.3,50.2,60.2,89.1,65.5c23.6,3.2,47.4,4.8,71.1,4.8c23.8,0,47.6-1.6,71.2-4.8
						c38.1-5.2,71.4-28.9,88.1-63.5c0.1-0.2,0.2-0.4,0.3-0.5c-0.3,0.6-0.7,1.2-1.1,1.8c-43.1,11.1-87.2,16.7-131.4,16.7
						c-0.4,0-0.9,0-1.3,0c-82.2-0.2-155.6-52.4-183.8-129.6c-31.5-86.1-45-178.3-39.2-270.7l2.4-37.9c-14.5-5.5-22.6-11.7-22.6-18.3
						l-6.8,106.5C2397.7,1938.2,2420,2051.7,2469.1,2154.1z"/>
				</g>
				<g>
					<path class="st0" d="M2411.7,1717.8c0,22.7,97.4,41.1,217.5,41.1c120.2,0,217.6-18.4,217.6-41.1c0-22.7-97.4-41.1-217.6-41.1
						C2509.1,1676.7,2411.7,1695.1,2411.7,1717.8z"/>
				</g>
				<g>
					<path class="st0" d="M2411.7,1717.7c0,7.5,10.6,14.5,29.1,20.6c37.6,12.3,107.9,20.5,188.4,20.5c80.5,0,150.8-8.3,188.5-20.5
						c18.5-6.1,29.1-13.1,29.1-20.6c0-22.7-97.4-41.1-217.6-41.1C2509.1,1676.6,2411.7,1695.1,2411.7,1717.7z"/>
				</g>
				<g>
					<path class="st12" d="M2443.9,1738.3c37.6,12.3,107.9,20.5,188.4,20.5c80.5,0,150.8-8.3,188.5-20.5
						c-37.7-12.3-108-20.6-188.5-20.6C2551.8,1717.7,2481.5,1726,2443.9,1738.3z"/>
				</g>
				<g>
					<path class="st1" d="M2629.2,2242.4c-24.4,0-49-1.7-73.1-5c-44.9-6.1-83.5-34.5-103.4-75.9c-50.3-105.1-73-222.1-65.6-338.4
						l6.8-106.5l35.8,1.1c0-2.7-1.1-4.6-1.5-5c8.5,9.5,78.3,28.2,201.1,28.2c122.8,0,192.6-18.7,201.2-28.2c-0.4,0.4-1.5,2.3-1.5,5
						l35.8-1.1l6.7,106.5c0.9,14,1.4,28.3,1.4,43.4c0,102.2-23.5,204.9-67.9,296.9c-19.4,40.2-57.7,67.9-102.4,74
						C2678.3,2240.7,2653.6,2242.4,2629.2,2242.4z M2427.5,1752.5l-4.6,72.8c-7,110.2,14.5,221.1,62.2,320.7l0,0
						c14.6,30.5,43,51.5,75.9,55.9c45.2,6.1,91.5,6.1,136.7,0c32.8-4.5,60.8-24.7,75-54.1c42.1-87.2,64.3-184.5,64.3-281.3
						c0-14.4-0.4-27.9-1.3-41.2l-4.6-72.8c-11.6,4.5-26.5,8.4-44.7,11.8c-42.1,7.9-98,12.3-157.2,12.3c-59.2,0-115-4.4-157.1-12.3
						C2453.9,1761,2439.1,1757,2427.5,1752.5z"/>
				</g>
				<g>
					<path class="st1" d="M2629.2,1776.7c-59.2,0-115-4.4-157.1-12.3c-54.1-10.2-78.3-24.6-78.3-46.6s24.1-36.4,78.3-46.7
						c42.2-8,98-12.4,157.1-12.4c59.2,0,115,4.4,157.2,12.4c54.1,10.2,78.3,24.6,78.3,46.7s-24.1,36.4-78.3,46.6
						C2744.3,1772.3,2688.4,1776.7,2629.2,1776.7z M2436.6,1717.8c23.2,9.9,89.1,23.2,192.6,23.2c103.6,0,169.5-13.3,192.7-23.2
						c-23.2-9.9-89.1-23.2-192.7-23.2C2525.7,1694.5,2459.8,1707.9,2436.6,1717.8z"/>
				</g>
			</g>
			<g>
				<path class="st0" d="M2106,1844.4c-15.7,53.6,1.6,104.3,32.6,117.3c65.2,27.4,112.3-99.7,112.3-99.7s-21.9-91.9-64.9-90.4
					C2155.5,1772.6,2120.2,1795.8,2106,1844.4z"/>
			</g>
			<g class="st2">
				<path class="st1" d="M2250.9,1861.9c0,0-47.1,127.2-112.3,99.7c-31-13-48.3-63.7-32.6-117.3c3.2-10.9,7.4-20.5,12.4-28.9
					c-1.4,39.1,14.4,71.8,38.4,81.8c37.5,15.8,69-19.6,89-52.5C2249.2,1854.9,2250.9,1861.9,2250.9,1861.9z"/>
			</g>
			<g>
				<path class="st1" d="M2157,1984.4c-8.7,0-17.4-1.8-25.8-5.3c-42.1-17.7-61.2-79.3-43.4-140.1l0,0c18.1-61.9,63.9-85.2,97.5-86.4
					c55.6-1.8,79.7,87,83.9,104.9l1.3,5.6l-2,5.4c-3.3,9-33.9,88.2-84.7,110.2C2175.1,1982.5,2166,1984.4,2157,1984.4z
					 M2124.1,1849.7c-13.1,44.8,0.9,85.8,21.7,94.5c7.7,3.3,15,3.2,23-0.2c28.1-12.2,52.6-60,62.2-83.3
					c-8.5-30.9-27.6-70.9-44.3-70.2C2163.9,1791.3,2135.8,1809.9,2124.1,1849.7L2124.1,1849.7z"/>
			</g>
			<g>
				<path class="st0" d="M2367.3,1834.5c0,0-60.1-98.5-145-49.1c-66,38.3-56.2,181.4-49.4,213.8c24.1,116,108.3,183.1,172.3,82.1
					C2348.2,2076.5,2379.7,1959.3,2367.3,1834.5z"/>
			</g>
			<g class="st2">
				<path class="st1" d="M2345.2,2081.3c-64,101-148.2,33.9-172.3-82.1c-3.3-15.9-7.3-58.5-2.8-102.3c0.9,8.4,1.8,15.1,2.8,19.7
					c24.1,116,105.1,125.7,172.3,82.1c3.4-2.2,18.9-64.4,23.8-144.6C2376.5,1971.3,2348.1,2076.7,2345.2,2081.3z"/>
			</g>
			<g>
				<path class="st1" d="M2275.4,2149.6c-4.9,0-9.4-0.5-13.1-1.2c-49-8.9-91.4-66-107.9-145.4c-6.1-29.4-20.5-188.2,58.5-234.1
					c79.9-46.4,146.6,16.1,170.7,55.6l2.3,3.7l0.4,4.3c12.3,123.6-17.9,247.5-25,258.8C2330.8,2139.4,2297.8,2149.6,2275.4,2149.6z
					 M2269.9,1790.8c-11.8,0-24.6,3.2-38.1,11c-54,31.3-47.1,161.5-40.4,193.6c12.9,62.2,44.8,109.8,77.6,115.8
					c25.3,4.6,46.1-18.1,59.3-38.6c5.1-14.8,30.7-120,20.6-231.5C2340.7,1829,2311,1790.8,2269.9,1790.8z M2329.2,2071.2
					c-0.1,0.1-0.2,0.2-0.3,0.4C2329,2071.4,2329.1,2071.3,2329.2,2071.2z"/>
			</g>
			<g>
				<path class="st1" d="M1884.3,2154.6c-6.1,0-11.5-4.5-12.4-10.7c-36.1-251.9,92.5-341.5,98-345.2c5.7-3.8,13.5-2.3,17.3,3.4
					c3.8,5.7,2.3,13.5-3.4,17.3c-1.3,0.9-120.9,85.7-87.2,320.9c1,6.8-3.8,13.2-10.6,14.1
					C1885.5,2154.6,1884.9,2154.6,1884.3,2154.6z"/>
			</g>
		</g>
		<g class="st11">
			<g>
				<path class="st0" d="M2606.2,1246.8l-35.4,2.3c-11.2,0.9-21.7,6.3-28.7,14.6c-7,8.2-10.5,18.9-9.7,29.2
					c0.7,10.3,5.7,20,13.4,26.4c7.7,6.5,17.3,9.8,27.3,9.2l35.5-1.2c23.6-0.9,47.3-1.3,70.9-1.9c23.6-0.5,47.3-1.3,70.9-1.5l8.9-0.1
					c1.6,0,3.8,0.1,5.7,0.2c2,0.2,3.9,0.5,5.8,0.8c7.7,1.6,15.2,4.9,21.5,9.6c12.8,9.3,21,25,21.4,41.1c0.7,16.1-6.8,32.4-19.2,42.7
					c-6.2,5.1-13.6,8.9-21.5,10.9c-3.9,1-8,1.5-12,1.7c-1.1,0.1-1.8,0.1-2.5,0.1l-2.2,0l-4.4,0l-70.9,0.3
					c-47.3,0.1-94.5-0.1-141.8-0.5l-35.5-0.4l-2.2,0l-1.5,0c-0.9,0-1.8,0.1-2.7,0.2c-1.8,0.2-3.6,0.8-5.3,1.4
					c-3.4,1.4-6.5,3.6-8.9,6.4c-2.4,2.9-4.1,6.2-4.9,9.8c-0.8,3.6-0.7,7.5,0.3,11.1c1.9,7.3,7.8,13.5,15.1,16.2
					c3.8,1.5,6.9,1.5,13.6,1.7l17.7,0.4l35.5,0.9c23.6,0.5,47.3,1.5,70.9,2.2c14.3,0.1,28.7,7.6,36.6,19.4
					c8.1,11.7,9.7,27.3,4.5,40.1c-5,12.8-16.5,22.6-29.5,25.3c-3.2,0.8-6.5,1-9.8,1c-3.2,0-6-0.3-9-0.4l-17.7-0.9l2.5-2.5l-2.5,39.4
					l-2.5-39.4c-0.1-1.3,0.9-2.4,2.2-2.4l0,0l0.3,0l17.7-0.9c2.9-0.2,6-0.3,8.8-0.5c2.6-0.2,5.3-0.7,7.7-1.6
					c9.9-3.3,17.9-11.4,20.6-20.9c3-9.5,0.7-20.1-5.4-27.3c-6-7.4-15.2-11.4-24.6-10.9c-23.6,0.7-47.3,1.7-70.9,2.2l-35.5,0.9
					l-17.7,0.4c-3.1,0-5.4,0.2-9.8,0c-3.9-0.2-7.8-0.9-11.6-2.1c-15.3-4.5-27.9-17-32.6-32.5c-2.4-7.7-2.8-16-1.4-23.9
					c1.5-8,5-15.6,10-21.9c5-6.4,11.7-11.4,19.1-14.8c3.7-1.6,7.6-2.9,11.7-3.6c2-0.4,4-0.7,6.1-0.7l2.9-0.1l2.2,0l35.5-0.4
					c47.3-0.4,94.5-0.6,141.8-0.5l70.9,0.3l4.4,0l2.2,0c0.8,0,1.5,0,1.9,0c1.9,0,3.7-0.2,5.5-0.7c3.6-0.9,7-2.5,10-4.8
					c5.8-4.8,9.6-11.9,9.5-19.5c0-7.5-3.4-15.1-9.6-19.9c-3-2.4-6.6-4.2-10.4-5.1l-2.9-0.5l-3.2-0.2l-8.9-0.1
					c-23.6-0.2-47.3-1-70.9-1.5c-23.6-0.6-47.3-1-70.9-1.9l-35.5-1.2c-13.6-0.2-27.7-5.8-37.2-15.7c-9.7-9.7-15.1-23.3-14.9-36.6
					c0.1-13.3,5.8-26.3,15.3-35.1c9.3-8.9,22.1-13.8,34.5-13.4C2582.6,1245.2,2594.3,1245.9,2606.2,1246.8z"/>
			</g>
		</g>
	</g>
</g>
<rect x="2425.1" y="1899.9" class="st13" width="421.2" height="438.2"/>
<text transform="matrix(1 0 0 1 2478.6799 2047.8689)" class="st14 st15 st16">&lt;/&gt;</text>
</svg>
