<?xml version="1.0" encoding="utf-8"?>
<svg version="1.1" id="Camada_1" xmlns="http://www.w3.org/2000/svg" xmlns:xlink="http://www.w3.org/1999/xlink" x="0px" y="0px"
	 viewBox="0 0 36 36" style="enable-background:new 0 0 36 36;" xml:space="preserve">
<style type="text/css">
	.st0{fill:#ADBAC7;}
	.st1{fill:#22272E;}
</style>
<rect x="2.7" y="2.5" class="st0" width="30.5" height="30.5"/>
<g id="Camada_3">
	<ellipse class="st1" cx="20.7" cy="24.3" rx="1.1" ry="2"/>
	<path class="st1" d="M31.4,0H4.5C2,0,0,2,0,4.5v26.9C0,33.9,2,36,4.5,36h26.9c2.5,0,4.6-2,4.6-4.5c0,0,0-0.1,0-0.1V4.5
		C36,2,33.9,0,31.4,0C31.4,0,31.4,0,31.4,0z M17.4,6.1h1.3c1.9,0,3.8,0.5,5.5,1.5l-4.5,2.8v0.1c0,0.9-0.6,1.6-1.5,1.7
		c-0.9,0.1-1.7-0.6-1.8-1.5c0-0.1,0-0.1,0-0.2v-0.1l-4.5-2.8C13.5,6.6,15.4,6.1,17.4,6.1z M5.2,24.4c-0.5,0-0.9-0.4-1-1v-3.2
		c0-0.5,0.4-0.9,1-1V24.4z M23.7,30.1l-1.8,0.5c-2.4,0.7-4.9,0.7-7.4,0.1l-2.2-0.6c-1.7,0-5.2-3.1-6.3-4.3c0.6,0.3,3.5,2.8,4.2,2.8
		h4.4l0.1-0.3c0.3-0.2,1.5-0.6,3.6-0.6s3.4,0.3,3.6,0.6l0.1,0.3h3.7c1,0,3.4-2.3,4.2-2.8C28.8,27.2,25.6,30.1,23.7,30.1z M6.5,25.1
		v-3.7c0.9-2.2,3.1-3.7,5.5-3.7h12c2.2,0,4.3,1.3,5.2,3.3v4c0,0.5-0.2,1-0.7,1.2l-2.4,1.4c-0.2,0-0.3,0-0.5,0h-3.1
		c-0.8-0.7-3.4-0.8-4.3-0.8c-0.9,0-3.5,0.1-4.3,0.8H9.6l-2.4-1.4C6.7,26,6.5,25.5,6.5,25.1z M29.9,18.4v1.7c-1.3-2.1-3.5-3.3-6-3.4
		H12c-2.4,0-4.7,1.3-5.9,3.4v-2.7c0-1.2,0.2-2.4,0.6-3.5V6.7C6.2,6.5,5.9,6,6,5.5c0-0.1,0.1-0.2,0.1-0.3C6.2,5,6.4,4.9,6.7,4.8
		c0.5-0.1,1,0.1,1.2,0.6c0,0.1,0,0.2,0,0.3c0,0.4-0.3,0.8-0.7,0.9v6c0.9-2,2.4-3.7,4.2-4.8l4.5,2.8c0.1,1.1,1,2,2.1,2
		c1.1,0,2.1-0.9,2.1-2l4.5-2.8c3.3,2.1,5.2,5.6,5.2,9.5L29.9,18.4z M31.7,23.4c0,0.5-0.4,1-1,1v-5c0.5,0,0.9,0.4,1,1V23.4z"/>
	<ellipse class="st1" cx="15.2" cy="24.3" rx="1.1" ry="2"/>
</g>
</svg>
