<svg id="Layer_1" data-name="Layer 1" xmlns="http://www.w3.org/2000/svg" viewBox="0 0 2615 2661.54">
<defs>
<style>
  .cls-1{fill:#22272E;}
  .cls-2{fill:#adbac7;}
  .cls-3{fill:#371a45;}
  .cls-4{opacity:0.35;}
  .cls-5{opacity:0.7;}
  .cls-6{fill:#111a28;}
  .cls-7{fill:#c93c37;}
  .cls-8{opacity:0.5;}
  .cls-9{fill:#768390;}
  .cls-10{opacity:0.6;}
  .cls-11{fill:#3aaaff;}
  .cls-12{fill:#e5534b;}
  .cls-13{fill:#22a7f0;}
  .cls-14{opacity:0.15;}
  .cls-15{opacity:0.3;}
  .cls-16{fill:#adbac7;}
</style>
</defs>
<path class="cls-1" d="M2653.1,3129.17c383.11-231.9,640.42-661.52,640.42-1153.27C3293.52,1238.1,2714.39,640,2000,640S706.48,1238.1,706.48,1975.9c0,491.75,257.31,921.37,640.43,1153.27,197.47-3.67,419-5.72,653.09-5.72S2455.62,3125.5,2653.1,3129.17Z" transform="translate(-685 -640)"/><path class="cls-2" d="M2792.4,2778c-28.22-74.57-68.45-145.61-119.65-211.27v-83.26c0-41.62-17.14-81.25-48.5-112.64l1-8.8c3.91-33.08-6.33-65.24-28.84-90.57-23.69-26.65-58.24-41.93-94.79-41.93H2498q4.6-5.9,9-11.88c3.75-4.22,6.84-8,9.43-11.5a576.18,576.18,0,0,0,86.81-171.24,162.11,162.11,0,0,0,138.62-168.07l-5.62-119.34a162.14,162.14,0,0,0-155.89-154.4,629.62,629.62,0,0,0-123.61-186.87c-116.4-122.11-273.38-191.57-442-195.61-5.3-.13-10.67-.2-16-.2-162.46,0-316.92,62-434.92,174.44a631.28,631.28,0,0,0-165.76,263.88,162.17,162.17,0,0,0-140.88,168.42l5.62,119.33a161.87,161.87,0,0,0,156.43,154.43,629.9,629.9,0,0,0,82,138.61h-3c-36.55,0-71.1,15.28-94.79,41.93-21.41,24.1-31.72,54.38-29.31,85.75a181.53,181.53,0,0,0-31.31,32.39c-21,27.93-32.13,60.41-32.13,93.87V2589.8c-43,59.19-77.42,122.48-102.31,188.22-39,103.07-40.73,184-5.15,240.55h-11.91a1294.73,1294.73,0,0,0,155.48,110.6c197.47-3.67,419-5.72,653.09-5.72s455.62,2.05,653.1,5.72a1295.41,1295.41,0,0,0,155.47-110.6h-11C2833.14,2962,2831.41,2881.09,2792.4,2778Z" transform="translate(-685 -640)"/><path class="cls-2" d="M2638.2,2483.49v432.35a118.06,118.06,0,0,1-14.56,56.59c-25.61,47.49-82.36,80.69-147.86,80.69h-968c-55.07,0-104-23.44-133.35-59.14-18.3-22.21-29.07-49.14-29.07-78.14V2483.49c0-26.83,9.26-51.92,25.22-73.14,28.79-38.48,79.62-64.14,137.2-64.14h968a183.35,183.35,0,0,1,23,1.42C2577.33,2357.1,2638.2,2414.59,2638.2,2483.49Z" transform="translate(-685 -640)"/><path class="cls-3" d="M2475.78,3067.67h-968c-57.29,0-111.34-24.09-144.58-64.44-21.19-25.71-32.39-55.93-32.39-87.39V2483.49c0-29.09,9.73-57.4,28.14-81.89,32.76-43.78,88.4-69.94,148.83-69.94h968a201.22,201.22,0,0,1,24.79,1.53c86.73,10.47,152.18,75.08,152.18,150.3v432.35a131.77,131.77,0,0,1-16.33,63.54C2607.51,3033,2544.44,3067.67,2475.78,3067.67Zm-968-706.91c-51.3,0-98.24,21.79-125.55,58.3-14.61,19.43-22.32,41.7-22.32,64.43v432.35c0,24.63,8.9,48.45,25.75,68.89,27.77,33.72,73.42,53.85,122.12,53.85h968c58.11,0,111.12-28.67,135.06-73a103.13,103.13,0,0,0,12.82-49.69V2483.49c0-60.51-54.44-112.72-126.64-121.42a170,170,0,0,0-21.24-1.31Z" transform="translate(-685 -640)"/><path class="cls-2" d="M2004.1,2226c330.73,54.69,639.19,255.6,756,564.23,94.4,249.43-77.05,262.87-77.05,262.87H1317.86s-171.45-13.44-77-262.87c116.8-308.63,425.26-509.54,756-564.23" transform="translate(-685 -640)"/><g class="cls-4"><path class="cls-3" d="M2683,3053.12H1317.84s-119.94-9.41-103.9-158.45q.35,2.7.75,5.31c11.54,73,110.87,87.23,144,21.23l15-29.86H2626.15l16.08,31.44c33.5,65.52,131.8,50.92,143.8-21.69q.53-3.15.93-6.43C2803,3043.71,2683,3053.12,2683,3053.12Z" transform="translate(-685 -640)"/></g><path class="cls-2" d="M1262,2903.77s65.31-196.93,241.19-197.49c162.27-.52,224.24,80.42,186.22,191.58-18.92,55.31-221.06,107.6-315.66-6.51" transform="translate(-685 -640)"/><g class="cls-4"><path class="cls-3" d="M1689.4,2897.87c-18.94,55.32-221.07,107.58-315.66-6.51h0c0-20,22.14-31.68,38.88-20.77,102.29,66.68,260.15,20.46,276.78-28.1a211.6,211.6,0,0,0,8.15-30.92C1702.93,2837.1,1700.2,2866.27,1689.4,2897.87Z" transform="translate(-685 -640)"/></g><path class="cls-3" d="M1257.38,2902.24c.35-23.13,8.25-43.9,18.5-63.29,10.06-19.55,23.21-37.47,37.88-54s30.58-32.18,48.56-45.53a245.27,245.27,0,0,1,58.76-32.62,225.33,225.33,0,0,1,65.85-14.46l16.81-.6c5.45.09,10.89.08,16.34.25,10.91.44,21.85,1.08,32.78,2.39,21.85,2.52,43.78,6.9,65,14.77s41.87,19.26,58.93,35.82a122.39,122.39,0,0,1,34.49,61.72c5.15,23.24,4.08,47-.77,69.09-1.07,5.59-2.66,11-4.12,16.44l-2.54,8-.64,2c-.22.68-.69,1.7-1,2.53l-2.35,5.19c-7.32,12.58-17.09,20.52-26.83,27.26-19.73,13.19-41,21-62.46,26.83-43.08,11-88.33,13.12-132.31,3.9-5.49-1.18-11-2.44-16.35-4.09-5.45-1.4-10.75-3.38-16.09-5.22s-10.55-4.13-15.87-6.11c-5.14-2.45-10.5-4.49-15.47-7.35a98.3,98.3,0,0,1-14.49-9.26,91.77,91.77,0,0,1-12.9-11.39,67.33,67.33,0,0,1-17.1-30.09,5.34,5.34,0,0,1,3.88-6.5,5.4,5.4,0,0,1,3,.12l.54.19c5.69,1.93,10.12,4.64,14.75,7s8.65,5.17,13,7.55c2.1,1.27,4.12,2.61,6.11,4s4.21,2.43,6.21,3.77,4,2.69,6.11,3.86,4.16,2.46,6.2,3.76c16.21,10.73,35.18,17.15,54.49,21.31,38.79,8.2,80.2,6.36,118.85-3.58,19.16-5.16,38.12-12.37,53.55-22.77,7.61-5.1,14.29-11.32,17.61-17.12q.39-1.05.87-2a8.25,8.25,0,0,0,.51-1.12l.56-1.77,2.25-7.08c1.25-4.75,2.68-9.5,3.57-14.29,4.22-19.09,4.85-38.57.85-56.63a93.08,93.08,0,0,0-26.45-47.33c-13.31-12.93-30.26-22.63-48.67-29.33s-38.18-10.85-58.27-13.15c-10-1.21-20.22-1.81-30.42-2.22l-15.33-.24-14.85.54a196,196,0,0,0-57.51,12.61c-36.73,14.15-69.49,39-94.73,70.38-6.26,7.9-12.25,16-17.88,24.4s-11.32,16.76-16.79,25.32c-10.82,17.21-21.53,34.57-35.45,51.22l-.24.28a5.07,5.07,0,0,1-7.15.63A5.13,5.13,0,0,1,1257.38,2902.24Z" transform="translate(-685 -640)"/><path class="cls-2" d="M2737.9,2903.77s-65.31-196.93-241.18-197.49c-162.28-.52-224.24,80.42-186.23,191.58,18.92,55.31,221.06,107.6,315.66-6.51" transform="translate(-685 -640)"/><path class="cls-2" d="M2737.9,2903.77s-65.31-196.93-241.18-197.49c-162.28-.52-224.24,80.42-186.23,191.58,18.92,55.31,221.06,107.6,315.66-6.51Z" transform="translate(-685 -640)"/><g class="cls-4"><path class="cls-3" d="M2626.15,2891.36c-94.59,114.09-296.72,61.83-315.67,6.51-10.8-31.6-13.53-60.77-8.15-86.3a211.6,211.6,0,0,0,8.15,30.92c16.64,48.56,174.5,94.78,276.79,28.1,16.73-10.91,38.88.8,38.88,20.77Z" transform="translate(-685 -640)"/></g><path class="cls-3" d="M2733.3,2905.3c-13.93-16.65-24.64-34-35.45-51.22-5.48-8.56-11-17-16.79-25.32s-11.63-16.5-17.89-24.4c-25.24-31.4-58-56.23-94.73-70.38a196,196,0,0,0-57.5-12.61l-14.85-.54-15.34.24c-10.2.41-20.37,1-30.41,2.22-20.09,2.3-39.88,6.32-58.28,13.15s-35.36,16.4-48.66,29.33a93,93,0,0,0-26.46,47.33c-4,18.06-3.37,37.54.85,56.63.9,4.79,2.32,9.54,3.58,14.29l2.24,7.08.56,1.77a9.7,9.7,0,0,0,.51,1.12q.48,1,.87,2c3.33,5.8,10,12,17.62,17.12,15.43,10.4,34.38,17.61,53.55,22.77,38.64,9.94,80.06,11.78,118.84,3.58,19.31-4.16,38.28-10.58,54.49-21.31,2-1.3,4.09-2.57,6.2-3.76s4-2.65,6.11-3.86,4.15-2.49,6.21-3.77,4-2.71,6.11-4c4.34-2.38,8.29-5.26,13-7.55s9.06-5.08,14.75-7l.55-.19a5.37,5.37,0,0,1,6.92,6.38,67.52,67.52,0,0,1-17.1,30.09,92.42,92.42,0,0,1-12.91,11.39,98.3,98.3,0,0,1-14.49,9.26c-5,2.86-10.33,4.9-15.46,7.35-5.33,2-10.53,4.29-15.87,6.11s-10.65,3.82-16.1,5.22c-5.39,1.65-10.86,2.91-16.35,4.09-44,9.22-89.23,7.13-132.31-3.9-21.51-5.87-42.72-13.64-62.46-26.83-9.74-6.74-19.51-14.68-26.82-27.26l-2.36-5.19c-.34-.83-.81-1.85-1-2.53l-.64-2-2.54-8c-1.45-5.45-3-10.85-4.12-16.44-4.85-22.1-5.92-45.85-.77-69.09a122.39,122.39,0,0,1,34.49-61.72c17.06-16.56,37.73-28.09,58.93-35.82s43.2-12.25,65-14.77c10.94-1.31,21.87-2,32.78-2.39,5.45-.17,10.89-.16,16.34-.25l16.82.6a225.27,225.27,0,0,1,65.84,14.46,245.27,245.27,0,0,1,58.76,32.62c18,13.35,33.74,29.13,48.56,45.53s27.82,34.45,37.88,54c10.25,19.39,18.16,40.16,18.5,63.29a5.07,5.07,0,0,1-8.95,3.36Z" transform="translate(-685 -640)"/><path class="cls-3" d="M2683.61,3067.67l-1366.89,0c-2.52-.2-62-5.45-96.18-59.28-32.35-51-30.11-126.09,6.66-223.24,111.2-293.85,405.19-513.58,767.23-573.44a69.82,69.82,0,0,0,12,0c362,59.86,656,279.59,767.23,573.44,36.77,97.15,39,172.26,6.66,223.25-34.15,53.82-93.66,59.07-96.18,59.27Zm-680-29.09h678.77c5.2-.55,48.58-6.29,73.65-46.15,26.56-42.25,23.27-110.38-9.52-197-107.55-284.18-392.93-496.85-744.77-555-.43-.07-.86-.16-1.27-.26-.42.1-.84.19-1.27.26-351.85,58.18-637.22,270.85-744.77,555-32.79,86.65-36.08,154.78-9.52,197,25,39.78,68.23,45.58,73.66,46.16Z" transform="translate(-685 -640)"/><path class="cls-2" d="M2586,2001.94h0a12.16,12.16,0,0,1-12.72-11.58l-16.48-349.95a12.16,12.16,0,0,1,11.57-12.72h0a127.59,127.59,0,0,1,133.46,121.46l5.62,119.33A127.59,127.59,0,0,1,2586,2001.94Z" transform="translate(-685 -640)"/><path class="cls-3" d="M2585.39,2004.57a14.79,14.79,0,0,1-14.75-14.08l-16.48-350a14.78,14.78,0,0,1,14.06-15.45A130.32,130.32,0,0,1,2704.41,1749l5.62,119.34a130.21,130.21,0,0,1-123.94,136.19h0Zm-11-374.41q-3,0-5.95.14a9.56,9.56,0,0,0-9.08,10l16.48,350a9.58,9.58,0,0,0,10,9.09h0a125.12,125.12,0,0,0,119-130.73l-5.62-119.33C2696.05,1682.42,2640.65,1630.16,2574.41,1630.16Z" transform="translate(-685 -640)"/><g class="cls-4"><path class="cls-3" d="M2704.79,1812.52l2.65,56A127.67,127.67,0,0,1,2586,2002a12.19,12.19,0,0,1-12.72-11.61l-4.41-93a12.15,12.15,0,0,0,11.39,6.69l8.3-.41A127.5,127.5,0,0,0,2704.79,1812.52Z" transform="translate(-685 -640)"/></g><path class="cls-3" d="M2585.38,2016.5a26.74,26.74,0,0,1-26.66-25.45l-16.49-350a26.75,26.75,0,0,1,25.42-27.93c78.25-3.69,145,57,148.69,135.3L2722,1867.8c3.68,78.29-57,145-135.31,148.67h0C2586.23,2016.49,2585.8,2016.5,2585.38,2016.5Zm-14-374.37,16.25,345.14a113.17,113.17,0,0,0,105.23-118.11l-5.62-119.33C2684.38,1688.36,2632.55,1640.48,2571.41,1642.13Z" transform="translate(-685 -640)"/><path class="cls-2" d="M1413.23,1682.09h0a12.16,12.16,0,0,1,12.72,11.58l16.48,349.95a12.15,12.15,0,0,1-11.57,12.72h0a127.59,127.59,0,0,1-133.46-121.45l-5.62-119.34A127.6,127.6,0,0,1,1413.23,1682.09Z" transform="translate(-685 -640)"/><path class="cls-3" d="M1424.79,2059.1c-69,0-126.73-54.44-130-124.09l-5.62-119.34a130.21,130.21,0,0,1,123.94-136.19h0a14.76,14.76,0,0,1,15.45,14.06l16.48,350A14.78,14.78,0,0,1,1431,2059C1428.91,2059.05,1426.84,2059.1,1424.79,2059.1Zm-11.44-374.4a125.12,125.12,0,0,0-119,130.73l5.62,119.33c3.24,68.84,61.85,122.17,130.73,119a9.56,9.56,0,0,0,9.08-10l-16.48-350a9.59,9.59,0,0,0-10-9.09Z" transform="translate(-685 -640)"/><g class="cls-4"><path class="cls-3" d="M1437.89,1946.54l4.56,97.08a12.2,12.2,0,0,1-11.6,12.73,127.57,127.57,0,0,1-133.44-121.44l-2.37-50.29a127.65,127.65,0,0,0,119.64,69.4l12.77-.61A12.31,12.31,0,0,0,1437.89,1946.54Z" transform="translate(-685 -640)"/></g><path class="cls-3" d="M1424.78,2071c-75.34,0-138.33-59.43-141.92-135.46l-5.62-119.33c-3.68-78.3,57-145,135.31-148.68h0a26.76,26.76,0,0,1,27.93,25.42l16.49,350a26.74,26.74,0,0,1-25.42,27.93C1429.29,2071,1427,2071,1424.78,2071Zm-13.24-374.27a113.17,113.17,0,0,0-105.23,118.11l5.62,119.33a113.2,113.2,0,0,0,115.86,107.7Z" transform="translate(-685 -640)"/><circle class="cls-2" cx="1314.67" cy="1202.01" r="597.01"/><path class="cls-3" d="M1999.88,2441.64c-4.86,0-9.67-.06-14.55-.18-330.54-7.91-593-283.26-585.11-613.8,3.83-160.11,69.79-309.16,185.72-419.67s268-169.21,428.08-165.43,309.16,69.79,419.67,185.72,169.27,268,165.43,428.08h0C2591.33,2182,2323.88,2441.64,1999.88,2441.64Zm-.58-1194c-153.36,0-298.35,58-409.75,164.17-114.92,109.54-180.3,257.29-184.1,416-7.84,327.65,252.35,600.61,580,608.45s600.6-252.35,608.45-580l2.61.07-2.61-.07c3.8-158.72-54.44-309.42-164-424.34s-257.29-180.3-416-184.1C2009,1247.67,2004.15,1247.61,1999.3,1247.61Z" transform="translate(-685 -640)"/><g class="cls-4"><path class="cls-3" d="M2592.77,1773.54a593.31,593.31,0,0,1,3.75,82.76c-7.93,329.62-281.53,590.43-611.14,582.57S1395,2157.34,1402.81,1827.73c.22-9.48.67-19,1.35-28.29,33.28,291.5,277.22,521.15,578.81,528.38C2303.11,2335.45,2570.35,2089.67,2592.77,1773.54Z" transform="translate(-685 -640)"/></g><path class="cls-3" d="M1999.88,2453.57c-5,0-9.86-.06-14.84-.18-337.11-8.06-604.81-288.89-596.75-626s288.71-604.78,626-596.75c163.31,3.91,315.32,71.18,428,189.42s172.63,273.29,168.73,436.6h0C2603.1,2188.78,2330.33,2453.57,1999.88,2453.57Zm-.57-1194c-150.28,0-292.37,56.8-401.53,160.86-112.61,107.35-176.68,252.13-180.4,407.67-7.68,321.07,247.28,588.54,568.36,596.23S2574.28,2177,2582,1856s-247.28-588.55-568.36-596.23C2008.84,1259.6,2004.06,1259.55,1999.31,1259.55Zm597.2,596.75h0Z" transform="translate(-685 -640)"/><path class="cls-3" d="M2594.24,1871.58c-1,116.82-39.91,224.94-105.56,314.11-49.22,66.84-250.13,182.82-497,182.86-228.87,0-436-123.81-484-191.52-64.06-90.3-101-199.1-100-315.92,2.72-309.14,269.46-435,597.13-432.06S2597,1562.44,2594.24,1871.58Z" transform="translate(-685 -640)"/><path class="cls-3" d="M1991.62,2383.1c-236.77,0-445.47-126.7-495.8-197.65-68.2-96.13-103.71-208.33-102.68-324.47,1.34-151.3,63-267.42,183.37-345.13,105.06-67.85,253.21-103,428.44-101.35s322.73,39.2,426.58,108.89c118.95,79.82,178.59,197,177.25,348.32h0c-1,116.13-38.5,227.69-108.39,322.6-48.45,65.81-247.39,188.74-508.67,188.79Zm2.21-939.56c-164.76,0-303.42,33.38-401.54,96.75-111.6,72.07-168.82,180-170.06,321-1,110,32.68,216.27,97.32,307.38,45.9,64.7,248.49,185.39,472.07,185.39h.1c247.81-.05,441.25-117.2,485.25-177,66.23-89.95,101.75-195.63,102.72-305.61,3.37-381.56-401-426.32-575-427.86C2001.06,1443.56,1997.43,1443.54,1993.83,1443.54Zm600.41,428h0Z" transform="translate(-685 -640)"/><g class="cls-5"><ellipse class="cls-2" cx="2401.79" cy="1827.88" rx="105.65" ry="76.56" transform="translate(-527.92 3205.56) rotate(-79.22)"/></g><g class="cls-5"><ellipse class="cls-2" cx="2306.16" cy="2036.33" rx="48.49" ry="41.61" transform="translate(-1047.54 2927.03) rotate(-71.28)"/></g><g class="cls-4"><path class="cls-6" d="M2481.39,1582.16c71.92,69.85,113.92,165.24,112.84,289.4-1,116.85-39.93,225-105.53,314.13-49.23,66.84-250.17,182.82-497,182.88-87.16,0-171.13-17.92-244.41-43.93,303.41-6.55,548.16-148.91,609.19-231.81,83.33-113.17,132.67-250.41,134-398.65A603.78,603.78,0,0,0,2481.39,1582.16Z" transform="translate(-685 -640)"/></g><path class="cls-3" d="M2545.55,1614.57a14.42,14.42,0,0,1-9.19-3.31l-1.53-1.26-1.22-1.69c-99.45-142.07-293.25-224.76-531.71-226.87-239.59-2.24-434.84,79.77-535.16,224.65l-.74,1a14.55,14.55,0,0,1-23-17.87c106-152.73,309.91-239.09,559.11-236.85,247.82,2.2,450.11,89.3,555.07,239a14.56,14.56,0,0,1-11.68,23.24Z" transform="translate(-685 -640)"/><g class="cls-5"><path class="cls-2" d="M1539.3,2046.2s-93.06-305.82,72.38-425.9,401.89-117.5,396.22-102.39c0,0-262.34,61.07-366.59,267.12C1560.91,1943.92,1539.3,2046.2,1539.3,2046.2Z" transform="translate(-685 -640)"/></g><path class="cls-3" d="M830.37,3166.13c48.74-7.71,97.47-9.56,146.21-10.51,24.36-.52,48.73-.62,73.1-.49,24.37,0,48.73.32,73.1.57q73.1.68,146.2.5H2877.22l73.1,0,36.55-.36,36.55-.62c48.74-.17,97.47.28,146.21,10.94a5.09,5.09,0,0,1,0,9.94c-48.74,10.67-97.47,11.11-146.21,10.94l-36.55-.62-36.55-.36-73.1,0H1269q-73.1-.12-146.2.49c-24.37.25-48.73.61-73.1.57-24.37.13-48.74,0-73.1-.49-48.74-.95-97.47-2.8-146.21-10.51a5,5,0,0,1,0-9.94Z" transform="translate(-685 -640)"/><rect class="cls-7" x="317.79" y="2413.12" width="1994.42" height="112.12" rx="55.17"/><path class="cls-3" d="M2942,3167.35H1058a57.33,57.33,0,0,1-57.26-57.27v-1.8A57.33,57.33,0,0,1,1058,3051H2942a57.33,57.33,0,0,1,57.27,57.26v1.8A57.33,57.33,0,0,1,2942,3167.35ZM1058,3055.22a53.12,53.12,0,0,0-53.06,53.06v1.8a53.13,53.13,0,0,0,53.06,53.07H2942a53.13,53.13,0,0,0,53.07-53.07v-1.8a53.13,53.13,0,0,0-53.07-53.06Z" transform="translate(-685 -640)"/><path class="cls-3" d="M2942,3179.79H1058a69.79,69.79,0,0,1-69.71-69.71v-1.8a69.78,69.78,0,0,1,69.71-69.7H2942a69.79,69.79,0,0,1,69.72,69.7v1.8A69.8,69.8,0,0,1,2942,3179.79ZM1058,3067.67a40.67,40.67,0,0,0-40.62,40.61v1.8A40.67,40.67,0,0,0,1058,3150.7H2942a40.66,40.66,0,0,0,40.62-40.62v-1.8a40.66,40.66,0,0,0-40.62-40.61Z" transform="translate(-685 -640)"/><g class="cls-8"><path class="cls-2" d="M2942.93,3069.73H1057.07c-21.06,0-38.2,17.7-38.2,39.45a39.55,39.55,0,0,0,22.44,35.89,40,40,0,0,1-6.35-21.73c0-21.75,17.13-39.45,38.2-39.45H1234.7c8.37,9.59,35.45,16.61,67.65,16.61s59.29-7,67.65-16.61H2959a37,37,0,0,1,15.77,3.56A37.91,37.91,0,0,0,2942.93,3069.73Z" transform="translate(-685 -640)"/></g><path class="cls-9" d="M693.62,2316.5h1242.1a0,0,0,0,1,0,0V2321a87.66,87.66,0,0,1-87.66,87.66H781.27A87.66,87.66,0,0,1,693.62,2321v-4.47A0,0,0,0,1,693.62,2316.5Z"/><g class="cls-4"><path class="cls-3" d="M2620.73,2956.5V2961a87.7,87.7,0,0,1-87.68,87.68H1466.29a87.68,87.68,0,0,1-87.68-87.68v-4.47h3.89a87.72,87.72,0,0,0,83.79,61.82H2533.05a87.75,87.75,0,0,0,83.79-61.82Z" transform="translate(-685 -640)"/></g><path class="cls-3" d="M2533.05,3063.18H1466.27A102.32,102.32,0,0,1,1364.07,2961v-19H2635.26v19A102.32,102.32,0,0,1,2533.05,3063.18Zm-1139.19-92.13a73.22,73.22,0,0,0,72.41,63H2533.05a73.23,73.23,0,0,0,72.42-63Z" transform="translate(-685 -640)"/><g class="cls-10"><path class="cls-2" d="M1434.6,2985.57H2599.94a73.47,73.47,0,0,0,3.46-12.46H1395.93c5,27.24,24.83,49.12,50.45,56.36a72.78,72.78,0,0,1-21.66-28.42C1421.61,2993.76,1426.89,2985.57,1434.6,2985.57Z" transform="translate(-685 -640)"/></g><path class="cls-11" d="M2429,3047.68H1571c-45.79,0-84.27-32.39-89.33-75.2L1409,2358c-5.92-50.09,35.75-93.89,89.33-93.89h1003.3c53.58,0,95.25,43.8,89.33,93.89l-72.63,614.49C2513.29,3015.29,2474.81,3047.68,2429,3047.68Z" transform="translate(-685 -640)"/><g class="cls-10"><path class="cls-2" d="M2060,2722.68l.52-.22a5.81,5.81,0,0,1,7.21,8.43,79,79,0,0,1-38.17,32.1c-37.38,14.93-80.77-1-99.44-36.71a79.23,79.23,0,0,1,86.71-114.37,5.43,5.43,0,0,1,1.07,10.29l-.16.07A54.48,54.48,0,0,0,2060,2722.68Z" transform="translate(-685 -640)"/></g><path class="cls-3" d="M2443.08,2423.64c-.29-8-.45-16.16-3.21-23.95-.82-.77-1.59-1.57-2.41-2.34-2.41-.47-4.8-1.21-7.26-1.45a152.41,152.41,0,0,0-51.62,3.12c-22.18,5.33-41.76,15.37-57.35,32.33-5.64,6.12-10.62,12.83-15.76,19.37-1.38,1.78-2.52,2.6-4.93,1.91a46.41,46.41,0,0,0-17.41-1.24c-15.69,1.64-28.83,8.77-40.57,18.86-12.72,11-22.26,24.52-30.9,38.77-3.68,6-1,11.77,6,13l13.28,2.2q15.9,2.63,31.74,5.22a3.81,3.81,0,0,1,.06.64,3.41,3.41,0,0,1-.22.66c-3.39,6-1.61,10.89,3.53,14.92.55.45,1.06,1,1.56,1.51,2.78,2.7,5.62,5.43,8.56,8.24-3,3.1-5.94,5.8-8.45,8.91a12,12,0,0,0-2.55,5.72,7.08,7.08,0,0,0,4.64,7.42,7.56,7.56,0,0,0,8.67-1.59c3.1-3,6-6.18,9.14-9.41,4,3.9,7.79,7.58,11.58,11.21,4.34,4.13,7,4.56,12.37,2.15,1-.48,2-.85,3.13-1.33.26,1.19.5,2.15.69,3.05,2.91,14.47,5.78,29,8.77,43.38,1.4,6.84,7.34,9.27,13.12,5.38,5.22-3.5,10.41-7.16,15.47-11,11.66-8.83,21.94-19,29.47-31.67,9.41-15.9,13.41-32.67,7.6-50.9a3,3,0,0,1,.77-2.55c5.12-4.5,10.42-8.8,15.53-13.33a103.14,103.14,0,0,0,26.31-36.86C2440.72,2464.77,2443.85,2444.52,2443.08,2423.64Zm-174.15,90.76-38-6.33c10.79-15.58,22.58-29.55,40.12-37.34,7.58-3.36,16.75-4.56,22.47-3.18C2285.41,2483.08,2277.25,2498.61,2268.93,2514.4Zm107.18,45.18c-1.53,9.91-6,18.47-12,26.39-7.4,9.76-16.54,17.57-26.58,25q-4-20-7.92-39.06c15.52-8.91,30.71-17.6,46-26.34A32.24,32.24,0,0,1,2376.11,2559.58Zm47.38-98.92c-3.41,13.33-8.66,25.78-17.17,36.73a129.92,129.92,0,0,1-22.76,22.07c-22.71,17.76-47.86,31.43-73.83,43.7-1.27.58-2.09.64-3.15-.45-2.3-2.41-4.82-4.69-7.23-7.05a3.86,3.86,0,0,1-.51-.82c.61-.66,1.28-1.33,1.94-2,13.72-14.25,27.53-28.48,41.26-42.76,4-4.09,3.28-10-1.38-12.72-3.26-1.94-7.08-1.33-10,1.69q-12.4,12.79-24.75,25.63c-6.15,6.36-12.25,12.69-18.63,19.31-3-2.86-5.81-5.46-8.43-8.24-.45-.5-.29-2,.11-2.73,6.41-13.59,12.74-27.24,19.53-40.67a233.28,233.28,0,0,1,23.82-37.74c8.53-11.15,18.07-21.3,30.39-28.35a102.1,102.1,0,0,1,25-10.36,3.49,3.49,0,0,1,2.78,1.06c10.86,10.39,21.62,20.8,32.41,31.24,3.23,3.1,6.44,6.28,9.75,9.33A2.81,2.81,0,0,1,2423.49,2460.66Zm2.92-17.25-31.77-30.71a8.61,8.61,0,0,1,0-.88l31.4-.92A142.18,142.18,0,0,1,2426.41,2443.41Z" transform="translate(-685 -640)"/><path class="cls-2" d="M2422.62,2457.51c-3.31-3.05-6.52-6.23-9.75-9.33-10.79-10.44-21.55-20.85-32.41-31.24a3.49,3.49,0,0,0-2.78-1.06,102.1,102.1,0,0,0-25,10.36c-12.32,7.05-21.86,17.2-30.39,28.35a233.28,233.28,0,0,0-23.82,37.74c-6.79,13.43-13.12,27.08-19.53,40.67-.4.77-.56,2.23-.11,2.73,2.62,2.78,5.46,5.38,8.43,8.24,6.38-6.62,12.48-12.95,18.63-19.31q12.36-12.84,24.75-25.63c3-3,6.78-3.63,10-1.69,4.66,2.75,5.35,8.63,1.38,12.72-13.73,14.28-27.54,28.51-41.26,42.76-.66.69-1.33,1.36-1.94,2a3.86,3.86,0,0,0,.51.82c2.41,2.36,4.93,4.64,7.23,7.05,1.06,1.09,1.88,1,3.15.45,26-12.27,51.12-25.94,73.83-43.7a129.92,129.92,0,0,0,22.76-22.07c8.51-10.95,13.76-23.4,17.17-36.73A2.81,2.81,0,0,0,2422.62,2457.51Zm-24.54,22.07a27,27,0,1,1-.82-38.1C2407.91,2451.76,2408.31,2469.11,2398.08,2479.58Z" transform="translate(-685 -640)"/><path class="cls-12" d="M2426.41,2443.4l-31.78-30.7c0-.28,0-.58,0-.88,10.42-.3,20.86-.6,31.42-.92A142.65,142.65,0,0,1,2426.41,2443.4Z" transform="translate(-685 -640)"/><path class="cls-12" d="M2293.55,2467.55l-24.61,46.86c-12.27-2.06-25-4.17-38-6.33,10.8-15.6,22.58-29.57,40.13-37.35C2278.65,2467.36,2287.81,2466.17,2293.55,2467.55Z" transform="translate(-685 -640)"/><path class="cls-12" d="M2364.12,2586c-7.39,9.75-16.52,17.58-26.57,25q-4-20-7.92-39.06c15.53-8.9,30.71-17.58,46-26.35a32.63,32.63,0,0,1,.5,14.06C2374.59,2569.5,2370.08,2578.06,2364.12,2586Z" transform="translate(-685 -640)"/><path class="cls-3" d="M2397.26,2441.48a27,27,0,1,0,.82,38.1C2408.31,2469.11,2407.91,2451.76,2397.26,2441.48Zm-8.66,29.44a14.23,14.23,0,1,1-.11-20.3A14.33,14.33,0,0,1,2388.6,2470.92Z" transform="translate(-685 -640)"/><path class="cls-13" d="M2388.59,2470.92a14.23,14.23,0,1,1-.11-20.31A14.33,14.33,0,0,1,2388.59,2470.92Z" transform="translate(-685 -640)"/><g class="cls-4"><path class="cls-3" d="M2476.87,2974.2l72.64-614.49c2-16.79-3.2-33.37-14.61-46.67-12.91-15.06-32-23.88-52.75-24.6,0,0,0-.09,0-.14-29.69,102-195.31,671.07-980,692.69,6.95,29.38,35.3,50.79,68.82,50.79h835.85C2442.88,3031.78,2473,3007,2476.87,2974.2Z" transform="translate(-685 -640)"/></g><g class="cls-10"><path class="cls-2" d="M1522.83,2984.54,1450.2,2370c-2.11-17.78,3.37-35.31,15.41-49.36,14.11-16.46,35.23-25.9,58-25.9H2526.87a79.71,79.71,0,0,1,22.6,3.32,69.64,69.64,0,0,0-4.87-6.5c-14.11-16.45-35.23-25.89-57.94-25.89H1483.35c-22.72,0-43.84,9.44-57.95,25.9-12,14-17.52,31.58-15.41,49.37l72.63,614.49c3.23,27.32,23.65,49.27,50.71,57.28A64.32,64.32,0,0,1,1522.83,2984.54Z" transform="translate(-685 -640)"/></g><path class="cls-3" d="M2429,3062.22H1571c-53.23,0-97.84-37.85-103.77-88l-72.64-614.48c-3.23-27.32,5.27-53.94,23.93-74.93,19.89-22.38,49-35.22,79.85-35.22H2501.66c30.84,0,59.94,12.84,79.84,35.22,18.66,21,27.16,47.61,23.93,74.93l-72.64,614.48C2526.86,3024.37,2482.25,3062.22,2429,3062.22Zm-930.67-783.58c-22.55,0-43.73,9.28-58.1,25.45-13.06,14.7-19,33.24-16.79,52.19l72.64,614.48c4.2,35.56,36.39,62.37,74.88,62.37h858c38.49,0,70.68-26.81,74.88-62.37l72.64-614.48c2.23-19-3.72-37.49-16.79-52.19-14.38-16.17-35.55-25.45-58.09-25.45Z" transform="translate(-685 -640)"/><g class="cls-4"><path class="cls-3" d="M1087.16,3165.25H2942.93c30,0,54.28-25.1,54.28-56.07h0c0-31-24.3-56.06-54.28-56.06H2195.71c-29.53,16.65-250.9,119.81-1164.77,93.06Z" transform="translate(-685 -640)"/></g><g class="cls-14"><rect class="cls-2" x="887.79" y="1762.84" width="128.67" height="257.47" rx="36.36"/></g><path class="cls-3" d="M2070,2712.68l.52-.22a5.81,5.81,0,0,1,7.21,8.43,79,79,0,0,1-38.17,32.1c-37.38,14.93-80.77-1-99.44-36.71a79.23,79.23,0,0,1,86.71-114.37,5.43,5.43,0,0,1,1.07,10.29l-.16.07A54.48,54.48,0,0,0,2070,2712.68Z" transform="translate(-685 -640)"/><g class="cls-15"><path class="cls-3" d="M3300,3209.77c0,50.66-585.4,91.77-1307.5,91.77S685,3260.43,685,3209.77c0-14.23,46.29-27.76,128.94-39.77H3171.06C3253.71,3182,3300,3195.54,3300,3209.77Z" transform="translate(-685 -640)"/></g><path class="cls-16" d="M1232,2212.18l-35.18,5.43a16.36,16.36,0,0,0-13.66,13.67l-5.43,35.17-5.43-35.17a16.36,16.36,0,0,0-13.67-13.67l-35.17-5.43,35.17-5.43a16.36,16.36,0,0,0,13.67-13.67l5.43-35.17,5.43,35.17a16.36,16.36,0,0,0,13.66,13.67Z" transform="translate(-685 -640)"/><path class="cls-16" d="M1092.41,2444.08l-33,5.1a15.34,15.34,0,0,0-12.82,12.82l-5.09,33-5.1-33a15.34,15.34,0,0,0-12.82-12.82l-33-5.1,33-5.1a15.33,15.33,0,0,0,12.82-12.82l5.1-33,5.09,33A15.33,15.33,0,0,0,1059.4,2439Z" transform="translate(-685 -640)"/><path class="cls-16" d="M980.87,2041.64l-24.61,3.8a11.45,11.45,0,0,0-9.56,9.57l-3.8,24.61L939.1,2055a11.45,11.45,0,0,0-9.56-9.57l-24.61-3.8,24.61-3.8a11.44,11.44,0,0,0,9.56-9.56l3.8-24.61,3.8,24.61a11.44,11.44,0,0,0,9.56,9.56Z" transform="translate(-685 -640)"/><path class="cls-16" d="M3059.59,2120.86l36.13,5.58a16.8,16.8,0,0,1,14,14l5.58,36.14,5.58-36.14a16.81,16.81,0,0,1,14-14l36.14-5.58-36.14-5.58a16.81,16.81,0,0,1-14-14l-5.58-36.13-5.58,36.13a16.8,16.8,0,0,1-14,14Z" transform="translate(-685 -640)"/><path class="cls-16" d="M2842.2,2353.37l33.91,5.24a15.77,15.77,0,0,1,13.17,13.17l5.24,33.9,5.23-33.9a15.77,15.77,0,0,1,13.17-13.17l33.91-5.24-33.91-5.23a15.77,15.77,0,0,1-13.17-13.18l-5.23-33.9-5.24,33.9a15.77,15.77,0,0,1-13.17,13.18Z" transform="translate(-685 -640)"/><path class="cls-16" d="M2919.73,1924l25.29,3.91a11.75,11.75,0,0,1,9.82,9.82l3.9,25.28,3.91-25.28a11.73,11.73,0,0,1,9.82-9.82l25.28-3.91-25.28-3.9a11.74,11.74,0,0,1-9.82-9.83l-3.91-25.28-3.9,25.28a11.76,11.76,0,0,1-9.82,9.83Z" transform="translate(-685 -640)"/><path class="cls-16" d="M1366.23,1234.52l-27.56,4.25a12.8,12.8,0,0,0-10.7,10.7l-4.26,27.56-4.25-27.56a12.82,12.82,0,0,0-10.71-10.7l-27.55-4.25,27.55-4.26a12.82,12.82,0,0,0,10.71-10.7l4.25-27.56,4.26,27.56a12.8,12.8,0,0,0,10.7,10.7Z" transform="translate(-685 -640)"/><path class="cls-16" d="M1169.92,1456.26l-28.59,4.41a13.32,13.32,0,0,0-11.12,11.11l-4.41,28.6-4.42-28.6a13.29,13.29,0,0,0-11.11-11.11l-28.6-4.41,28.6-4.42a13.29,13.29,0,0,0,11.11-11.11l4.42-28.6,4.41,28.6a13.32,13.32,0,0,0,11.12,11.11Z" transform="translate(-685 -640)"/><path class="cls-16" d="M2461.67,1064.52l27.56,4.25a12.8,12.8,0,0,1,10.7,10.7l4.26,27.56,4.25-27.56a12.81,12.81,0,0,1,10.71-10.7l27.55-4.25-27.55-4.26a12.81,12.81,0,0,1-10.71-10.7l-4.25-27.56-4.26,27.56a12.8,12.8,0,0,1-10.7,10.7Z" transform="translate(-685 -640)"/></svg>