<?xml version="1.0" encoding="utf-8"?>
<!-- Generator: Adobe Illustrator 24.0.1, SVG Export Plug-In . SVG Version: 6.00 Build 0)  -->
<svg version="1.1" id="Layer_1" xmlns="http://www.w3.org/2000/svg" xmlns:xlink="http://www.w3.org/1999/xlink" x="0px" y="0px"
	 viewBox="0 0 2766.5 2427.7" style="enable-background:new 0 0 2766.5 2427.7;" xml:space="preserve">
<style type="text/css">
	.st0{fill:#FFFFFF;}
	.st1{fill:#371A45;}
	.st2{opacity:0.35;}
	.st3{opacity:0.3;}
	.st4{fill:#22A7F0;}
	.st5{opacity:0.8;}
	.st6{fill:#293856;}
	.st7{fill:#21102B;}
	.st8{opacity:0.5;}
</style>
<g>
	<g>
		<g>
			<g>
				<g>
					<g>
						<g>
							<path class="st0" d="M855.5,1903.7c-10.6,64.7-62.7,90.4-165.3,70.1s-142.1,23.2-149,31.6c-23.1,28.3-189.6,296.5-31.1,372.6
								c111.8,53.7,228.6-121.8,228.6-121.8s263.6,176.8,629.3-225.2"/>
						</g>
					</g>
				</g>
			</g>
			<g>
				<g>
					<g>
						<g>
							<path class="st1" d="M1027.2,2255.2c-31.3,0-61.3-5.3-88.9-15.9c-88.8-34-154.3-120.3-194.6-256.4c-2.7-9,2.5-18.4,11.4-21
								c9-2.7,18.4,2.5,21,11.4c37.2,125.5,95.9,204.4,174.3,234.4c109.4,41.9,221.9-25.8,223-26.5c8-4.9,18.4-2.4,23.3,5.6
								c4.9,8,2.4,18.4-5.6,23.3c-1.3,0.8-32.4,19.7-78.8,32.8C1083.4,2251.1,1054.8,2255.2,1027.2,2255.2z"/>
						</g>
					</g>
				</g>
			</g>
			<g class="st2">
				<g>
					<g>
						<g>
							<path class="st1" d="M510.1,2378.1c111.8,53.7,228.6-121.8,228.6-121.8s263.6,176.7,629.3-225.2l-335.3-83.3
								c-118.8,218.5-307.9,210.1-307.9,210.1s-64.5,216.6-231.8,163.6c-45.1-14.3-37.8-69.8-48.5-89
								C436.7,2292.9,450.1,2349.2,510.1,2378.1z"/>
						</g>
					</g>
				</g>
			</g>
			<g>
				<g>
					<g>
						<g>
							<path class="st1" d="M554.4,2405.1c-17.9,0-35.2-3.9-51.7-11.8c-39.2-18.8-63.8-49.5-73.1-91.3
								c-11.1-49.8-0.1-113.6,32.8-189.7c24.1-55.8,54.7-104.2,65.7-117.7c11.6-14.2,57.6-58.8,165.4-37.5
								c54.9,10.9,94.7,8.1,118.3-8.3c14.6-10.1,23.4-25.8,27.1-47.9c1.5-9.2,10.2-15.5,19.4-14c9.2,1.5,15.5,10.2,14,19.4
								c-5.1,31.2-19,54.8-41.2,70.3c-31.8,22.1-79,26.6-144.1,13.7c-91.5-18.1-126.5,18.2-132.6,25.6
								c-14.3,17.6-114.6,175.6-91.6,278.6c7,31.5,24.9,53.8,54.7,68.1c97.2,46.7,206.1-114.3,207.2-115.9l9.4-14.1l14.1,9.4
								c0.6,0.4,64.2,41.6,169.6,35.2c98.2-6,253.8-55.5,437.7-257.7c6.3-6.9,17-7.4,23.9-1.1c6.9,6.3,7.4,17,1.1,23.9
								c-84.7,93.1-171.3,163.2-257.3,208.3c-69.5,36.5-138.9,56.8-206.1,60.5c-7.5,0.4-14.8,0.6-21.9,0.6
								c-75.2,0-127.7-21.3-151.6-33.4c-12.2,16.3-35.8,45.4-66.3,71.6C634.9,2386.6,593.2,2405.1,554.4,2405.1z"/>
						</g>
					</g>
				</g>
			</g>
			<g>
				<g>
					<g>
						<g>
							<g>
								<path class="st0" d="M1323.7,1248.3c-10.7-1.9-235.9-107.8-386.9-105.6c-125.9,1.8-365.8,427-323.6,538.8
									c39.1,103.6,257,197.7,257,197.7L1323.7,1248.3z"/>
							</g>
						</g>
					</g>
				</g>
				<g>
					<g>
						<g>
							<g>
								<path class="st0" d="M1323.7,1248.3l-73.7,102.5l-379.8,528.3c0,0-105.6-45.6-183-108.4c-33.8-27.3-62.1-57.9-74-89.3
									c-42.2-111.7,197.7-537,323.6-538.8C1087.9,1140.5,1313,1246.4,1323.7,1248.3z"/>
							</g>
						</g>
					</g>
				</g>
				<g class="st2">
					<g>
						<g>
							<g>
								<path class="st1" d="M1250,1350.8l-379.8,528.3c0,0-0.1,0-0.2-0.1c-0.5-0.2-2-0.9-4.5-2c-0.5-0.2-1-0.5-1.6-0.8
									c-0.1,0-0.2-0.1-0.3-0.1c-0.5-0.2-1.1-0.5-1.7-0.8c-1.4-0.7-3-1.4-4.8-2.2c-0.4-0.2-0.9-0.4-1.3-0.6
									c-0.4-0.2-0.8-0.4-1.2-0.6c-0.5-0.3-1.1-0.5-1.6-0.8c-5.6-2.6-12.5-6-20.2-9.8c-0.9-0.5-1.9-0.9-2.9-1.4
									c-2.9-1.5-5.9-3-9.1-4.6c-1-0.5-2.1-1.1-3.2-1.6c-1.2-0.6-2.5-1.3-3.8-2c-1.5-0.8-3.1-1.7-4.7-2.5c-0.5-0.2-0.9-0.5-1.4-0.7
									c-1.2-0.6-2.3-1.2-3.5-1.9c-3.3-1.8-6.7-3.6-10.1-5.5c-0.1-0.1-0.2-0.1-0.4-0.2c-2.4-1.3-4.8-2.7-7.2-4.1
									c-0.1,0-0.1-0.1-0.2-0.1c-1.8-1-3.5-2-5.3-3c-1.1-0.6-2.2-1.3-3.4-2c-4.2-2.5-8.6-5-12.9-7.6c-2.8-1.7-5.6-3.4-8.5-5.2
									c-2.6-1.6-5.2-3.2-7.8-4.8c-2.6-1.6-5.2-3.3-7.8-5c-2.6-1.7-5.2-3.4-7.8-5.1c-2.6-1.7-5.2-3.5-7.8-5.3
									c-2.6-1.8-5.2-3.5-7.7-5.4c0,0,0,0,0,0c-2.6-1.8-5.1-3.6-7.7-5.5c-2.6-1.9-5.1-3.7-7.6-5.6c-0.4-0.3-0.8-0.6-1.2-0.9
									c-2.1-1.6-4.2-3.2-6.3-4.8c-2.5-1.9-4.9-3.9-7.3-5.8c-33.8-27.3-62.1-57.9-74-89.3c-22-58.3,32.8-202,108.1-326.3
									c-33.5,79-50.4,150.2-36.4,187.2c4.9,12.9,12.6,25.7,22.3,38.2c11.3,14.6,24,27.2,37.8,37.9
									c84.9-151.5,242.3-327.8,326.6-319.4c48.8,4.9,103.9,21.9,156.6,42.8C1235.5,1344.8,1242.8,1347.8,1250,1350.8z"/>
							</g>
						</g>
					</g>
				</g>
				<g>
					<g>
						<g>
							<g>
								<path class="st1" d="M876,1900.1l-12.5-5.4c-2.3-1-56.3-24.4-116-61.1c-82-50.4-132.6-99.6-150.2-146.1
									c-16.8-44.4,5.1-119.4,26.4-174.5c27-69.7,68.8-148.4,114.7-215.9c43.2-63.5,126.5-170.3,198.1-171.3
									c55.6-0.8,126.9,12.3,212,39.1c68.5,21.5,127.9,46.1,159.9,59.3c8.4,3.5,16.4,6.8,19,7.7l25.8,4.5L876,1900.1z
									 M941.4,1159.5c-1.5,0-2.9,0-4.3,0c-39.9,0.6-105.3,60.5-170.6,156.5c-44.6,65.5-85.1,141.7-111.1,209.1
									c-26.7,69-36.3,123.8-26.3,150.3c14.6,38.7,61.6,83.4,135.9,129c41.2,25.3,80.4,44.5,99.7,53.5l432.7-601.9
									c-0.6-0.2-1.2-0.5-1.8-0.7C1237.8,1231.5,1063.7,1159.5,941.4,1159.5z M1327.8,1231.9
									C1327.8,1231.9,1327.8,1231.9,1327.8,1231.9C1327.8,1231.9,1327.8,1231.9,1327.8,1231.9z"/>
							</g>
						</g>
					</g>
				</g>
				<g>
					<g>
						<g>
							<g>
								<path class="st1" d="M928.4,1135.4c5.5,6,10.8,11.9,16.1,17.9c5.3,6,10.5,12,15.7,18.1c10.4,12.1,20.6,24.4,30.6,37
									c10,12.6,19.8,25.2,29.1,38.4c1.2,1.6,2.4,3.3,3.5,4.9l3.4,5c2.2,3.4,4.6,6.6,6.7,10.1c2.2,3.5,4.4,6.9,6.5,10.4l6.1,10.7
									c2.6,4.6,1,10.5-3.6,13.2c-4.5,2.6-10.3,1.1-13-3.3l-0.2-0.3c-7.9-12.9-17.3-25.4-26.9-37.6c-9.7-12.2-19.9-24.1-30.3-35.8
									c-10.4-11.7-21.1-23.2-32-34.6c-5.4-5.7-10.9-11.3-16.4-16.9c-5.5-5.6-11.1-11.2-16.6-16.5l0,0c-5.9-5.8-6.1-15.2-0.3-21.1
									c5.8-5.9,15.2-6.1,21.1-0.3C928,1135,928.2,1135.2,928.4,1135.4z"/>
							</g>
						</g>
					</g>
				</g>
				<g>
					<g>
						<g>
							<g>
								<path class="st0" d="M706.8,1370.5l106.4,83.3c9.5,7.4,12.8,20.3,8,31.4c-17.6,40.5-63.2,132-117,136.3
									c-44.6,3.6-90.2-30.8-102.3-72.9c-13.5-47.1,38.7-131.7,66.6-172.3C677.3,1363.7,694.8,1361.1,706.8,1370.5z"/>
							</g>
						</g>
					</g>
				</g>
				<g class="st2">
					<g>
						<g>
							<g>
								<path class="st1" d="M821.2,1485.2c-17.6,40.5-63.2,132-117,136.3c-44.6,3.6-90.2-30.8-102.3-72.9
									c-8.3-28.9,8.3-72.1,28.8-110.5c-7,21.4-8.8,41.2-5.3,57.4c19.8,92.6,105.2,56.1,105.2,56.1s-3.2,20.6,2.1,25.4
									c21.9,20,67.9-59.7,90.7-101.5C823.3,1478.8,822.6,1482.1,821.2,1485.2z"/>
							</g>
						</g>
					</g>
				</g>
				<g>
					<g>
						<g>
							<g>
								<path class="st1" d="M697.9,1638.7c-49,0-98.3-36.9-112.2-85.4c-14.4-50.2,29.5-129.2,68.9-186.6
									c6.8-9.8,17.4-16.5,29.2-18.3c11.8-1.8,24,1.4,33.4,8.7h0l106.4,83.3c15.6,12.2,21,33.4,13.1,51.5
									c-9.9,22.7-26,55.8-46.7,84.8c-27.5,38.6-56,59.3-84.5,61.6C703.1,1638.6,700.5,1638.7,697.9,1638.7z M690.5,1381.8
									c-0.6,0-1.1,0-1.5,0.1c-1.5,0.2-4.4,1.1-6.4,4c-48.4,70.5-72.4,129.6-64.3,158.1c9.8,34,45.4,60.9,79.5,60.9
									c1.7,0,3.4-0.1,5.1-0.2c36.6-2.9,77.1-67.1,102.8-126.2c1.7-4,0.5-8.6-2.9-11.3l-106.4-83.3
									C694.3,1382.2,692.1,1381.8,690.5,1381.8z"/>
							</g>
						</g>
					</g>
				</g>
				<g>
					<g>
						<g>
							<g>
								<path class="st1" d="M640,1585.3c0,0-0.2,0-0.2,0l0,0C640,1585.3,640,1585.3,640,1585.3l0.4,0.1c0.3,0,0.6,0.1,1,0.1
									c0.7,0.1,1.4,0.1,2.2,0.2c1.5,0.1,3.1,0.1,4.7,0c3.2-0.1,6.5-0.5,9.7-1c3.3-0.5,6.6-1.3,9.8-2.3c3.3-0.9,6.5-2.1,9.7-3.4
									c12.8-5.2,24.9-13.1,35.8-22.8c5.4-4.8,10.6-10.1,15.5-15.7l3.6-4.2l3.6-4.4c1.2-1.5,2.4-3,3.5-4.5c1.2-1.5,2.3-3,3.5-4.5
									c4.6-6,8.9-12.2,12.9-18.6c2-3.2,3.9-6.4,5.7-9.7c0.9-1.6,1.7-3.3,2.5-4.9c0.4-0.8,0.8-1.7,1.1-2.5c0.2-0.4,0.3-0.8,0.5-1.2
									l0.4-1l0.2-0.5c0.9-2.3,3.5-3.4,5.8-2.6c2.1,0.8,3.2,3,2.7,5.2l-0.2,0.9l-0.2,0.8c-0.1,0.5-0.3,1-0.4,1.5
									c-0.3,1-0.6,2-0.9,2.9c-0.7,1.9-1.4,3.8-2.1,5.7c-1.5,3.7-3.1,7.3-4.8,10.9c-3.4,7.1-7.2,14.1-11.2,20.9c-1,1.7-2,3.4-3,5.1
									c-1,1.7-2,3.4-3.1,5l-3.2,5l-3.4,5c-4.6,6.6-9.6,13-15,19.1c-10.9,12.2-23.8,23-38.8,31.3c-3.7,2-7.6,3.9-11.6,5.6
									c-4,1.7-8.1,3.2-12.3,4.4c-4.2,1.2-8.6,2.2-13.1,2.9c-2.3,0.3-4.5,0.6-6.9,0.8c-1.2,0.1-2.4,0.1-3.6,0.2c-0.6,0-1.3,0-1.9,0
									l-1,0l-0.6,0l-0.3,0l-0.5,0c-8.2-1-14-8.5-12.9-16.7C624.4,1590.1,631.8,1584.3,640,1585.3z"/>
							</g>
						</g>
					</g>
				</g>
			</g>
			<g>
				<g>
					<g>
						<g>
							<path class="st0" d="M1581.9,1607c0,0,51.9,7.2,132.9,1.2c162-12.1,440.7-76.8,654.9-357.3c27.9-36.6,163.1-51.5,127.8-127.7
								c-10.7-23.1-38.7-28-38.7-28s41.1-16.8,31.5-59.6c-15.1-67.6-137.9-38.6-137.9-38.6s41.1-43.3,50.2-84
								c6.4-28.5-13.6-54.4-31.3-61.2c-50.3-19.3-153.5,56.5-216.3,99c-59.2,39.9-97.3,91.6-136.6,144.7
								c-61.3,82.7-125.7,168.8-277.8,218.8c-51,16.7-111.8,29.5-185.6,36.6l18.2,172.7L1581.9,1607z"/>
						</g>
					</g>
				</g>
			</g>
			<g class="st2">
				<g>
					<g>
						<g>
							<path class="st1" d="M1581.9,1607c0,0,51.9,7.2,132.9,1.2c162-12.1,440.7-76.8,654.9-357.3c23.6-30.9,124-46.4,133-96.5
								c-11.1-23.7-104.1,43.8-129,50.8c-48.2,13.6-58.8-15.8-60.8-28.6c-7.6-48.8,173.5-74.4,175.7-117.1
								c2.9-54.5-55.2,41.5-191.9,44.2c-43.2,0.8-54-52.5-55.6-48.8c-49,110.6,35.1,186.2-14.1,258.5
								c-146.8,216-368.6,182.3-505.7,192.5c-81,6-132.9-1.2-132.9-1.2l-8.8-83.4l-7.6-72.2c-5.6,0.7-11.4,1.3-17.1,1.8l18.2,172.7
								L1581.9,1607z"/>
						</g>
					</g>
				</g>
			</g>
			<g>
				<g>
					<g>
						<g>
							<path class="st1" d="M1651.5,1627.6c-43.4,0-69.7-3.5-71.9-3.8c-9.3-1.3-15.7-9.8-14.4-19.1c1.3-9.3,9.8-15.7,19.1-14.4
								c1.1,0.2,116.4,15.3,268.6-20.3c139.9-32.7,340.8-116.5,503.4-329.4c12-15.7,35.5-26.4,60.5-37.9
								c28.6-13.1,61-27.9,68.2-47.3c2.6-7.2,1.7-15.4-2.8-25.1c-6.6-14.2-25.2-18.2-26.4-18.5c-7.5-1.2-13.3-7.2-14.1-14.8
								c-0.8-7.6,3.5-14.7,10.6-17.5c3.2-1.4,27.6-13,21.5-40.3c-2-9.1-6.8-15.7-14.9-20.8c-27.8-17.4-83.5-9.5-102.7-5
								c-7.3,1.7-14.8-1.6-18.6-8c-3.7-6.5-2.7-14.7,2.4-20.1c0.4-0.4,38-40.5,46-76.1c4.6-20.4-11.1-38-20.8-41.7
								c-10.5-4-32.7-3.8-78.9,19.9c-35.1,18-73.3,44.1-103.9,65.1c-6.3,4.3-12.3,8.4-18,12.2c-56.3,38-92.8,87.3-131.5,139.5
								c-41.8,56.4-85,114.7-156.3,163.1c-80.3,54.4-185,87.3-320.1,100.4c-9.3,0.9-17.6-5.9-18.5-15.2c-0.9-9.3,5.9-17.6,15.2-18.5
								c288-28,371.6-140.9,452.5-250c38.7-52.2,78.6-106.1,139.7-147.4c5.6-3.8,11.6-7.9,17.8-12.1c31.5-21.5,70.6-48.2,107.6-67.2
								c47.3-24.3,81.2-31.1,106.5-21.4c26.6,10.2,49.7,45.1,41.7,80.7c-4.6,20.6-16.1,41.2-27.3,57.8c0.8-0.1,1.6-0.1,2.5-0.1
								c35.3-2,63.1,3.2,82.6,15.5c15.8,9.9,25.9,24.1,29.9,42.1c5.8,26.1-2.9,46-14.9,59.6c8,5.6,15.9,13.5,21,24.6
								c8.4,18.1,9.6,35.2,3.8,51c-12,32.6-51.3,50.5-85.8,66.4c-20.1,9.2-40.8,18.7-47.7,27.6c-74.6,97.7-163.2,177.6-263.4,237.4
								c-80.2,47.9-167.8,83.1-260.6,104.7C1774.5,1622.9,1701.6,1627.6,1651.5,1627.6z"/>
						</g>
					</g>
				</g>
			</g>
			<g>
				<g>
					<g>
						<g>
							<path class="st0" d="M162.9,1920.7c76.3,89.8,187.2-17.5,187.2-17.5s84.6,234.7,262.2,283.5
								c149.2,40.9,334.3-57.2,334.3-57.2s631.9,175.4,768.2-521.3c9.3-47.8,16.4-99.7,20.7-156c3.3-43.3,5.1-89.2,5.1-137.9
								c0-25.5-0.5-51.7-1.5-78.7l-523.9-47.3l-60.4-5.4l-15.1-1.4c-0.8,3.4-1.7,6.7-2.6,10c-26,95-77,166.9-131.8,224.1
								c-69.4,72.7-144.7,121.8-181.9,164.5c-20.5,23.5-36.5,46.4-48.5,66c-21.6,35.1-30.8,59.9-30.8,59.9
								c-23,18.2-96.1,70.9-156.4,31.5c-20.9-13.7-35.1-36.9-47.5-62.2c-22.1-44.7-38.9-96-78.6-112.6c-57.4-24-123.2-2.3-178.1,38
								c-34.2,25.1-64.1,57.5-85,90.5C162.4,1748,107.1,1855.2,162.9,1920.7z"/>
						</g>
					</g>
				</g>
			</g>
			<g class="st2">
				<g>
					<g>
						<g>
							<path class="st1" d="M150,1901.2c3.4,6.8,7.7,13.4,12.9,19.5c76.3,89.8,187.2-17.5,187.2-17.5s84.6,234.7,262.2,283.5
								c149.2,40.9,334.3-57.2,334.3-57.2s614.9,170.7,762.4-493.6c-148.6,465.5-557.5,439.4-694.1,416.5
								c-29.4-4.9-59.6-1.5-87.1,9.9c-63.3,26.3-186.7,66.9-292.3,37.9c-177.6-48.7-221.5-278.4-298.1-297.8
								C319.5,1797.8,283.9,1990.9,150,1901.2z"/>
						</g>
					</g>
				</g>
			</g>
			<g>
				<g>
					<g>
						<g>
							<path class="st1" d="M691.7,2213.6c-30.1,0-58.2-3.5-83.9-10.6c-43-11.8-84.3-34.8-122.6-68.4
								c-30.2-26.5-58.7-59.6-84.7-98.5c-28.2-42.2-47.2-81.6-57.4-105c-22.8,17.2-63.5,42.4-107.5,42.4c-1.8,0-3.7,0-5.5-0.1
								c-31-1.5-58-15.5-80.1-41.6c-28.2-33.2-35-78.1-20.1-133.4c9.5-35.3,27.8-74.3,54.2-116.1c30.1-47.5,74.9-90,123-116.7
								c26.7-14.8,53.3-24.2,79.2-27.9c29.1-4.1,56.6-0.9,81.7,9.6c38.9,16.3,57.9,57.5,76.2,97.3c14.4,31.3,29.4,63.7,52.7,79
								c21.1,13.8,47,15.2,77.1,4.1c18-6.6,37.2-17.6,56-32c6.5-15.8,30.7-69.3,80.6-126.5c18.4-21.1,44.6-42.9,75-68.1
								c83.4-69.3,197.7-164.1,237.6-323.5c2.3-9.1,11.5-14.6,20.5-12.3c9.1,2.3,14.6,11.5,12.3,20.5
								c-42.5,170.2-161.8,269.2-248.8,341.4c-29.3,24.3-54.6,45.3-71.1,64.3c-53.9,61.9-76,120.1-76.2,120.7l-1.7,4.4l-3.7,3
								c-22.7,17.9-46.5,31.8-68.9,40c-40.1,14.7-77.1,12.1-107.2-7.6c-31.5-20.6-48.5-57.5-64.9-93.1
								c-16.4-35.5-31.8-69.1-58.6-80.2c-80.5-33.7-188.4,37-242.2,121.9c-24.6,38.9-41.5,74.8-50.1,106.8
								c-11.9,43.9-7.4,78.4,13.2,102.7c16.1,18.9,34.4,28.7,55.9,29.7c52.8,2.7,106.2-48,106.7-48.5l18.8-18.1l8.9,24.5
								c0.2,0.6,21.2,58.1,63.1,120.4c37.9,56.5,101.2,128.7,187.7,152.5c73,20,156.2,4,213.1-13c62.7-18.7,108.3-42.7,108.8-42.9
								l6-3.2l6.5,1.8c0.7,0.2,76.3,20.7,178.5,18.9c93.4-1.6,229.1-22.8,345-114.4c178.2-140.9,261.5-403.9,247.5-781.5
								c-0.3-9.3,6.9-17.2,16.3-17.5c9.3-0.3,17.2,6.9,17.5,16.3c7.7,208.4-14.3,385.3-65.3,525.8
								c-43.8,120.5-109.5,215.9-195.3,283.7c-54.7,43.2-117.8,75.4-187.8,95.7c-55.7,16.2-115.8,24.9-178.6,25.9
								c-4.1,0.1-8.2,0.1-12.2,0.1c-84.4,0-148.1-13.7-168.1-18.6c-14.7,7.3-55.3,26.3-108.3,42.2c-38.8,11.6-76.2,19.1-111.3,22.2
								C716.3,2213,703.8,2213.6,691.7,2213.6z"/>
						</g>
					</g>
				</g>
			</g>
			<g>
				<g>
					<g>
						<g>
							<path class="st0" d="M2132.8,990.1c41.9-65.6,131.1-81.5,148.7-78.1c13.4,2.6,45,45.3,12.4,71.1
								c-32.6,25.8-59.7,25.2-59.2,38.1c0.5,12.9,22.6,58.9-13,104.1"/>
						</g>
					</g>
				</g>
			</g>
			<g>
				<g>
					<g>
						<g>
							<path class="st1" d="M2128.1,987c8-17.7,20.8-33.3,35.6-46.2c14.9-12.9,32-23.1,50.1-30.8c9.1-3.8,18.3-7.2,28-9.7
								c4.8-1.3,9.7-2.4,14.7-3.4c5-0.9,10.1-1.6,15.6-1.9l2.1-0.1c0.7,0,1.5,0,2.2,0c1.4,0,3.2,0.1,4.9,0.2c1,0.1,2.1,0.3,3.1,0.4
								c1.3,0.2,3.2,0.7,4.4,1.2c2.5,1,4.5,2,6.2,3.1c3.4,2.1,5.9,4.2,8.2,6.4c2.3,2.2,4.3,4.4,6.1,6.8c3.7,4.6,6.7,9.6,9.3,15
								c2.5,5.4,4.5,11.2,5.5,17.5c1,6.3,1.2,13.1-0.3,19.8c-1.4,6.8-4.4,13.3-8.3,18.8c-0.9,1.4-2,2.6-3.1,3.9
								c-1,1.3-2.2,2.4-3.4,3.5c-1.1,1.2-2.4,2.1-3.5,3.1l-0.9,0.7c-0.3,0.2-0.6,0.5-0.9,0.7l-1.5,1.1c-4.1,3-8.4,5.9-12.7,8.5
								c-8.7,5.3-18,9.5-26.9,13.1c-4.4,1.7-8.8,3.4-12.1,4.8c-1.6,0.7-2.9,1.4-3.2,1.5c0,0,0.1-0.2,0.5-0.9
								c0.4-0.7,0.8-1.9,0.8-2.8c0-0.2,0-0.4,0-0.6l0-0.1c0,0,0,0,0,0l0,0.1l0,0.1c0,0,0,0,0,0.1l0,0.5c0,0.6,0.2,1.6,0.3,2.6
								c0.3,2,0.8,4.2,1.2,6.5c0.8,4.6,1.7,9.5,2.3,14.5c1.2,9.9,1.4,20.2,0,30.4c-1.4,10.2-4.4,20.2-8.9,29.2
								c-4.5,9.1-10.5,17.2-17.3,24.1c-2.2,2.2-5.8,2.3-8,0.1c-1.9-1.9-2.2-4.7-0.9-6.9l0.1-0.1c4.4-7.6,8.1-15.4,10.4-23.5
								c1.1-4,2-8.1,2.6-12.2c0.5-4.1,0.8-8.2,0.7-12.3c0-4.1-0.4-8.2-0.9-12.3c-0.5-4.1-1.4-8.2-2.3-12.3c-1-4.1-2.1-8.2-3.5-12.6
								c-0.6-2.2-1.3-4.4-2-6.9c-0.3-1.3-0.7-2.6-1-4.2l-0.2-1.3c0-0.2-0.1-0.5-0.1-0.7l-0.1-0.8l-0.1-0.8c0-0.1,0-0.2,0-0.4l0-0.6
								c0-0.8,0-1.5,0-2.3c0.2-3.2,1.3-6.6,2.9-9.3c1.6-2.7,3.4-4.6,5.1-6.1c3.3-2.8,6-4.4,8.5-5.8c4.9-2.7,9.1-4.5,13.1-6.5
								c4-1.9,7.8-3.8,11.5-5.9c3.7-2,7.2-4.2,10.6-6.5c3.4-2.3,6.7-4.7,9.9-7.3l1.2-1c0.2-0.2,0.3-0.3,0.5-0.4l0.4-0.4
								c0.5-0.5,1.1-1,1.6-1.5c1-1,1.8-2,2.5-3.1c1.4-2.1,2.2-4.1,2.6-6.4c0.1-0.6,0.1-1.2,0.2-1.7c0-0.6,0.1-1.2,0-1.9
								c-0.1-0.6,0-1.3-0.1-2l-0.1-1l-0.2-1c-0.9-5.6-4.1-12-8.1-17.1c-1-1.3-2.1-2.5-3.1-3.5c-1-1-2-1.8-2.6-2.2
								c-0.3-0.2-0.3-0.2,0.1-0.1l0.1,0l0.1,0.1c0.1,0,0.2,0.1,0.3,0.1c0.1,0,0.2,0.1,0.3,0.1c0.1,0,0.3,0,0.2,0
								c-0.1,0-0.2,0-0.3-0.1c-0.6,0-1.1-0.1-2-0.1c-0.4,0-0.8,0-1.2,0l-1.3,0c-3.6,0.1-7.7,0.5-11.8,1.1c-4.1,0.5-8.3,1.3-12.4,2.1
								c-4.2,0.9-8.3,1.9-12.5,3c-4.1,1.1-8.3,2.3-12.3,3.7c-16.3,5.3-32.2,12.3-46.9,21.4c-14.7,9-28.2,20.2-40,33.6l-0.1,0.1
								c-2.1,2.4-5.7,2.6-8,0.5C2127.5,992,2127,989.2,2128.1,987z"/>
						</g>
					</g>
				</g>
			</g>
			<g>
				<g>
					<g>
						<g>
							<g>
								<path class="st0" d="M1711.6,1707.4l-187.8,247.3l-189.6,18.5L1234,1983c0,0-77.3-29.6-95.9-37.1
									c-25.3-10.1-15.1-40.8-3.3-57.8c20.2-29.1,36.1-58.2,49.2-86c21.1-44.9,34.9-86.6,47.7-120.7c10.5-28,38.5-45.5,68.3-42.3
									c177.6,19.1,352.4,18.3,352.4,18.3L1711.6,1707.4z"/>
							</g>
						</g>
					</g>
				</g>
				<g>
					<g>
						<g>
							<g>
								<path class="st1" d="M1233.9,1998c-1.8,0-3.7-0.3-5.4-1c-3.2-1.2-77.6-29.8-96.1-37.2c-11.8-4.7-19.9-13.2-23.3-24.6
									c-5.7-18.8,3.1-41.1,13.3-55.7c44.5-64.3,67.8-128.3,86.5-179.8c3-8.3,5.8-16.1,8.7-23.6c12.9-34.5,47.5-55.9,84-52
									c174.7,18.8,349,18.2,350.7,18.2c3.5,0,7,1.2,9.7,3.5l59.3,50c6.1,5.1,7.1,14.2,2.3,20.5l-187.8,247.3
									c-2.5,3.3-6.3,5.5-10.5,5.9l-289.9,28.2C1234.9,1997.9,1234.4,1998,1233.9,1998z M1293,1653.7c-20.8,0-39.8,13-47.3,33
									c-2.8,7.4-5.6,15.1-8.6,23.3c-19.3,53.1-43.3,119.1-90.1,186.6c-7.2,10.5-11.2,23.3-9.2,29.9c0.5,1.7,1.6,3.7,5.7,5.4
									c16.2,6.4,77.5,30,92.4,35.7l279.8-27.3l175.2-230.8l-44.2-37.3c-31.3-0.1-189.7-1.3-348.5-18.4
									C1296.6,1653.8,1294.8,1653.7,1293,1653.7z"/>
							</g>
						</g>
					</g>
				</g>
				<g class="st3">
					<g>
						<g>
							<g>
								<path class="st1" d="M1334.2,1973.2L1234,1983c0,0-77.3-29.6-95.9-37.1c-19.3-7.7-17.9-27.4-10.9-43.9
									c2.2-5.1,4.9-9.9,7.7-13.9c20.2-29.1,36.1-58.2,49.2-86c4.1,12.7,16-0.5,47.8-10.4c37.6-11.7,55.7-43.5,77.7-51
									C1373.5,1718.8,1350.4,1901.6,1334.2,1973.2z"/>
							</g>
						</g>
					</g>
				</g>
				<g>
					<g>
						<g>
							<g>
								<path class="st0" d="M1592.7,1868.4c-8.7,23.6-16.9,53.8-16.9,53.8s-49.6-13.1-53.5-14.5c-12.9-4.8-13.1-36.1-0.6-70
									c12.5-33.9,33.1-57.5,46-52.7c9.4,3.5,49.3,13.6,49.3,13.6S1596.1,1859.3,1592.7,1868.4z"/>
							</g>
						</g>
					</g>
				</g>
				<g>
					<g>
						<g>
							<g>
								
									<ellipse transform="matrix(0.347 -0.9379 0.9379 0.347 -702.5011 2711.3379)" class="st0" cx="1595.7" cy="1860.1" rx="65.4" ry="33"/>
							</g>
						</g>
					</g>
				</g>
				<g>
					<g>
						<g>
							<g>
								<path class="st0" d="M1707.1,1720.9c-13.5,24.2-34.8,62.6-58.3,102.2c-33.7,56.6-72,115.4-98.3,137.6
									c-45.9,38.6-211.1,36.3-316.5,22.3c-27.6-3.7-43.5-32.7-28-55.9c25.4-38,47.2-75.7,64.9-108.7
									c16.7-31.3,29.8-58.4,38.6-77.6c8.1-17.6,26.9-27.7,46.1-24.8c166.7,25.2,285.7,1.6,337.6-12.9
									C1703.6,1700,1712.4,1711.3,1707.1,1720.9z"/>
							</g>
						</g>
					</g>
				</g>
				<g class="st3">
					<g>
						<g>
							<g>
								<path class="st1" d="M1605.3,1892.4c-16.3,24.3-32,45.5-45.6,59.5c-3.2,3.4-6.3,6.3-9.2,8.8
									c-45.9,38.6-211.1,36.3-316.5,22.3c-27.6-3.7-43.5-32.7-28-55.9c25.4-38,47.2-75.7,64.9-108.7
									c5.4,29.9,29.2,94.3,134.9,116.7c27.4,5.8,56,2.2,84.3-7.3c-4.1-12.8-1.7-35.8,7.3-60c12.5-33.9,33.1-57.5,46-52.7
									c7.9,2.9,37,10.4,46.4,12.9c1.5,0.1,2.9,0.5,4.3,1c9.1,3.3,14.4,14.1,15.5,28.6C1610.3,1867.7,1608.9,1879.8,1605.3,1892.4z
									"/>
							</g>
						</g>
					</g>
				</g>
				<g class="st3">
					<g>
						<g>
							<g>
								<path class="st1" d="M1605.3,1892.4c3.6-12.6,5-24.7,4.2-35c14.1-11.4,27.3-23.1,39.3-34.3
									C1634.7,1846.7,1619.8,1870.8,1605.3,1892.4z"/>
							</g>
						</g>
					</g>
				</g>
				<g>
					<g>
						<g>
							<g>
								<path class="st1" d="M1377.6,2007.3c-47.5,0-99.7-3.3-145.7-9.5c-19.1-2.5-35.1-14.1-42.7-31c-7.2-15.9-5.6-33.4,4.2-48.1
									c49.3-73.8,85.3-147.1,102.3-184.2l13.6,6.3l-13.6-6.3c10.8-23.5,36.3-37.3,62-33.4c161.7,24.4,277,2.6,331.3-12.5
									c10.7-3,22,0.7,28.8,9.4c6.8,8.7,7.8,20.6,2.4,30.2l-3.3,5.9c-36.2,64.9-111.4,199.9-156.9,238.1
									c-23.5,19.8-72.3,31.4-145,34.4C1403.1,2007,1390.5,2007.3,1377.6,2007.3z M1349,1730.4c-11,0-21.3,6.4-26,16.6
									c-17.4,37.9-54.2,112.8-104.6,188.4c-5.4,8.1-3.4,15.4-1.8,19.1c3.3,7.4,10.6,12.5,19.3,13.7
									c117.2,15.6,267.1,12.8,304.8-18.9c41.2-34.7,117.4-171.4,150-229.7l0.2-0.3c-58.9,15.7-176.3,36-337.7,11.6
									C1351.8,1730.5,1350.4,1730.4,1349,1730.4z"/>
							</g>
						</g>
					</g>
				</g>
				<g>
					<g>
						<g>
							<g>
								<g>
									<path class="st4" d="M1592.7,1868.4c-8.7,23.6-16.9,53.8-16.9,53.8s-49.6-13.1-53.5-14.5c-12.9-4.8-13.1-36.1-0.6-70
										c12.5-33.9,33.1-57.5,46-52.7c9.4,3.5,49.3,13.6,49.3,13.6S1596.1,1859.3,1592.7,1868.4z"/>
								</g>
							</g>
						</g>
					</g>
					<g class="st5">
						<g>
							<g>
								<g>
									<path class="st0" d="M1617,1798.6c0,0-21,60.7-24.3,69.8c-8.8,23.6-16.9,53.8-16.9,53.8s-1-0.3-2.7-0.7
										c3-9.8,6.8-21.7,10.7-32.2c3.4-9.1,24.3-69.9,24.3-69.9s-40-10.1-49.4-13.6c-10.4-3.9-26,11-38.2,34.9
										c0.4-1,0.7-2.1,1.1-3.1c12.5-33.9,33.1-57.5,46-52.7C1577.1,1788.4,1617,1798.6,1617,1798.6z"/>
								</g>
							</g>
						</g>
					</g>
					<g class="st3">
						<g>
							<g>
								<g>
									<path class="st1" d="M1588.8,1879.7c-7.1,20.9-13,42.5-13,42.5s-49.6-13.1-53.5-14.6c-12.8-4.7-13.1-36.1-0.6-69.9
										c4.2-11.4,9.4-21.7,14.8-30.1c-8.7,29.4-7.2,54.8,4.2,59C1543.8,1867.8,1575.7,1876.3,1588.8,1879.7z"/>
								</g>
							</g>
						</g>
					</g>
					<g>
						<g>
							<g>
								<g>
									<path class="st1" d="M1575.8,1934.7c-1.1,0-2.1-0.1-3.2-0.4c-15.1-4-50.6-13.4-54.6-14.9c-24-8.9-21-50.8-8-86
										c6.6-17.8,15.5-33.7,25.2-44.7c16.6-19.1,30.2-17.8,36.9-15.4c7.2,2.7,37.1,10.4,48.1,13.2c3.4,0.9,6.3,3.1,7.9,6.2
										c1.7,3.1,2,6.7,0.8,10c-0.9,2.5-21,61-24.4,70.1c-8.4,22.8-16.5,52.4-16.6,52.7C1586.3,1931,1581.3,1934.7,1575.8,1934.7z
										 M1527.2,1896.1c4.2,1.3,21.6,6,39.9,10.9c3.2-11.1,8.4-28.1,13.9-42.9c2.3-6.3,13.5-38.5,19.8-56.8
										c-12.4-3.2-29.9-7.9-36.8-10.4c-4.7,1.1-19.3,14.9-30.5,45.1C1522.3,1872.1,1524.3,1892.1,1527.2,1896.1z M1592.7,1868.4
										L1592.7,1868.4L1592.7,1868.4z"/>
								</g>
							</g>
						</g>
					</g>
					<g>
						<g>
							<g>
								<g>
									
										<ellipse transform="matrix(0.347 -0.9379 0.9379 0.347 -702.5011 2711.3379)" class="st4" cx="1595.7" cy="1860.1" rx="65.4" ry="33"/>
								</g>
							</g>
						</g>
					</g>
					<g class="st5">
						<g>
							<g>
								<g>
									<path class="st0" d="M1626.7,1871.6c-0.8,2.2-1.7,4.4-2.6,6.5c5.8-27,0.8-50.1-13.3-55.4c-16-5.9-38.1,13.2-51.1,43.5
										c1.2-5.7,2.9-11.5,5.1-17.4c12.5-33.9,36.6-56.2,53.7-49.9C1635.5,1805.1,1639.2,1837.7,1626.7,1871.6z"/>
								</g>
							</g>
						</g>
					</g>
					<g class="st3">
						<g>
							<g>
								<g>
									<path class="st1" d="M1625.6,1874.5c-12.8,32.3-35.9,53.1-52.6,47c-17.1-6.3-20.8-38.9-8.3-72.8
										c6.6-17.7,16.2-32.3,26.4-41.2c-0.4,0.9-0.7,1.9-1.1,2.8c-12.5,33.9-8.8,66.5,8.3,72.8
										C1606.5,1886.1,1616.3,1882.6,1625.6,1874.5z"/>
								</g>
							</g>
						</g>
					</g>
					<g>
						<g>
							<g>
								<g>
									<path class="st1" d="M1579.2,1935.1c-3.6,0-7.1-0.6-10.5-1.9c-24.3-9-31.1-47.2-15.7-88.9c6.7-18.2,16.8-34.1,28.3-44.8
										c13.8-12.8,28.5-17.2,41.4-12.4c24.3,9,31.1,47.2,15.7,88.9c-6.7,18.2-16.8,34.1-28.3,44.8
										C1599.9,1930.2,1589.3,1935.1,1579.2,1935.1z M1612.3,1810.2c-3.5,0-8.7,2.8-13.9,7.6c-8.6,8-16.6,20.8-21.9,35.2
										c-5.3,14.4-7.6,29.3-6.3,41c0.9,8.3,3.8,14.5,7.2,15.8c3.4,1.3,9.6-1.6,15.7-7.3c8.6-8,16.6-20.8,21.9-35.2
										c5.3-14.4,7.6-29.3,6.3-41c-0.9-8.3-3.8-14.5-7.2-15.8C1613.5,1810.3,1612.9,1810.2,1612.3,1810.2z"/>
								</g>
							</g>
						</g>
					</g>
				</g>
				<g>
					<g>
						<g>
							<g>
								<path class="st1" d="M1356.6,2004.6c-2.1,0-4.3-0.5-6.2-1.7c-6-3.4-8.1-11.1-4.6-17.1l59.4-103.5l-28.4-25.4
									c-4-3.6-5.3-9.3-3.1-14.3l53-122.7c2.7-6.3,10.1-9.3,16.4-6.5c6.3,2.7,9.3,10.1,6.5,16.4l-49.5,114.5l29.3,26.2
									c4.4,3.9,5.4,10.4,2.5,15.5l-64.5,112.2C1365.2,2002.3,1361,2004.6,1356.6,2004.6z"/>
							</g>
						</g>
					</g>
				</g>
			</g>
			<g>
				<g>
					<g>
						<g>
							<path class="st1" d="M569.5,2185.7c-3.9,0-7.7-1.5-10.7-4.5c-32.5-32.9-51.1-77.4-55.1-132.2c-3.2-42.6,2.4-91.5,16.6-145.5
								c23.9-90.9,63.5-163.9,65.1-167c4-7.3,13.1-10,20.4-6c7.3,4,10,13.1,6,20.4c-0.5,0.9-39.7,73.5-62.6,160.8
								c-20.5,78.3-31.8,184.9,31,248.5c5.8,5.9,5.8,15.4-0.1,21.2C577.1,2184.3,573.3,2185.7,569.5,2185.7z"/>
						</g>
					</g>
				</g>
			</g>
			<g>
				<g>
					<g>
						<g>
							<path class="st1" d="M2060.6,1526.9c-0.3,0-0.7,0-1.1,0c-82.7-5.7-141.2-58.5-169.1-152.5c-20.3-68.6-17.2-134.5-17-137.2
								c0.4-8.3,7.5-14.6,15.8-14.2c8.3,0.4,14.6,7.5,14.2,15.8c-0.1,1.1-2.9,64.3,16,127.8c24.4,81.7,72.2,125.6,142.2,130.5
								c8.3,0.6,14.5,7.7,13.9,16C2075,1520.9,2068.4,1526.9,2060.6,1526.9z"/>
						</g>
					</g>
				</g>
			</g>
			<g>
				<g>
					<g>
						<g>
							<path class="st1" d="M2466,1108.3c-2.4,1.8-5,3.4-7.5,5c-1.3,0.8-2.6,1.5-3.9,2.2c-1.3,0.7-2.7,1.4-4,2
								c-2.7,1.4-5.5,2.4-8.3,3.6c-2.8,1.1-5.6,2-8.5,2.9c-11.4,3.5-23,5.2-34,6.5c-11,1.3-21.5,2.4-32.1,4.1
								c-10.5,1.7-21.1,4.1-32,7l0,0c-1.2,0.3-2.4-0.4-2.7-1.6c-0.2-0.8,0.1-1.6,0.6-2.2c8.3-7.9,17.9-14.7,28.2-20.2
								c10.3-5.5,21.2-9.8,31.6-13.6c10.5-3.8,20.3-7.4,29.8-11c2.3-1,4.8-1.7,7-2.8l3.5-1.4l1.8-0.7c0.6-0.2,1.1-0.5,1.7-0.7
								c2.3-1,4.7-1.8,7-2.8c2.3-1,4.7-1.9,7.2-2.7l1.1-0.3c8-2.5,16.4,1.9,18.9,9.9C2473.5,1097.9,2471.1,1104.6,2466,1108.3z"/>
						</g>
					</g>
				</g>
			</g>
			<g>
				<g>
					<g>
						<g>
							<path class="st1" d="M2364.1,1006.3l-1.1,1.8c-0.3,0.5-0.6,1-0.9,1.5c-0.6,0.9-1.3,1.9-1.9,2.7c-1.3,1.8-2.7,3.4-4.1,5.1
								c-2.8,3.2-5.8,6.2-8.9,9c-6.2,5.6-13.1,10.5-20,15.1c-7,4.6-14.1,8.8-21.5,12.8c-3.7,1.9-7.5,3.8-11.3,5.6
								c-1.9,0.9-3.9,1.7-5.8,2.5c-2,0.8-3.9,1.6-6,2.3c-1.2,0.4-2.5-0.2-2.9-1.4c-0.2-0.7-0.1-1.4,0.2-1.9l0,0
								c1.1-1.8,2.2-3.6,3.4-5.4c1.2-1.8,2.3-3.5,3.5-5.2c2.4-3.4,4.8-6.8,7.3-10.1c4.9-6.6,9.9-13,14.9-19.2
								c5.1-6.2,10-12.5,15.3-18.2c2.6-2.9,5.3-5.7,8.1-8.3c1.4-1.3,2.8-2.6,4.2-3.9c0.7-0.6,1.4-1.2,2.1-1.8c0.3-0.3,0.7-0.6,1-0.8
								l0.5-0.4l0.2-0.2c0.1,0,0.1,0,0.1,0l7.2-2.3c7.5-2.3,15.4,1.8,17.8,9.3C2366.8,998.7,2366.1,1002.9,2364.1,1006.3z"/>
						</g>
					</g>
				</g>
			</g>
			<g>
				<g>
					<g>
						<g>
							<path class="st0" d="M754.1,1675.1c70.2,227.7,434.3,264.4,469.1,147.4c11.8-39.6-20.3-64.4-20.3-64.4
								s-308.4,1.3-389.3-192.5C813.6,1565.7,729.8,1596.2,754.1,1675.1z"/>
						</g>
					</g>
				</g>
			</g>
			<g class="st3">
				<g>
					<g>
						<g>
							<path class="st1" d="M754.1,1675.1c70.2,227.7,434.4,264.4,469.1,147.4c4.7-15.7,2.4-29.1-2-39.6
								c-71.8,116.1-429.6,33.2-448.2-178.9c-0.3-3.2-1.8-6.2-2.4-9.1C754.7,1612.5,742.9,1638.7,754.1,1675.1z"/>
						</g>
					</g>
				</g>
			</g>
			<g>
				<g>
					<g>
						<g>
							<path class="st1" d="M1084.1,1904.3c-67.7,0-141-19.5-201.5-53.6c-72.9-41.1-122.9-100.1-144.7-170.6
								c-15.1-48.9,5.3-82.2,25-101.4c20.3-19.8,43.9-28.6,44.9-28.9c8.5-3.1,17.9,1,21.4,9.4c31.4,75.1,103.1,128.6,213.1,158.9
								c84.1,23.2,159.8,23.2,160.5,23.2c0,0,0,0,0.1,0c3.8,0,7.4,1.2,10.4,3.5c1.7,1.3,41,32.5,26.1,82.6
								c-14.2,47.8-71.6,76.5-153.6,77C1085.3,1904.3,1084.7,1904.3,1084.1,1904.3z M805.6,1588.5c-6,3.6-13.1,8.6-19.6,15.1
								c-18.6,18.6-23.7,40.3-15.6,66.6c40.2,130.4,191.3,200.3,313.8,200.3c0.5,0,1.1,0,1.6,0c65.2-0.3,111.7-20.5,121.3-52.8
								c6.2-20.8-4.7-36.2-10.8-42.8c-21.1-0.5-87.6-3.7-162-24.1c-52.4-14.4-97.8-34.3-135-59.4
								C857.3,1663.4,825.9,1628.8,805.6,1588.5z"/>
						</g>
					</g>
				</g>
			</g>
			<g>
				<g>
					<g>
						<g>
							<path class="st0" d="M187.5,1487.4c0,0-4.3,28.6,12,50.3c8.2,10.9,21.3,22.4,37.2,33.7c14.1,10.1,30.2,20.1,46.7,29.4
								c36.5,20.5,75,37.9,97.7,46.2c47.8,17.6,102.2,26.6,159,28.4c77.6,2.4,159.4-8.6,234.7-29.2c70.7-19.4,135.6-47.4,185.3-80.9
								l35.4-52.3l48.4-71.5l171.2-253.2l38.9-57.5c-1.7,1-39.4,22.5-99.3,52.1c-5.7,2.8-11.6,5.7-17.7,8.6
								c-68,33-159.5,73.7-257.7,107.1c-152.8,52-321.8,86.3-443.6,46c-141.8-47-208.7-81.4-244.2-43.9c-36,38,7.4,88.8,7.4,88.8
								s-31.3,22.2-31.5,54.4C167.3,1469.5,187.5,1487.4,187.5,1487.4z"/>
						</g>
					</g>
				</g>
			</g>
			<g class="st2">
				<g>
					<g>
						<g>
							<path class="st1" d="M381,1450.7c0,0,1.3,8.1,7.8,20.8C384.6,1459,381,1450.7,381,1450.7z"/>
						</g>
					</g>
				</g>
			</g>
			<g class="st2">
				<g>
					<g>
						<g>
							<path class="st1" d="M236.7,1571.4c14.1,10.1,30.2,20.1,46.7,29.4c36.5,20.5,75,37.9,97.7,46.2
								c47.8,17.6,102.2,26.6,159,28.4c77.6,2.4,159.4-8.6,234.7-29.2c70.7-19.4,135.6-47.4,185.3-80.9l0,0
								c11.1-16.4-5-37.6-23.8-31.2c-96.7,33-255,79.4-336.8,61.7c-144.9-31.3-194.4-92.4-210.8-124.4c12,36.1,28,108-27.4,120.8
								C340.2,1597.2,275.6,1587.8,236.7,1571.4z"/>
						</g>
					</g>
				</g>
			</g>
			<g>
				<g>
					<g>
						<g>
							<path class="st1" d="M1256.8,1135.7c-5,4.3-10,8.4-15.2,12.3c-5.1,3.9-10.4,7.7-15.7,11.3c-10.6,7.3-21.4,14.3-32.3,20.9
								c-21.9,13.2-44.7,25-67.5,36.5c-45.8,22.9-93.2,42.4-140.9,61c-23.9,9.3-47.8,18.4-71.9,27.1c-24.1,8.7-48.4,16.8-73,24.5
								c-49.1,15.2-99,28.1-149.9,37.3c-25.4,4.6-51.1,8.2-77.1,10.4c-25.9,2.2-52.1,3-78.3,1.9l-9.9-0.6l-4.9-0.3
								c-1.6-0.1-3.3-0.3-4.9-0.4l-9.9-0.9c-3.3-0.3-6.6-0.8-9.8-1.2c-6.6-0.7-13.1-2-19.7-3.1c-1.6-0.3-3.3-0.6-4.9-0.9l-4.9-1
								l-4.9-1c-0.8-0.2-1.6-0.3-2.4-0.5l-2.4-0.6l-9.7-2.5c-0.8-0.2-1.6-0.4-2.4-0.6l-2.4-0.7l-4.8-1.5c-6.6-1.9-12.5-4-18.5-6
								c-12.1-4.1-24.2-8.2-36.2-12.4c-24.1-8.3-48-16.9-71.8-24.7c-11.9-3.9-23.8-7.7-35.5-10.8c-2.9-0.8-5.9-1.6-8.8-2.2
								c-2.9-0.7-5.8-1.3-8.7-1.9c-5.7-1.1-11.5-2.1-16.9-2.5c-5.5-0.4-10.7-0.5-15.5,0.1c-4.8,0.6-8.9,1.8-12.5,3.6
								c-3.6,1.9-6.8,4.4-9.8,7.8c-3,3.4-5.2,7-6.6,10.9c-1.4,3.8-2,8-1.9,12.5c0.1,4.5,1.1,9.2,2.6,14c1.6,4.8,3.7,9.7,6.3,14.4
								c1.3,2.4,2.7,4.7,4.2,6.9c0.7,1.1,1.5,2.2,2.3,3.3c0.4,0.5,0.8,1.1,1.2,1.6l1,1.2l11.1,13.9l-14.1,10.9l-0.8,0.6l-1.1,0.9
								c-0.7,0.6-1.5,1.2-2.2,1.9c-1.5,1.3-2.9,2.7-4.2,4.1c-2.7,2.8-5.2,5.8-7.4,8.9c-4.3,6.2-7.3,12.8-8.3,19.1
								c-0.1,0.8-0.3,1.6-0.3,2.4c-0.1,0.8-0.1,1.6-0.1,2.4c0,0.4,0,0.8,0,1.2l0.1,1.2l0,1.2c0,0.4,0.1,0.8,0.2,1.2
								c0.1,0.8,0.2,1.6,0.4,2.3c0.2,0.8,0.4,1.6,0.5,2.4c0.5,1.6,0.9,3.2,1.6,4.7c1.3,3.2,3,6.3,5.1,9.3l0.8,1.1l0.8,1.1
								c0.5,0.7,1.1,1.4,1.7,2.1c0.6,0.7,1.2,1.4,1.8,2c0.3,0.3,0.6,0.6,0.9,0.9l0.4,0.4c0.1,0.1,0.3,0.3,0.2,0.2l5.5,15.2l0,0
								c0,0,0,0,0,0l0,0.2c0,0.2,0,0.3-0.1,0.5c0,0.4-0.1,0.8-0.1,1.2c-0.1,0.9-0.1,1.7-0.1,2.6c0,0.9,0,1.8,0,2.7l0.1,2.7
								c0.2,3.6,0.7,7.2,1.5,10.6c0.3,1.7,0.9,3.3,1.4,5c0.6,1.6,1.1,3.2,1.9,4.6c0.6,1.5,1.5,2.9,2.2,4.3c0.4,0.7,0.9,1.3,1.3,2
								l0.6,1c0.2,0.3,0.5,0.7,0.8,1c4.4,5.7,10.3,11.4,16.6,16.7c6.4,5.4,13.2,10.5,20.3,15.5c14.2,9.9,29.4,18.9,44.8,27.5
								c15.5,8.6,31.3,16.6,47.4,24.2c8,3.8,16.1,7.4,24.2,10.9c4.1,1.7,8.1,3.4,12.2,5c4.1,1.6,8,3.1,12.2,4.5
								c4.1,1.4,8.2,2.8,12.3,4.2l12.5,3.7l3.1,0.9l3.2,0.8l6.3,1.6l6.3,1.6c2.1,0.5,4.3,0.9,6.4,1.4c34.1,7.4,69.3,10.9,104.6,11.8
								c8.8,0.1,17.7,0.3,26.5,0l6.6-0.1c2.2,0,4.4-0.1,6.6-0.2l13.3-0.6c17.7-1,35.4-2.4,53-4.7c35.2-4.2,70.2-11,104.6-19.6
								c17.2-4.5,34.2-9.5,50.8-15.5l3.1-1.1l3.1-1.2l6.2-2.3c4.1-1.6,8.3-3,12.4-4.7c4.1-1.6,8.2-3.2,12.4-4.7
								c4.1-1.6,8.2-3.3,12.3-4.9c2.1-0.8,4.1-1.6,6.2-2.4l6.1-2.5l6.2-2.4l3.1-1.2l3.1-1.3c4.1-1.7,8.1-3.4,12.3-5
								c4.1-1.7,8.2-3.4,12.3-5c4.2-1.5,8.2-3.3,12.4-4.9c2.1-0.8,4.2-1.6,6.3-2.4c1.1-0.4,2.1-0.8,3.1-1.2l3.1-1.2
								c2.1-0.8,4.2-1.6,6.3-2.4c1.1-0.4,2.1-0.8,3.2-1.1c1.1-0.4,2.1-0.8,3.2-1.2c4.2-1.6,8.6-3.1,13.1-4.4l0.2-0.1
								c3.1-0.9,6.3,0.9,7.2,4c0.6,2,0,4-1.2,5.5c-3.1,3.6-6.4,7-9.7,10.3c-1.7,1.7-3.4,3.2-5.2,4.8c-1.8,1.5-3.5,3.1-5.3,4.6
								c-3.6,3.1-7.3,5.9-11.1,8.7c-3.8,2.8-7.6,5.5-11.5,8c-3.9,2.5-7.9,5-11.9,7.4c-4.1,2.3-8.2,4.5-12.3,6.7l-3.1,1.6
								c-1,0.5-2.1,1-3.1,1.5l-6.3,3l-6.3,3c-2.1,1-4.3,1.9-6.4,2.8c-17,7.5-34.7,13.3-52.4,18.9l-13.3,4c-4.4,1.3-8.9,2.5-13.4,3.7
								l-6.7,1.9c-2.2,0.6-4.5,1.2-6.7,1.8l-13.4,3.6c-35.8,9-72.2,16.1-108.9,20.5c-18.3,2.3-36.8,3.8-55.3,4.9l-13.9,0.6
								c-2.3,0.1-4.6,0.2-6.9,0.2l-6.9,0.1c-9.3,0.3-18.5,0-27.8,0c-37.1-1-74.3-4.6-111-12.6c-2.3-0.5-4.6-0.9-6.9-1.5l-6.8-1.7
								l-6.8-1.7l-3.4-0.9l-3.4-1l-13.6-4c-4.5-1.4-8.9-3-13.4-4.6c-4.5-1.5-9-3.2-13.3-4.9c-4.4-1.7-8.7-3.5-13-5.3
								c-8.6-3.6-17-7.4-25.4-11.4c-16.7-7.9-33.2-16.2-49.4-25.2c-16.2-9-32.2-18.6-47.7-29.4c-7.8-5.4-15.4-11.1-22.9-17.4
								c-7.5-6.3-14.7-13.3-21.5-21.8c-0.4-0.6-0.8-1-1.3-1.6l-1.3-1.8c-0.8-1.2-1.7-2.4-2.4-3.7c-1.4-2.6-2.9-5.1-4.1-7.8
								c-1.3-2.6-2.2-5.3-3.2-8c-0.8-2.7-1.7-5.4-2.2-8.1c-1.2-5.4-2-10.8-2.3-16.3l-0.2-4.1c0-1.4,0-2.7,0-4.1
								c0-1.4,0.1-2.7,0.2-4.1c0-0.7,0.1-1.4,0.2-2.2c0-0.4,0.1-0.7,0.1-1.1l0.1-0.6l0.1-0.8l5.5,15.2c-0.6-0.5-0.8-0.8-1.2-1.1
								l-0.9-0.9c-0.6-0.6-1.1-1.1-1.6-1.7c-1.1-1.1-2-2.2-3-3.3c-0.9-1.1-1.9-2.3-2.8-3.4l-1.3-1.8l-1.3-1.8
								c-3.3-4.8-6.2-10.1-8.5-15.7c-1.2-2.8-2.1-5.8-3-8.8l-1.1-4.6c-0.3-1.5-0.5-3.1-0.7-4.7c-0.1-0.8-0.2-1.6-0.3-2.4l-0.1-2.4
								l-0.1-2.4c0-0.8,0-1.6,0-2.4c0-1.6,0.1-3.2,0.3-4.8c0.1-1.6,0.4-3.1,0.6-4.7c1-6.2,2.9-12.2,5.3-17.7
								c2.4-5.5,5.4-10.6,8.6-15.3c3.3-4.7,6.9-9,10.8-13.1c1.9-2,3.9-3.9,6-5.8c1-0.9,2.1-1.9,3.2-2.8l1.7-1.4l0.9-0.7l1.2-0.9
								l-3.1,24.8l-1.1-1.4l-0.9-1.2c-0.6-0.8-1.1-1.5-1.7-2.3c-1.1-1.5-2.1-3-3.2-4.5c-2-3-3.9-6.1-5.7-9.3
								c-3.5-6.4-6.6-13.2-9-20.5c-2.3-7.3-3.9-15.1-4.2-23.4c-0.2-8.2,0.9-16.9,3.9-25c2.9-8.1,7.5-15.5,12.9-21.6
								c5.3-6.2,12.1-11.8,19.8-15.7c7.7-4,16-6.2,23.8-7.1c7.9-1,15.4-0.8,22.6-0.2c14.3,1.3,27.5,4.3,40.3,7.7
								c12.8,3.4,25.1,7.3,37.4,11.4c24.4,8.1,48.4,16.6,72.3,24.9c12,4.2,23.9,8.2,35.9,12.3c6,2,12.1,4.1,17.7,5.7l4.3,1.3
								l2.1,0.7c0.7,0.2,1.5,0.4,2.2,0.6l8.7,2.2l2.2,0.6c0.7,0.2,1.5,0.3,2.2,0.5l4.4,0.9l4.4,0.9c1.5,0.3,3,0.6,4.5,0.9
								c6,1,11.9,2.1,18,2.8c3,0.4,6,0.8,9.1,1.1l9.1,0.8c1.5,0.1,3,0.3,4.6,0.4l4.6,0.3l9.2,0.5c24.5,1,49.2,0.2,74-1.8
								c24.7-2.1,49.4-5.5,74-10c49.1-8.9,97.8-21.5,145.8-36.3c24-7.4,47.9-15.5,71.6-24c23.7-8.5,47.3-17.4,70.6-27.1l17.5-7.3
								l17.4-7.5c11.5-5.1,23.1-10.2,34.6-15.4l68.9-31.3c23-10.4,45.9-21.1,69.2-31c11.6-5,23.4-9.8,35.2-14.4
								c5.9-2.3,11.9-4.6,17.9-6.8c6-2.2,12.1-4.3,18.2-6.3l0.1,0c3-1,6.3,0.7,7.2,3.7C1259.3,1131.8,1258.5,1134.2,1256.8,1135.7z"
								/>
						</g>
					</g>
				</g>
			</g>
			<g>
				<g>
					<g>
						<g>
							<g>
								<path class="st0" d="M2072.7,1039.3c-390.4,807.5-1531,305.5-1240.9-508.2C1211.9-305,2390.4,215.1,2072.7,1039.3z"/>
							</g>
						</g>
					</g>
				</g>
				<g>
					<g>
						<g>
							<g>
								<path class="st0" d="M2072.7,1039.3c-390.4,807.5-1531,305.5-1240.9-508.2C1211.9-305,2390.4,215.1,2072.7,1039.3z"/>
							</g>
						</g>
					</g>
				</g>
				<g class="st2">
					<g>
						<g>
							<g>
								<path class="st1" d="M859.3,1294.7c37.4,45.1,80.6,84.9,127.9,118.9c12.8,9.1,25.9,17.9,39.3,26.2
									c158.2,98.1,354.7,133.9,537.7,83.5c56.8-15.6,112.3-39.6,165-72.5c3.4-44,5.1-90.7,5.1-140.2c0-25.9-0.6-52.5-1.6-79.9
									l-532.3-48l39.5-58.4c-1.7,1-40.1,22.9-100.9,52.9l-15.3-1.4c-0.9,3.4-1.7,6.8-2.6,10.2
									C1052,1219.3,959,1260.7,859.3,1294.7z"/>
							</g>
						</g>
					</g>
				</g>
				<g>
					<g>
						<g>
							<g>
								<path class="st0" d="M2072.7,1039.3c-390.4,807.5-1531,305.5-1240.9-508.2C1211.9-305,2390.4,215.1,2072.7,1039.3z"/>
							</g>
						</g>
					</g>
				</g>
				<g>
					<g>
						<g>
							<g>
								<path class="st1" d="M1467,1461.2c-91.1,0-183.4-18.5-271.5-55.4c-77.1-32.3-147-76.9-207.9-132.6
									c-62.8-57.5-113.1-124.5-149.4-198.9c-80.6-164.9-86.8-354.1-17.9-547.3l0.4-1c89.2-196.3,229-332.9,404.3-395.1
									c78.8-28,162.3-40.1,248.3-36.1c82.7,3.9,164.2,22.4,242.3,55.2c78.4,32.9,149.3,78.3,210.8,135.1
									c63.6,58.7,114.1,126.9,150.2,202.7c80.2,168.3,82.8,360.5,7.5,555.9l-0.4,0.9C1992,1234.4,1852,1366.3,1679,1426
									C1610.9,1449.5,1539.3,1461.2,1467,1461.2z M843.2,535.7c-148.2,416.2,83.6,731,361.7,847.4c82.9,34.7,173.4,54.1,265,54.1
									c223,0,452.1-114.8,591.5-402.8c162.2-421.6-70.4-742.3-355.4-861.8C1423.9,54.2,1033.6,117.4,843.2,535.7z M2072.7,1039.3
									L2072.7,1039.3L2072.7,1039.3z"/>
							</g>
						</g>
					</g>
				</g>
				<g class="st2">
					<g>
						<g>
							<g>
								<path class="st1" d="M2072.7,1039.2c-325.1,703.4-1326.4,431.9-1285.9-311.7c64.9,234,147.9,236.4,283.9,346.6
									c419.6,364,998.6,19.3,1033.2-468C2142.5,752.1,2129.8,904.5,2072.7,1039.2z"/>
							</g>
						</g>
					</g>
				</g>
				<g>
					<g>
						<g>
							<g>
								<path class="st6" d="M1467,1466.1c-91.8,0-184.7-18.7-273.4-55.8c-77.6-32.5-148-77.4-209.3-133.5
									c-63.3-58-113.9-125.4-150.6-200.3c-81.2-166.1-87.4-356.7-18.1-551.1l0.2-0.7l0.3-0.7c89.8-197.5,230.6-335.1,407.2-397.8
									c79.4-28.2,163.6-40.4,250.2-36.4c83.3,3.9,165.3,22.6,244,55.6c78.9,33.1,150.3,78.9,212.2,136.1
									c64.1,59.2,115,127.8,151.4,204.2c80.8,169.6,83.5,363.1,7.7,559.8l-0.3,0.7l-0.3,0.6c-92.3,191-233.3,323.8-407.6,383.9
									C1612,1454.3,1539.9,1466.1,1467,1466.1z M847.8,537.6c-146.9,413.1,83.1,725.5,359.1,841c282.5,118.2,654.8,57,850.1-346.2
									c160.9-418.4-70-736.7-352.7-855.3C1424.2,59.7,1036.9,122.4,847.8,537.6z M2072.7,1039.3L2072.7,1039.3L2072.7,1039.3z"/>
							</g>
						</g>
					</g>
				</g>
				<g>
					<g>
						<g>
							<g>
								<path class="st1" d="M1467,1466.1c-91.8,0-184.7-18.7-273.4-55.8c-77.6-32.5-148-77.4-209.3-133.5
									c-63.3-58-113.9-125.4-150.6-200.3c-81.2-166.1-87.4-356.7-18.1-551.1l0.2-0.7l0.3-0.7c89.8-197.5,230.6-335.1,407.2-397.8
									c79.4-28.2,163.6-40.4,250.2-36.4c83.3,3.9,165.3,22.6,244,55.6c78.9,33.1,150.3,78.9,212.2,136.1
									c64.1,59.2,115,127.8,151.4,204.2c80.8,169.6,83.5,363.1,7.7,559.8l-0.3,0.7l-0.3,0.6c-92.3,191-233.3,323.8-407.6,383.9
									C1612,1454.3,1539.9,1466.1,1467,1466.1z M847.8,537.6c-146.9,413.1,83.1,725.5,359.1,841c282.5,118.2,654.8,57,850.1-346.2
									c160.9-418.4-70-736.7-352.7-855.3C1424.2,59.7,1036.9,122.4,847.8,537.6z M2072.7,1039.3L2072.7,1039.3L2072.7,1039.3z"/>
							</g>
						</g>
					</g>
				</g>
				<g>
					<g>
						<g>
							<g>
								<path class="st1" d="M1986,1187.6c-614.1,493-1297.1-208.1-853.5-736C1665.4-109.4,2446.9,532.4,1986,1187.6z"/>
							</g>
						</g>
					</g>
				</g>
				<g>
					<g>
						<g>
							<g>
								<path class="st7" d="M2098.8,700.1c104.6,704-894.4,908.1-1095.7,280.1C1380.7,1312.8,1959.2,1068.2,2098.8,700.1z"/>
							</g>
						</g>
					</g>
				</g>
				<g>
					<g>
						<g>
							<g>
								<path class="st1" d="M1532.6,1440.1c-64.7,0-129.5-10.6-192.9-31.6c-70-23.2-135.1-58-193.7-103.4
									c-59.8-46.4-110-101.9-149.3-165c-41.3-66.4-69-139-82.4-215.9c-14.3-82.2-11.9-168.1,7.1-255.1l0.1-0.4
									c21.9-89.1,63.4-172.1,123.3-246.6c56.5-70.3,129.2-131.5,210.2-176.8c81.2-45.5,171.7-75.6,261.6-87
									c95.5-12.1,188.6-4,276.9,24.2l1.4,0.4l1.3,0.7c148.9,77.3,260.2,213.5,313.4,383.6c50.3,160.6,42.5,335.3-21.2,479.2
									l-0.1,0.1c-39.3,86.9-89.2,161.3-148.2,221.2c-55.3,56.1-118.4,99.3-187.7,128.6c-65.2,27.5-134.8,42.3-206.9,43.9
									C1541.2,1440.1,1536.9,1440.1,1532.6,1440.1z M955.1,676.6c-75.9,347.9,141.4,615.1,395.4,699.2
									c221.1,73.2,538.7,27.2,706.5-343.6c117.2-264.5,34.5-655.8-275.3-817.6c-163.1-51.6-348.8-29.6-509.8,60.5
									C1111.2,365.2,995.7,511.5,955.1,676.6z M2072.7,1039.3L2072.7,1039.3L2072.7,1039.3z"/>
							</g>
						</g>
					</g>
				</g>
				<g>
					<g>
						<g>
							<g>
								<path class="st1" d="M1550,1372.3c-11.2,0-22.3-0.3-33.5-0.9c-145.7-8.2-282.2-70.2-384.2-174.5
									c-94.2-96.3-150.3-220.6-158-349.9c-8.5-142.8,41.7-283.3,145.1-406.4l0.7-0.8c126-132.7,274.8-208.4,430.3-218.9
									c139.8-9.5,277.1,34.7,386.7,124.5c112.1,91.8,183.7,221.7,201.6,365.7c20,160.9-27.9,329.1-138.5,486.4l-1.4,2l-1.9,1.5
									C1856.7,1313.5,1702.9,1372.3,1550,1372.3z M1145.4,463.1c-217.7,259.4-151.1,543.3,11.5,709.7
									c179.1,183.2,500.8,254.9,816.4,2.9c231-330.2,132-648-58.1-803.7C1724,215.3,1411.9,182.8,1145.4,463.1z M1986,1187.6
									L1986,1187.6L1986,1187.6z"/>
							</g>
						</g>
					</g>
				</g>
				<g>
					<g>
						<g>
							<g>
								<path class="st0" d="M722.7,1022.2c87.2,304,399.2,242.3,345.2-56.4C988.3,643.9,654.8,709.9,722.7,1022.2z"/>
							</g>
						</g>
					</g>
				</g>
				<g class="st2">
					<g>
						<g>
							<g>
								<path class="st1" d="M951.7,1220.5c93.7-17.8,146.8-142.2,112.6-270.1c-41,144.4-214.6-61.5-233.3-124.6
									C596.9,919.4,780.4,1256.9,951.7,1220.5z"/>
							</g>
						</g>
					</g>
				</g>
				<g>
					<g>
						<g>
							<g>
								<path class="st1" d="M923.6,1239.5c-37.6,0-75.5-13.5-109.6-39.5c-48.7-37.1-86-96.9-107.8-173l-0.3-1.1
									c-16.2-74.4-11.5-141.3,13.6-193.4c23.2-48.1,62.2-80.6,109.9-91.7c24.5-5.7,49.8-5.4,75.3,0.9c26,6.5,50.7,18.9,73.6,37
									c49.8,39.4,86.6,102.7,106.4,183l0.2,1.1c12.9,71.4,6.4,135.3-18.6,184.8c-23.3,45.9-61.4,77.1-107.3,87.8
									C947.3,1238.1,935.5,1239.5,923.6,1239.5z M739.4,1018c43.2,150.2,140,200.6,211.7,183.9c35.9-8.4,65.9-33.2,84.5-69.9
									c21.6-42.7,27-98.9,15.6-162.6c-18-72.6-50.6-129.2-94.3-163.8c-37.3-29.5-79.8-40.7-119.7-31.4
									c-37.4,8.7-68.1,34.7-86.7,73.2C728.8,892.4,725,951.4,739.4,1018z"/>
							</g>
						</g>
					</g>
				</g>
				<g>
					<g>
						<g>
							<g>
								<path class="st0" d="M712.9,1041.2c70.9,246.3,305.4,204,261.8-37.6C910.7,739.4,655.8,785.7,712.9,1041.2z"/>
							</g>
						</g>
					</g>
				</g>
				<g>
					<g>
						<g>
							<g>
								<path class="st1" d="M871.1,1223.8c-30.3,0-61-11.8-88.8-34.5c-38.2-31.2-67.9-80.8-85.9-143.3l-0.3-1
									c-13.6-60.9-11.1-115.5,7.2-157.7c17.2-39.7,47.3-66.4,84.8-75.2c39.3-9.2,82.6,3.3,118.7,34.2
									c39.2,33.6,68.5,86.6,84.7,153.3l0.2,1c10.4,57.8,6.2,109.4-12.1,149.1c-17.4,37.6-46.7,62.8-82.4,71.2
									C888.5,1222.8,879.8,1223.8,871.1,1223.8z M729.5,1036.9c16.1,55.6,41.8,99,74.5,125.7c27.4,22.4,57.7,31.1,85.3,24.7
									c48.2-11.3,88.1-71.3,68.6-180.2c-30.2-123.8-104.3-175.1-162-161.6c-26.6,6.2-48.3,25.8-61,55.3
									C719.5,936.3,717.7,983.3,729.5,1036.9z"/>
							</g>
						</g>
					</g>
				</g>
				<g class="st8">
					<g>
						<g>
							<g>
								<path class="st0" d="M1110.5,827.6c52.7,122.3,192.6,64.6,164.9-48.8C1232.3,637.8,1066.3,703.1,1110.5,827.6z"/>
							</g>
						</g>
					</g>
				</g>
				<g class="st8">
					<g>
						<g>
							<g>
								<path class="st0" d="M1214,1016.9c22.9,45.6,84.5,21.5,64.3-30.3C1255.5,940.9,1193.8,965,1214,1016.9z"/>
							</g>
						</g>
					</g>
				</g>
				<g class="st8">
					<g>
						<g>
							<g>
								<path class="st0" d="M2036.3,764.3c22.1-508.3-502-508.5-645.3-383.3C1724.6,362.4,1896.5,548.4,2036.3,764.3z"/>
							</g>
						</g>
					</g>
				</g>
				<g class="st2">
					<g>
						<g>
							<g>
								<path class="st1" d="M994.5,1059c0.1-36.1-9.7-72.3-26.4-104.4c-23.5,175.6-203.9,122-258.9,5.1
									C703,1215.8,973.3,1301.2,994.5,1059z"/>
							</g>
						</g>
					</g>
				</g>
				<g>
					<g>
						<g>
							<g>
								<path class="st1" d="M1021.9,780.2c-7.9,0-17.5-2.4-29.1-9.2c-8.2-4.8-10.9-15.4-6.1-23.5c4.8-8.2,15.4-10.9,23.5-6.1
									c7.4,4.3,10.9,4.5,11.7,4.5c1.1-1.1,3.8-6.3,4.5-18.4c0.6-9.8-0.4-18.5-0.4-18.6c-1.2-9.4,5.5-18,15-19.2
									c9.4-1.2,18,5.5,19.2,15c0.1,0.5,1.5,12.4,0.6,25.9c-1.5,21.6-8.2,36.5-20.1,44.2C1036.2,777.7,1030,780.2,1021.9,780.2z"/>
							</g>
						</g>
					</g>
				</g>
			</g>
			<g>
				<g>
					<g>
						<g>
							<path class="st0" d="M459.9,1359.8c-104.8-29.8-186.2-24.5-196.4,3.4c-7.5,20.4-1.1,53.5,41.7,67.8
								c29.3,9.7,71.3,7.9,71.3,7.9s21.8,65.5,56.9,92.1"/>
						</g>
					</g>
				</g>
			</g>
			<g>
				<g>
					<g>
						<g>
							<path class="st1" d="M455.3,1376.1c-28.8-7.7-57.9-14.1-87.1-17.3c-14.6-1.7-29.1-2.6-43.4-2.2c-7.1,0.2-14.1,0.7-20.7,1.7
								c-6.6,1-13,2.5-18.1,4.7c-1.3,0.5-2.4,1.1-3.4,1.7c-1,0.6-1.9,1.2-2.5,1.7c-0.7,0.5-1.1,1-1.4,1.4c-0.1,0.1-0.2,0.2-0.2,0.3
								c-0.1,0.1-0.1,0.1-0.1,0.2c-0.1,0.1-0.1,0.1-0.1,0.2c0,0,0,0-0.1,0.1l-0.2,0.4c-1.7,4.5-2.3,9.9-1.6,15.1
								c0.7,5.2,2.7,10.2,5.7,14.7c3.1,4.5,7.4,8.6,12.5,11.9c10.3,6.8,23.6,10.7,37.8,13.1c7.1,1.2,14.3,2.1,21.7,2.7
								c3.7,0.3,7.3,0.5,11,0.7c1.8,0.1,3.7,0.1,5.5,0.2l2.7,0.1l2.6,0l9,0.1l2.4,7.8l0.9,3l1,3.1c0.7,2.1,1.4,4.2,2.2,6.2
								c1.5,4.2,3,8.3,4.6,12.4c3.2,8.3,6.6,16.4,10.3,24.5c3.7,8,7.7,15.9,12.2,23.5c0.5,1,1.1,1.9,1.7,2.8
								c0.6,0.9,1.2,1.9,1.8,2.8l1.8,2.8l1.9,2.7c2.6,3.6,5.4,7.2,8.4,10.6l0,0c0.5,0.6,0.5,1.5-0.1,2c-0.5,0.4-1.1,0.5-1.6,0.2
								c-8.5-4.3-16-10.4-22.7-17.2c-6.7-6.8-12.6-14.3-18-22.1c-1.3-1.9-2.6-3.9-3.9-5.9c-1.2-2-2.5-4-3.7-6
								c-2.4-4-4.7-8.2-6.9-12.4c-2.2-4.2-4.2-8.4-6.2-12.7c-1-2.2-1.9-4.3-2.8-6.5l-1.4-3.3c-0.5-1.1-0.9-2.2-1.3-3.5l11.4,7.8
								l-3.1,0.2l-3,0.1c-2,0.1-4,0.1-6,0.2c-4,0.1-7.9,0.1-11.9,0c-8-0.2-16-0.6-24-1.5c-8.1-0.9-16.2-2.2-24.5-4.5
								c-4.2-1.1-8.3-2.5-12.4-4.1c-4.1-1.7-8.2-3.6-12.1-5.9c-7.9-4.6-15.4-10.8-21.4-18.6c-6-7.8-10.3-17.2-12-27.1
								c-0.9-5-1.2-10-0.9-15.1c0.3-5.1,1.2-10.1,2.9-15.1l0.3-0.9c0.1-0.4,0.3-0.8,0.5-1.2c0.3-0.8,0.7-1.7,1.1-2.4
								c0.4-0.8,0.8-1.6,1.2-2.3c0.4-0.8,0.9-1.5,1.4-2.2c1.9-2.8,4.1-5.1,6.3-7.1c2.2-2,4.5-3.6,6.7-5c2.3-1.4,4.5-2.6,6.7-3.7
								c8.9-4.2,17.5-6.3,25.9-7.9c8.4-1.6,16.7-2.4,24.9-2.8c16.4-0.8,32.4-0.1,48.3,1.5c31.7,3.3,62.6,9.8,92.7,18.8
								c9,2.7,14.1,12.1,11.4,21.1C473.3,1373.4,464.2,1378.4,455.3,1376.1L455.3,1376.1z"/>
						</g>
					</g>
				</g>
			</g>
			<g>
				<g>
					<g>
						<g>
							<path class="st1" d="M679,1681.6c-4.1,0-8.1-1.6-11.1-4.9c-5.6-6.1-5.2-15.6,0.9-21.2c46-42.1,59.4-103.9,39.7-183.8
								c-15.2-61.9-45.5-111.5-45.8-112c-4.3-7.1-2.1-16.3,4.9-20.6c7.1-4.3,16.3-2.1,20.6,4.9c1.3,2.2,32.7,53.6,49.2,119.8
								c9.8,39.5,12.2,76.2,7.1,108.9c-6.5,41.9-25.2,77.2-55.6,104.9C686.2,1680.3,682.6,1681.6,679,1681.6z"/>
						</g>
					</g>
				</g>
			</g>
			<g>
				<g>
					<g>
						<g>
							<path class="st1" d="M209.4,1378.7c2.6,1.9,5.2,3.8,7.6,5.9c2.5,2,5,3.8,7.4,5.8c1.2,1,2.4,1.9,3.7,2.8l3.7,2.8
								c1.2,1,2.5,1.8,3.7,2.7c1.2,0.9,2.4,1.8,3.7,2.7c5,3.4,10.1,6.7,15.5,9.9c2.7,1.6,5.5,3.2,8.3,4.8l8.7,4.8
								c11.9,6.4,24,13.5,35.5,21.3c2.8,2,5.7,4,8.5,6c2.8,2,5.5,4.2,8.2,6.3l4.1,3.2c1.3,1.1,2.6,2.3,3.9,3.4
								c2.6,2.2,5.2,4.5,7.7,6.9c0.9,0.8,0.9,2.2,0.1,3.1c-0.6,0.6-1.5,0.9-2.3,0.6l-0.1,0c-6.6-2.1-12.9-4.6-19.3-6.8l-9.5-3.4
								c-3.2-1.1-6.3-2.2-9.5-3.3c-12.7-4.3-25.2-8.2-38.1-12.4c-3.3-1.1-6.5-2.1-9.8-3.3l-5-1.8c-1.7-0.6-3.3-1.3-5-2l-2.5-1
								c-0.8-0.3-1.7-0.7-2.5-1.1l-5-2.4c-1.7-0.8-3.3-1.7-4.9-2.6c-1.6-0.9-3.2-1.8-4.9-2.8c-1.6-1-3.1-2-4.7-3.1l-2.3-1.6
								c-0.8-0.5-1.5-1-2.3-1.6c-2.9-2.3-5.9-4.5-8.6-6.9c-1.3-1.2-2.7-2.4-4-3.7c-1.3-1.2-2.7-2.5-3.9-3.8c-2.5-2.6-4.9-5.2-7.2-8
								c-5.4-6.4-4.5-15.9,1.8-21.2c5.4-4.5,13-4.6,18.4-0.8L209.4,1378.7z"/>
						</g>
					</g>
				</g>
			</g>
			<g>
				<g>
					<g>
						<g>
							<path class="st1" d="M199.3,1478c3,2.4,5.7,4.3,8.9,6.1c3.2,1.8,6.9,3.4,11.1,5c8.5,3.1,18.7,6,29.3,9.5
								c10.8,3.6,21.1,7.9,31.1,12.8c10,4.9,19.7,10.4,28.9,16.9c1,0.7,1.2,2.1,0.5,3.1c-0.5,0.7-1.2,1-2,0.9l0,0
								c-11-1-21.8-2.3-32.5-3.6c-10.7-1.3-21.2-2.5-31.6-3.4c-10.5-1-21.6-1.6-33.7-5.2c-6-1.8-12.3-4.3-18.3-8.2
								c-5.9-3.9-11.4-9.1-15.2-15.2c-4.4-7.1-2.1-16.4,5-20.7c5.6-3.4,12.4-2.8,17.3,1L199.3,1478z"/>
						</g>
					</g>
				</g>
			</g>
			<g>
				<g>
					<g>
						<g>
							<path class="st1" d="M346.3,1738.7c-2.2,13.8-3,27.6-3.1,41.4c0,3.4,0,6.9,0.1,10.3l0.4,10.3l0.8,10.2
								c0.1,1.7,0.3,3.4,0.5,5.1l0.6,5.1l0.6,5l0.8,5c0.6,3.3,1.1,6.7,1.7,10c1.5,6.6,2.7,13.2,4.6,19.6c3.2,13,7.9,25.4,12.8,37.5
								l0.2,0.5c3.5,8.7-0.7,18.7-9.4,22.2c-8.7,3.5-18.7-0.7-22.2-9.4c-0.4-1-0.7-2.2-1-3.3c-2.7-14.6-4.9-29.1-5.6-43.6
								c-0.6-7.2-0.5-14.5-0.6-21.7c0-3.6,0.2-7.2,0.4-10.8l0.2-5.4l0.4-5.4l0.4-5.3c0.1-1.8,0.3-3.6,0.5-5.3l1.3-10.6l1.7-10.5
								c0.6-3.5,1.3-7,2-10.4C337.7,1765.4,341.4,1751.8,346.3,1738.7z"/>
						</g>
					</g>
				</g>
			</g>
		</g>
	</g>
</g>
</svg>
