<?xml version="1.0" encoding="utf-8"?>
<!-- Generator: Adobe Illustrator 24.0.1, SVG Export Plug-In . SVG Version: 6.00 Build 0)  -->
<svg version="1.1" xmlns="http://www.w3.org/2000/svg" xmlns:xlink="http://www.w3.org/1999/xlink" x="0px" y="0px"
	 viewBox="0 0 707.6 100.6" fill="#adbac7"  xml:space="preserve">
<g id="Camada_2">
	<g>
		<path d="M47.1,30.7l8.6,46.9h-8.9l-4.8-26.1l-4.8,26.1h-8.9L37.6,27h5.2c0.7,0,1.4,0.2,2,0.5l0,0c0.5,0.3,0.9,0.6,1.3,1.1l0,0v0
			c0.4,0.5,0.8,1.2,0.9,1.9L47.1,30.7z"/>
		<path d="M88.6,37.1l0,6.9l-4.4,0c-1.2,0-2.3-0.5-3.1-1.3c-0.8-0.8-1.3-1.9-1.3-3.1l0-2.5c0-0.7-0.6-1.3-1.3-1.3l-7.4,0
			c0,0,0,0,0,0c-0.3,0-0.7,0.1-0.9,0.4c-0.2,0.2-0.4,0.6-0.4,0.9l0,3.2c0,0.6,0.2,1.1,0.6,1.6l16.7,16.8c0.8,0.8,1.3,1.9,1.3,3.1
			l0,5.9c0,1.3-0.2,2.5-0.7,3.7c-1.5,3.8-5.2,6.3-9.3,6.3c0,0,0,0,0,0l-7.4,0c-5.5,0-10-4.5-10-10.1l0-6.9l4.4,0
			c1.2,0,2.3,0.5,3.1,1.3c0.8,0.8,1.3,1.9,1.3,3.1l0,2.5c0,0.7,0.6,1.3,1.3,1.3l7.4,0c0.3,0,0.7-0.1,0.9-0.4
			c0.2-0.2,0.4-0.6,0.4-0.9l0-3.2c0-0.6-0.2-1.1-0.6-1.6L62.5,46.1c0,0-0.1-0.1-0.1-0.1c-0.8-0.8-1.2-1.9-1.2-3l0-5.9
			c0-1.3,0.2-2.5,0.7-3.7c1.5-3.8,5.2-6.3,9.3-6.3l7.4,0C84.1,27.1,88.6,31.6,88.6,37.1z"/>
		<path d="M113.3,27h9.3v4.4c0,1.7-1,3.2-2.5,4c-0.5,0.2-1.1,0.4-1.6,0.4h0h-5.1v41.8h-8.7V35.8h-9.4v-4.4c0-2.4,2-4.4,4.4-4.4h5v0
			L113.3,27L113.3,27z"/>
		<path d="M157.1,37.1v15.6c0,2-0.6,4-1.8,5.7c1.1,1.7,1.8,3.6,1.8,5.7v13.6h-4.4c-2.4,0-4.4-2-4.4-4.4V64c0-0.7-0.6-1.3-1.3-1.3
			h-8.7v14.9h-8.7V27h8.7v0h1.3l7.4,0C152.6,27,157.1,31.5,157.1,37.1z M138.4,54h8.7c0.7,0,1.3-0.6,1.3-1.3V37.1
			c0-0.7-0.6-1.3-1.3-1.3h-8.7V54z"/>
		<path d="M191.7,37.1v30.5c0,5.5-4.5,10-10,10l-7.4,0c-5.5,0-10-4.5-10-10V37.1c0-5.5,4.5-10,10-10l7.4,0
			C187.2,27,191.7,31.5,191.7,37.1z M183,37.1c0-0.7-0.6-1.3-1.3-1.3h-7.4c-0.7,0-1.3,0.6-1.3,1.3v30.5c0,0.7,0.6,1.3,1.3,1.3l7.4,0
			c0.7,0,1.3-0.6,1.3-1.3V37.1z"/>
		<path d="M217.6,27h8.7v50.5h-8.7v-5.8l-9.9-21v26.8h-8.7V27h4.4c0.4,0,0.8,0.1,1.2,0.2c0.3,0.1,0.6,0.2,0.8,0.3
			c0.1,0,0.2,0.1,0.3,0.2c0.2,0.1,0.3,0.2,0.5,0.4c0,0,0,0,0,0c0,0,0,0,0,0c0.1,0.1,0.2,0.1,0.2,0.2c0.1,0.1,0.3,0.3,0.4,0.5
			c0.2,0.2,0.4,0.5,0.5,0.8l10.4,21.8V27z"/>
		<path d="M252.3,30.7l8.6,46.9H252l-4.8-26.1l-4.8,26.1h-8.9l9.3-50.5h5.2c0.7,0,1.4,0.2,2,0.5l0,0c0.5,0.3,0.9,0.6,1.3,1.1l0,0v0
			c0.4,0.5,0.8,1.2,0.9,1.9L252.3,30.7z"/>
		<path d="M285,27h8.7v40.5c0,5.5-4.5,10-10,10l-7.4,0c-5.5,0-10-4.5-10-10V27h4.4c2.4,0,4.4,2,4.4,4.4v36.1c0,0.7,0.6,1.3,1.3,1.3
			l7.4,0c0.7,0,1.3-0.6,1.3-1.3V27z"/>
		<path d="M319.1,27h9.3v4.4c0,1.7-1,3.2-2.5,4c-0.5,0.2-1.1,0.4-1.6,0.4h0h-5.1v41.8h-8.7V35.8H301v-4.4c0-2.4,2-4.4,4.4-4.4h5v0
			L319.1,27L319.1,27z"/>
		<path class="none" d="M380.4,73.2v4.4h-4.3c0,0-0.1,0-0.1,0c0,0-0.1,0-0.1,0h-14.2v0H353V27h8.7v41.8h14.3C378.5,68.8,380.4,70.8,380.4,73.2z"
			/>
		<path class="none" d="M396.4,31.1L396.4,31.1v46.4H392c-2.4,0-4.4-2-4.4-4.4V27h4.4c1.7,0,3.2,1,4,2.5C396.2,30,396.4,30.6,396.4,31.1z"/>
		<path class="none" d="M431,37.1v9.6c0,2.1-0.6,4-1.8,5.7c1.1,1.6,1.8,3.6,1.8,5.7v9.6c0,5.5-4.5,10-10,10h-8.7h-3.8l-4.9,0V27h8.7v0h1.3l7.4,0
			C426.5,27,431,31.5,431,37.1z M412.3,47.9h8.7c0.7,0,1.3-0.6,1.3-1.3v-9.6c0-0.7-0.6-1.3-1.3-1.3h-8.7V47.9z M412.3,56.7v12.2h8.7
			c0.7,0,1.3-0.6,1.3-1.3V58c0-0.7-0.6-1.3-1.3-1.3H412.3z"/>
		<path class="none" d="M465.6,37.1v15.6c0,2-0.6,4-1.8,5.7c1.1,1.7,1.8,3.6,1.8,5.7v13.6h-4.4c-2.4,0-4.4-2-4.4-4.4V64c0-0.7-0.6-1.3-1.3-1.3
			h-8.7v14.9h-8.7V27h8.7v0h1.3l7.4,0C461.1,27,465.6,31.5,465.6,37.1z M446.9,54h8.7c0.7,0,1.3-0.6,1.3-1.3V37.1
			c0-0.7-0.6-1.3-1.3-1.3h-8.7V54z"/>
		<path class="none" d="M491.6,30.7l8.6,46.9h-8.9l-4.8-26.1l-4.8,26.1h-8.9l9.3-50.5h5.2c0.7,0,1.4,0.2,2,0.5l0,0c0.5,0.3,0.9,0.6,1.3,1.1l0,0v0
			c0.4,0.5,0.8,1.2,0.9,1.9L491.6,30.7z"/>
		<path class="none" d="M534.8,37.1v15.6c0,2-0.6,4-1.8,5.7c1.1,1.7,1.8,3.6,1.8,5.7v13.6h-4.4c-2.4,0-4.4-2-4.4-4.4V64c0-0.7-0.6-1.3-1.3-1.3
			h-8.7v14.9h-8.7V27h8.7v0h1.3l7.4,0C530.3,27,534.8,31.5,534.8,37.1z M516.1,54h8.7c0.7,0,1.3-0.6,1.3-1.3V37.1
			c0-0.7-0.6-1.3-1.3-1.3h-8.7V54z"/>
		<path  class="none" d="M549.5,67.8L540.2,27h5.5c2,0,3.7,1.3,4.2,3.3l0,0.2l4,17.5l4.8-21h9l-9.4,41.2v9.3h-8.7v-9.3L549.5,67.8z"/>
		<path d="M592.5,73.7c0-2.7,1.8-4.5,4.3-4.5c2.5,0,4.2,1.9,4.2,4.5c0,2.6-1.7,4.5-4.3,4.5C594.2,78.2,592.5,76.3,592.5,73.7z"/>
		<path d="M630.3,27h4.4v40.5c0,5.5-4.5,10-10,10l-7.4,0c-5.5,0-10-4.5-10-10v-6.9h4.4c2.4,0,4.4,2,4.4,4.4v2.5
			c0,0.7,0.6,1.3,1.3,1.3l7.4,0c0.7,0,1.3-0.6,1.3-1.3V31.4C625.9,29,627.9,27,630.3,27z"/>
		<path d="M669.4,37.1l0,6.9l-4.4,0c-1.2,0-2.3-0.5-3.1-1.3c-0.8-0.8-1.3-1.9-1.3-3.1l0-2.5c0-0.7-0.6-1.3-1.3-1.3l-7.4,0
			c0,0,0,0,0,0c-0.3,0-0.7,0.1-0.9,0.4c-0.2,0.2-0.4,0.6-0.4,0.9l0,3.2c0,0.6,0.2,1.1,0.6,1.6L668,58.6c0.8,0.8,1.3,1.9,1.3,3.1
			l0,5.9c0,1.3-0.2,2.5-0.7,3.7c-1.5,3.8-5.2,6.3-9.3,6.3c0,0,0,0,0,0l-7.4,0c-5.5,0-10-4.5-10-10.1l0-6.9l4.4,0
			c1.2,0,2.3,0.5,3.1,1.3c0.8,0.8,1.3,1.9,1.3,3.1l0,2.5c0,0.7,0.6,1.3,1.3,1.3l7.4,0c0.3,0,0.7-0.1,0.9-0.4
			c0.2-0.2,0.4-0.6,0.4-0.9l0-3.2c0-0.6-0.2-1.1-0.6-1.6l-16.7-16.7c0,0-0.1-0.1-0.1-0.1c-0.8-0.8-1.2-1.9-1.2-3l0-5.9
			c0-1.3,0.2-2.5,0.7-3.7c1.5-3.8,5.2-6.3,9.3-6.3l7.4,0C664.9,27.1,669.4,31.6,669.4,37.1z"/>
	</g>
</g>
</svg>
