<?xml version="1.0" encoding="utf-8"?>
<!-- Generator: Adobe Illustrator 24.0.1, SVG Export Plug-In . SVG Version: 6.00 Build 0)  -->
<svg version="1.1" id="Layer_1" xmlns="http://www.w3.org/2000/svg" xmlns:xlink="http://www.w3.org/1999/xlink" x="0px" y="0px"
	 viewBox="0 0 2727.2 3386.8" style="enable-background:new 0 0 2727.2 3386.8;" xml:space="preserve">
<style type="text/css">
	.st0{fill:#FFB200;}
	.st1{fill:#D66B09;}
	.st2{fill:#371A45;}
	.st3{fill:#FFC536;}
	.st4{fill:#FF9100;}
	.st5{fill:#FFEC90;}
	.st6{opacity:0.41;}
	.st7{fill:#fff;}
	.st8{opacity:0.3;}
	.st9{fill:#6B184E;}
	.st10{opacity:0.35;}
	.st11{fill:#22A7F0;}
	.st12{opacity:0.7;}
	.st13{opacity:0.5;}
	.st14{fill:#111A28;}
</style>
<g>
	<g>
		<g>
			<g>
				<g>
					<path class="st0" d="M2124.9,2160.9c12.2,33.3,22.2,66.9,30.1,100.7c-144.7,100.5-425.9,235.5-759,357.8
						c-333.1,122.3-634.9,201.4-810.2,218.3c-15.9-30.8-30-62.9-42.2-96.2c-0.6-1.6-1.1-3.1-1.7-4.7c-5.3-14.7-10.2-29.5-14.6-44.3
						c-10.4-34.7-18.5-69.5-24.3-104.4c-0.2-1.4-0.5-2.8-0.7-4.2c-8.3-51.9-11.7-103.7-10.3-155.1c2.6-97.7,22.3-193.3,57.2-282.8
						c84.6-217.4,258.6-398.8,494.8-485.5c234.3-86,482.2-61.4,686.4,47.3c83.8,44.6,160.3,103.4,225.5,174.6
						c34.9,38,66.5,79.6,94.2,124.5c2.3,3.6,4.5,7.2,6.6,10.9c18.2,30.3,34.6,62.1,49.1,95.3c5.4,12.3,10.5,24.8,15.3,37.5
						C2122.3,2153.9,2123.6,2157.4,2124.9,2160.9z"/>
				</g>
			</g>
			<g>
				<g>
					<path class="st0" d="M2165.4,2588.5c-5.6,34-13.3,67.6-23.1,100.5c-13.6,46.3-31.2,91.2-52.5,134.4
						c-92.2,187.3-253.8,340.9-465.3,418.5c-211.9,77.8-435,65.1-626.8-18.5c-42.1-18.4-82.7-40.2-121.4-65.2
						c-30.3-19.6-59.4-41.1-87-64.5c209.8-36.8,454.1-103,708.7-196.5C1752.5,2803.8,1981.6,2696.2,2165.4,2588.5z"/>
				</g>
			</g>
			<g>
				<g>
					<path class="st1" d="M1497.9,2897.3c254.6-93.5,483.6-201.1,667.4-308.8c-5.6,34-13.3,67.6-23.1,100.5
						c-141.8,88-365.8,193.1-624.6,288.1c-247.9,91-477.4,154.3-641.4,181.2c-30.3-19.6-59.4-41.1-87-64.5
						C999.1,3057,1243.3,2990.8,1497.9,2897.3z"/>
				</g>
			</g>
			<g>
				<g>
					<path class="st1" d="M2121,2150.5c1.3,3.5,2.6,6.9,3.9,10.4c12.2,33.3,22.2,66.9,30.1,100.7
						c-144.7,100.5-425.9,235.5-759,357.8c-333.1,122.3-634.9,201.4-810.2,218.3c-15.9-30.8-30-62.9-42.2-96.2
						c-0.6-1.6-1.1-3.1-1.7-4.7c165.6-6.2,472.4-81.6,812-206.2C1706.7,2401.1,1998.3,2253.7,2121,2150.5z"/>
				</g>
			</g>
			<g>
				<g>
					<g>
						<path class="st1" d="M488.4,2457.1l7.1-56.3c114.1,14.3,420.5-59,745.2-178.2c387.4-142.2,641.4-287.2,692.2-356.8l45.9,33.4
							c-67.2,92.2-355.9,243.6-718.5,376.7C922.6,2399.8,612.4,2472.6,488.4,2457.1z"/>
					</g>
				</g>
			</g>
			<g>
				<g>
					<g>
						<path class="st1" d="M551.2,2174.4l-4.2-56.6c130.2-9.7,359-70.1,597.3-157.6c249.7-91.7,467.6-197,568.7-274.8l34.6,45
							c-105.3,81.1-329,189.6-583.7,283.1C920.9,2102.6,686.2,2164.3,551.2,2174.4z"/>
					</g>
				</g>
			</g>
			<g>
				<g>
					<g>
						<path class="st1" d="M500,2612.3l4.4-56.6c131.3,10.2,448.1-66.8,788.1-191.7c356.7-131,659.3-285.4,735.8-375.5l43.3,36.7
							c-83.5,98.4-388.7,256-759.5,392.1C959.7,2546.7,640.9,2623.2,500,2612.3z"/>
					</g>
				</g>
			</g>
			<g>
				<g>
					<g>
						<path class="st1" d="M997.6,3237.6l0-14.2l-5.7-13l2.7-1.2l3,0c114.2,0.1,336-54.1,564.9-138.2
							c230.2-84.5,428.7-183.6,518.1-258.5l18.2,21.8c-91.7,76.9-293.5,177.8-526.5,263.4C1337,3184.1,1116.7,3237.8,997.6,3237.6z"
							/>
					</g>
				</g>
			</g>
			<g>
				<g>
					<path class="st2" d="M1334.9,3313.3c-201.4,0-400.3-70.4-558.6-204.3l-32.6-27.6l42.1-7.4c216.2-37.9,460.1-105.5,705.3-195.5
						c245.2-90,474.9-196.3,664.2-307.3l36.8-21.6l-7,42.1c-50.7,305.9-262.9,562.2-553.7,668.9
						C1535.1,3296.1,1434.6,3313.3,1334.9,3313.3z M835.9,3105.6c222.4,169,518,214.4,781.7,117.6
						c263.7-96.8,459.7-322.7,519.8-595.5c-183.7,104.2-401.4,203.5-632.6,288.4C1273.6,3001,1043.4,3066.1,835.9,3105.6z"/>
				</g>
			</g>
			<g>
				<g>
					<path class="st3" d="M2614.6,2108.2c42.5,115.8-138.9,298.3-449.3,480.3c-183.8,107.7-412.8,215.3-667.4,308.8
						c-254.6,93.5-498.9,159.7-708.7,196.5c-354.4,62.1-610.8,40.4-653.3-75.4c-38.6-105.2,107.4-265.3,366.9-430.1
						c5.8,34.9,13.9,69.7,24.3,104.4c-72.1,50.7-108.9,92.4-99.1,119c9.9,27.1,66.9,34.9,157.6,26.2c175.4-17,477.2-96,810.2-218.3
						c333.1-122.3,614.3-257.3,759-357.8c74.8-52,113.2-94.9,103.2-121.9c-9.8-26.6-64.8-34.6-152.5-26.6
						c-14.5-33.2-30.9-65-49.1-95.3C2361.1,1975.4,2576,2003,2614.6,2108.2z"/>
				</g>
			</g>
			<g>
				<g>
					<path class="st4" d="M503.9,2636.1l6.4,9.5c-64.6,42.6-115,81.3-153.3,115.7C386.5,2724.3,435.3,2682.8,503.9,2636.1z"/>
				</g>
			</g>
			<g>
				<g>
					<path class="st4" d="M516.8,2655l-6.5-9.4c1.1-0.8,2.4-1.6,3.6-2.3L516.8,2655z"/>
				</g>
			</g>
			<g>
				<g>
					<path class="st5" d="M2368,2113.1c-10.7-29-39.6-48.2-87.6-57.8c-46.4-9.2-110.7-9.3-193.6-0.4l1.2,11.4l3.7,34.4
						c158.1-16.9,224,3.5,233.2,28.3c15.2,41.5-95.1,152.7-373.4,298.5c-155.5,81.5-342.2,163-539.6,235.5
						c-116.1,42.6-231.5,80.5-341.6,112.2c-77.1,22.3-151.6,41.6-222.1,57.4c-306.6,68.9-462.6,55.5-477.8,13.9
						c-8.9-24.3,26.7-81,152.7-167.9c2.2-1.5,4.4-3.1,6.7-4.6l-12.9-19l-6.5-9.4l-6.4-9.5c-68.6,46.7-117.4,88.2-146.8,125.3
						c-30.8,38.5-40.5,72-29.9,101.1c10.4,28.3,38.7,45.9,79.1,55.6c105.2,25.1,291.8-4.5,451.9-40.5
						c72.5-16.3,149.2-36.2,228.4-59.1c110.1-31.8,225.2-69.7,341.1-112.2c199.3-73.2,387.8-155.5,545.2-237.9
						C2173.8,2362.8,2405.6,2215.6,2368,2113.1z"/>
				</g>
			</g>
			<g>
				<g>
					<path class="st5" d="M2508.1,2102.1c-39.5-107.4-260.4-102.7-438.8-79.8l5.8,45.6c4.3-0.5,8.6-1.1,12.9-1.6
						c77.1-9.4,140.7-12.5,192.4-11c117.4,3.6,172.9,31.1,184.6,62.6c20.9,57-73.7,189.9-409.3,376.9
						c-173.5,96.7-382.7,191-605.3,272.7c-101.8,37.3-203.2,70.9-301.8,100c-117.2,34.7-230.5,62.9-336.2,83.9
						c-376.9,74.6-535,34.5-555.9-22.5c-11.6-31.7,13.1-88.7,100.7-167.5c38.3-34.5,88.6-73.1,153.3-115.7c1.1-0.8,2.3-1.6,3.6-2.3
						c2.4-1.6,4.8-3.1,7.2-4.8l-12.5-19.2l-12.6-19.4c-150.8,98-322.4,237.3-282.8,344.7c15.3,41.6,57.1,66.6,113.9,80.2
						c133.8,31.8,350.1,0.1,494-28.4c126.3-25,263.3-60.4,404.5-104.3c79.2-24.6,159.6-51.8,240.4-81.5
						c224.8-82.5,436.4-177.9,611.9-275.7C2260.6,2433.2,2559.3,2241.7,2508.1,2102.1z"/>
				</g>
			</g>
			<g>
				<g>
					<path class="st2" d="M448.5,3147.9c-185.2,0-301.6-41.7-331.4-122.7c-41.4-112.8,91.7-274,375-453.9l25.5-16.2l5,29.8
						c5.7,34.3,13.7,68.6,23.7,101.9l4.2,13.8l-11.8,8.3c-99.8,70.1-91.9,95.5-91.8,95.7c0.1,0.3,10.8,25.3,136.9,13.1
						c179-17.3,487.6-100.6,805.3-217.2c317.7-116.6,606.8-252.9,754.5-355.5c104-72.3,95.9-98.4,95.9-98.6
						c-0.1-0.2-10.5-24.7-131.9-13.6l-14.4,1.3l-5.8-13.2c-13.9-31.9-30-63.2-47.9-93l-15.5-25.9l29.9-4.2
						c332.3-46.2,538.2-9.4,579.6,103.4l0,0c45.3,123.4-121.6,307.3-457.9,504.4c-191.4,112.2-423.3,219.5-670.6,310.3
						c-247.4,90.8-493.6,159.1-712.1,197.4C660.9,3136.6,545.3,3147.9,448.5,3147.9z M488.6,2621.2
						c-241.6,157.7-366.1,302.6-333.9,390.2c36.9,100.4,278.7,124.4,631.1,62.6c216.2-37.9,460.1-105.5,705.3-195.5
						c245.2-90,474.9-196.3,664.2-307.3c308.7-180.9,477.5-355.7,440.6-456.1c-32.2-87.6-220.9-117.6-507.1-81.5
						c10.5,19,20.3,38.5,29.3,58.3c95.4-7.1,146,5.9,158.8,40.8c13.6,37.2-21.5,83.3-110.6,145.3c-152.6,106-438,240.7-763.5,360.2
						c-325.5,119.5-630.3,201.6-815.2,219.5c-108,10.4-164.7-2-178.3-39.2c-12.8-34.9,17.3-77.6,94.7-133.9
						C498.1,2663.7,492.9,2642.5,488.6,2621.2z"/>
				</g>
			</g>
			<g class="st6">
				<g>
					<g>
						<path class="st7" d="M2154.9,2264.5c-16.8,11.7-35.5,23.8-55.9,36.4c-6.2-22.7-13.5-45.3-21.7-67.7c-1.3-3.5-2.6-6.9-3.9-10.4
							c-4.8-12.7-9.9-25.2-15.3-37.5c-14.5-33.2-30.9-65-49-95.3c-2.2-3.6-4.4-7.3-6.7-10.9c-27.8-44.8-59.4-86.5-94.3-124.5
							c-65.2-71.1-141.6-130-225.5-174.5c-204.2-108.7-452.1-133.4-686.4-47.3c-156.4,57.4-285.5,156.4-379.5,279.8
							c95.6-155.6,242.3-281.4,427.1-349.2c234.3-86,482.2-61.4,686.4,47.3c83.8,44.6,160.3,103.4,225.5,174.6
							c34.8,38,66.5,79.6,94.2,124.4c2.3,3.6,4.5,7.3,6.6,10.9c18.2,30.4,34.6,62.1,49,95.3c5.4,12.3,10.5,24.8,15.3,37.5
							c1.4,3.5,2.7,6.9,3.9,10.4C2137.1,2197.1,2147.1,2230.7,2154.9,2264.5z"/>
					</g>
				</g>
			</g>
			<g>
				<g>
					<path class="st2" d="M574.1,2859l-6.2-12c-16.3-31.6-30.8-64.7-43.2-98.5c-6.1-16.6-11.7-33.4-16.7-50.1
						c-10.5-34.9-18.9-70.9-24.8-106.9c-67.6-407.7,165.3-807.1,553.8-949.7c388.5-142.6,824.6,11.2,1036.8,365.7
						c18.7,31.3,35.6,64.1,50.2,97.6c7,15.9,13.6,32.4,19.7,49l0,0c12.4,33.8,22.7,68.4,30.8,103l3.1,13.2l-11.1,7.7
						c-152.6,106-438,240.7-763.5,360.2c-325.5,119.5-630.3,201.6-815.2,219.5L574.1,2859z M1333.9,1628.8
						c-94.5,0-190.3,16.3-283.2,50.4c-370.5,136-592.6,516.9-528.1,905.6c5.7,34.3,13.7,68.6,23.7,101.9c4.8,15.9,10.1,32,15.9,47.8
						c10.2,27.9,22,55.3,35.1,81.8c180.8-20.1,481.9-102.1,791.7-215.8c309.8-113.7,592.4-246.1,743.2-347.8
						c-7.1-28.6-15.9-57.2-26.2-85.1l0,0c-5.8-15.8-12.1-31.5-18.8-46.7c-13.9-31.9-30-63.2-47.9-93.1
						C1887.8,1774.7,1616.3,1628.8,1333.9,1628.8z"/>
				</g>
			</g>
			<g>
				<g class="st8">
					<g>
						<path class="st2" d="M1118.8,2713.7L1118.8,2713.7c-218.9,68.3-408.1,112-533.1,124.1c-90.8,8.8-147.7,0.9-157.6-26.2
							c-9.8-26.6,27-68.3,99.1-119c-6-19.9-11.1-39.9-15.5-59.9c0,0,0,0,0,0c-234.2,155.5-363.2,304.3-326.6,403.9
							c10.6,28.8,34.5,51.9,69.8,69.2c-3.3-1-6.6-2-9.8-3c114.7,36.4,307.6,32.4,544.3-9.1c209.8-36.8,454.1-103,708.7-196.5
							c19.7-7.2,39.3-14.6,58.7-22C842,3028.9,1118.8,2713.7,1118.8,2713.7z"/>
					</g>
				</g>
			</g>
			<g class="st8">
				<g>
					<path class="st2" d="M1138.8,2597.6c252.6-3.4,780.1-224.6,998.3-323.9c6.1-4.1,12.1-8.1,17.8-12.1
						c-5.4-23.1,12.1-4.7,4.7-27.5c-137.6,67-782.1,353.6-1069.9,357.4c-12.6,0.2-25.2-0.2-37.7-1.1
						C1080.4,2595.5,1109.6,2598,1138.8,2597.6z"/>
				</g>
			</g>
			<g>
				<g class="st8">
					<g>
						<path class="st2" d="M2159.6,2234.1c-137.6,67-782.1,353.6-1069.9,357.4c-151,2-301.7-70.4-333.3-218c-0.6-2.7-1-5-1.3-6.9
							c-0.2-1.4-0.5-2.8-0.7-4.3c-8.3-51.8-11.7-103.7-10.3-155c2.6-97.7,22.3-193.3,57.2-282.9c17.9-45.9,39.8-90.3,65.4-132.5
							c-121.9,94.6-213.9,219.8-268.6,360.3c-34.8,89.6-54.5,185.2-57.2,282.9c-1.4,51.3,2,103.2,10.3,155.1
							c0.2,1.4,0.4,2.8,0.7,4.2c5.8,34.9,13.9,69.8,24.3,104.4c4.4,14.8,9.3,29.5,14.6,44.3c0.6,1.6,1.1,3.1,1.7,4.7
							c10.8,29.3,23.1,57.6,36.6,84.9c-7.1,1-14.1,1.9-21,2.7c178-21.2,468.5-98.7,787.8-215.9c333.1-122.3,614.3-257.3,759-357.9
							C2149.6,2238.5,2167,2256.9,2159.6,2234.1z"/>
					</g>
				</g>
			</g>
			<g>
				<g class="st8">
					<g>
						<path class="st2" d="M870.2,3103.1c38.6,25,79.2,46.8,121.4,65.2c191.8,83.6,414.9,96.3,626.8,18.5
							c211.5-77.6,373.1-231.2,465.3-418.5c21.3-43.2,38.9-88.2,52.5-134.4c4.4-14.9,8.3-29.9,11.9-45
							c-181.9,105.6-406.7,210.7-656.2,302.3c-234.3,86-459.8,148.9-657.9,187.1C845.8,3086.8,857.8,3095.2,870.2,3103.1z"/>
					</g>
				</g>
			</g>
		</g>
		<g>
			<g>
				<g>
					<path class="st7" d="M1084.2,1638.7h488.9c85.5,0,155.5-70,155.5-155.5v-438.5c0-85.5-70-155.5-155.5-155.5h-488.9
						c-85.5,0-155.5,70-155.5,155.5v438.5C928.6,1568.7,998.6,1638.7,1084.2,1638.7z"/>
				</g>
			</g>
			<g>
				<g>
					<path class="st7" d="M1728.6,1042.1v443.6c0,84.1-71.2,153-158.2,153h-483.7c-87,0-158.2-68.8-158.2-153v-443.6
						c0-24.2,5.9-47.2,16.4-67.6c7.7-15.1,18.1-28.8,30.3-40.7c26.9-25.8,63.3-42.5,103.4-44.4c2.7-0.1,5.3-0.2,8-0.2h483.7
						c0,0,0,0,0.1,0c63.7,0,118.8,36.9,143.8,89.6c2.8,5.9,5.2,12,7.3,18.3C1726.1,1011.4,1728.6,1026.5,1728.6,1042.1z"/>
				</g>
			</g>
			<g>
				<g>
					<path class="st2" d="M1573.1,889.2c85.5,0,155.5,70,155.5,155.5v438.5c0,85.5-70,155.5-155.5,155.5h-488.9
						c-85.5,0-155.5-70-155.5-155.5v-438.5c0-85.5,70-155.5,155.5-155.5H1573.1 M1573.1,857.1h-488.9
						c-103.4,0-187.6,84.1-187.6,187.6v438.5c0,103.4,84.1,187.6,187.6,187.6h488.9c103.4,0,187.6-84.1,187.6-187.6v-438.5
						C1760.6,941.3,1676.5,857.1,1573.1,857.1L1573.1,857.1z"/>
				</g>
			</g>
		</g>
		<g class="st8">
			<g>
				<path class="st9" d="M1711.3,1064.7c-0.7,0.4-1.4,0.7-2.1,1.1c0-1,0-2,0-3c0.1-1.4,0.2-2.7,0.5-4c0.1-0.4,0.1-0.7,0.2-1
					c0-0.1,0.1-0.3,0.1-0.4c0.1-0.4,0.2-0.8,0.3-1.2c0.1-0.3,0.2-0.7,0.3-1c0-0.2,0.1-0.3,0.2-0.5c0.1-0.4,0.3-0.7,0.4-1.1
					c0.2-0.4,0.3-0.9,0.5-1.3c-0.1,0.5-0.2,0.9-0.3,1.4c-0.2,1-0.3,2-0.4,3C1710.8,1059.3,1710.9,1062,1711.3,1064.7z"/>
			</g>
		</g>
		<g>
			<g>
				<path class="st7" d="M1109.1,916.8l-13.1,34.3l-11.1,29.1l-9.6,25.4l-56.9,149.3c-9.2,2.6-18.6,4.9-28.3,6.8
					c-121.5,25-282-1.4-501-247c-34.3-38.4-116.9-61.7-80.9-149c36.9-89.3,88.7-78.2,88.7-78.2s-13.6-44.3,15.7-66.7
					c41.4-31.7,90.4,15.2,138,48.7c6.8,4.8,3.7-59.4,48.5-57.5c64,2.8,60.6,148.8,60.6,148.8s86.3,94.8,220.3,136.5
					c34,10.6,71.1,17.8,110.6,19.1C1096.8,916.8,1102.9,916.9,1109.1,916.8z"/>
			</g>
		</g>
		<g class="st10">
			<g>
				<path class="st2" d="M1018.4,1154.9L1018.4,1154.9c-124.6,34.6-292.8,25-529.3-240.2c-34.2-38.4-116.9-61.7-80.9-149
					c22.1-53.7,49.7-71,68.1-76.4c-6.3,9.5-10.7,21.9-18.2,35.1c-42.2,74.3,73.3,146.4,105.1,133.2c19.5-8.1,26.4-15.9,37.7-53.2
					c12-39.7,30.6-58.5,32.8-56.1c10,11.2,10.2,149.4,33.2,198c58.5,124,216.2,184.9,330.6,179.6
					C1012.9,1125.3,1023.9,1140.6,1018.4,1154.9z"/>
			</g>
		</g>
		<g>
			<g>
				<path class="st2" d="M918.5,1185.2c-108.9,0-254.8-51-441.1-259.9c-7.5-8.5-18.5-16.6-30-25.2c-36-26.8-85.3-63.6-53.7-140.3
					c26.7-64.7,62.2-82.6,84.8-87c-1.5-18.6,1-46.2,24.7-64.4c44.8-34.2,93.3,1.7,136.1,33.4c1.3,1,2.7,2,4,3
					c6-19.9,19.9-50,56.6-48.4c70.7,3.1,75.7,125.2,75.7,158.3c24.7,24.9,156.8,148.8,333.4,146.4c0.1,0,0.1,0,0.2,0
					c8.6,0,15.6,6.9,15.7,15.5c0.1,8.7-6.9,15.8-15.5,16c-209.8,2.6-355.2-154.3-361.2-161c-2.7-3-4.2-6.9-4.1-11
					c1-42.6-8.9-131.2-45.5-132.8c-15.7-0.6-21.8,11.8-27.6,35.2c-2.4,9.7-4.5,18.1-13.7,21.5c-5.2,1.9-11,1.2-15.6-2.1
					c-7-4.9-14.1-10.2-21.2-15.4c-45-33.3-74-52.2-98.2-33.7c-20.1,15.4-10.3,49.3-10.2,49.6c1.6,5.3,0.2,11.1-3.5,15.2
					c-3.8,4.1-9.4,5.9-14.9,4.7c-1.3-0.2-40.1-5.8-70.8,68.8c-22.3,54,8.1,76.7,43.4,103c12.3,9.2,25,18.7,34.7,29.5
					c242.2,271.6,409,264.5,513.3,235.5c8.4-2.3,17.1,2.6,19.4,11c2.3,8.4-2.6,17.1-11,19.4C992.7,1178.4,958,1185.2,918.5,1185.2z"
					/>
			</g>
		</g>
		<g>
			<g>
				<path class="st2" d="M669.9,666.2l-3.5,50c-0.2,3.1-1.2,5.9-2.9,8.2l-0.4,0.6l0,0c-0.8,0.8-2.2,2.6-3.3,4.1
					c-1.2,1.6-2.3,3.3-3.3,5c-2.2,3.4-4,7-5.8,10.7c-3.4,7.4-5.6,15.2-6.6,23.1c-0.7,4-0.4,8-0.5,12c0.6,3.9,0.7,8.1,2,12
					c1.7,8,5.7,15.5,10,22.9l0.4,0.7c2.2,3.8,0.9,8.6-2.8,10.7c-3.4,2-7.7,1.1-10.1-1.9c-6.3-7.9-12.5-16.3-16.2-26.3
					c-2.3-4.8-3.3-10-4.8-15.2c-0.8-5.3-1.7-10.6-1.7-15.9c-0.3-10.7,1.3-21.4,4.3-31.6c1.5-5.1,3.3-10.1,5.5-14.9
					c1.1-2.4,2.2-4.9,3.5-7.2c1.3-2.5,2.5-4.6,4.5-7.5l0,0l-3.3,8.9l3.6-51.4c0.6-8.7,8.1-15.2,16.8-14.6
					c8.7,0.6,15.2,8.1,14.6,16.8L669.9,666.2z"/>
			</g>
		</g>
		<g>
			<g>
				<path class="st2" d="M775.5,1151.9c-3.3,0-6.6-1.3-9-3.8c-4.8-5-4.6-12.9,0.4-17.7c84.7-81.3,97.6-277.4,97.8-279.4
					c0.4-6.9,6.4-12.1,13.2-11.7c6.9,0.4,12.1,6.3,11.7,13.2c-0.5,8.4-13.6,207.9-105.4,295.9
					C781.7,1150.8,778.6,1151.9,775.5,1151.9z"/>
			</g>
		</g>
		<g>
			<g>
				<path class="st7" d="M1869.1,1562.6c-6.7,148.9-52.3,209.3-108.5,228.3c-11.6,3.9-25.3,6.3-37.6,5.9
					c-39.8-1.4-68.6-18.2-68.6-18.2s-14.7,6.1-28.1,4.8c-103.9-10.1-80.2-71.8-59.1-170.6c6.1-28.4,11.9-59.9,14.5-94.2
					c12-161.7-33.2-314.5-33.2-314.5l17.4-145l19.4-161.7c0,0,10.2,9.2,26.7,26.7c14.5,15.3,33.8,36.9,55.3,64.3
					C1755.2,1100.1,1880.8,1306.1,1869.1,1562.6z"/>
			</g>
		</g>
		<g>
			<g>
				<path class="st2" d="M1725.9,1812.6c-1.1,0-2.2,0-3.3-0.1c-32.1-1.1-57.7-11.3-69.3-16.8c-6.9,2.1-17.7,4.5-28.4,3.4
					c-39.2-3.8-64.1-14.7-78.4-34.4c-22.3-30.8-12.5-74.9,0-130.8c7.6-34.3,16.3-73.2,19.5-116.4c11.7-156.7-32.1-307.4-32.6-308.9
					c-2.5-8.3,2.3-17.1,10.6-19.6c8.4-2.5,17.1,2.3,19.6,10.6c1.9,6.4,45.9,157.5,33.8,320.1c-3.4,45.5-12.3,85.6-20.2,120.9
					c-10.7,48.1-19.2,86.1-5.2,105.4c8.5,11.7,26.7,18.7,55.9,21.5c7.7,0.7,17.4-2.4,20.6-3.7l7.2-2.9l6.8,3.9
					c0.2,0.1,26.3,14.8,61.3,16c9.9,0.3,21.5-1.5,32-5c59.4-20.1,92.3-92.2,97.8-214.1c9-197.7-67-364.3-132.4-469.4
					c-71.2-114.4-145.6-182.6-146.3-183.3c-6.4-5.9-6.9-15.8-1.1-22.3c5.8-6.4,15.8-6.9,22.2-1.1c3.1,2.9,77.9,71.3,151.3,189.1
					c67.9,109,147,282.1,137.6,488.3c-6.3,138.1-45.2,217.5-119.2,242.5C1752.9,1810.2,1738.6,1812.6,1725.9,1812.6z"/>
			</g>
		</g>
		<g>
			<g>
				<path class="st2" d="M1578.7,1380.7c-5.1,0-9.9-3.2-11.8-8.2c-2.4-6.5,1-13.7,7.5-16c8.6-3.1,210.2-75.2,283.5-9.3
					c5.1,4.6,5.6,12.5,0.9,17.7c-4.6,5.1-12.5,5.6-17.7,0.9c-51.6-46.4-204-5.5-258.3,14.2
					C1581.6,1380.5,1580.2,1380.7,1578.7,1380.7z"/>
			</g>
		</g>
		<g>
			<g>
				<path class="st7" d="M1693,1613H960.3c-1.9-59.4-1.5-116.7,0.8-171.4c2.1-50.6,5.7-99.1,10.6-145.2c4.4-42.1,9.7-82.2,15.7-120
					c0.8-5,1.7-9.9,2.8-14.7c14.8-67.1,54.7-113.7,82.2-158.6c4.6-7.6,8.9-15.2,12.7-22.8c4.3-8.8,7.9-17.7,10.5-26.8
					c0.2-0.8,0.4-1.6,0.6-2.4c1.9-9.8-0.9-21.9-5.4-34.5c-9.8-27.8-28-58.3-22.9-73.4c8.4-24.9,15.8-44.4,21.2-58.2
					c6.2-15.8,9.9-24,9.9-24h455.5c0,0,3.8,8.1,10.1,23.7c6.6,16.2,15.9,40.4,26.5,72.2c6.6,19.6,13.7,42.1,20.9,67.3
					c5.3,18.4,10.8,38.3,16.1,59.6c2.6,10.1,5.1,20.6,7.6,31.3c11.9,50.2,23.3,107,32.8,170.1c5.4,35.4,10.2,72.6,14.1,111.8
					c4.7,46.2,8.2,95,10.1,146.1C1694.7,1497.2,1695,1553.9,1693,1613z"/>
			</g>
		</g>
		<g>
			<g>
				<path class="st2" d="M1021,1049.4c0.6,12.4-0.1,24.3-0.7,36.2c-0.5,11.9-1.8,23.6-2.8,35.4c-1.1,11.7-2.8,23.3-4.4,34.9
					c-1.8,11.6-4.2,23.1-6.3,34.6l-3.1,17.3c-0.9,5.8-1.7,11.6-2.5,17.4c-1.6,11.6-3.1,23.3-4.4,35c-1.4,11.7-2.7,23.4-3.8,35.1
					c-1.2,11.7-2.3,23.4-3.3,35.2c-4.3,46.9-5.5,94.1-7.3,141.2c-1.1,23.6-2.1,47.1-3.8,70.7c-1.3,23.6-2.7,47.2-15.8,70.6
					c-0.7,1.3-2.4,1.8-3.7,1.1c-0.5-0.3-0.9-0.7-1.1-1.2c-12.1-23.9-12.4-47.7-12.3-71.5c-0.3-23.8,0.4-47.5,1.5-71.3
					c2.6-47.5,7.1-94.9,11.1-142.4c1-11.9,2.1-23.7,3.4-35.6c1.1-11.9,2.4-23.7,3.9-35.6c1.3-11.9,2.8-23.7,4.5-35.5l4.5-35.6
					c1.3-11.9,3-23.7,5.3-35.5c2.2-11.8,5.3-23.4,8.7-34.9c6.9-23,15.7-45.6,27.9-67c0.7-1.2,2.2-1.6,3.4-0.9c0.8,0.4,1.2,1.2,1.3,2
					L1021,1049.4z"/>
			</g>
		</g>
		<g>
			<g>
				<path class="st2" d="M1690.6,1613c-13-21.1-14.3-42.5-15.4-63.8c-1.5-21.3-2.4-42.6-3.2-63.8c-1.3-42.5-2.3-84.9-6.8-127.1
					c-2.1-21.1-4.7-42.1-7.6-63.1c-3-21-5.9-42-10.4-62.8c-2.1-10.4-4.4-20.8-6.2-31.3c-1.6-10.5-2.9-21.1-3.9-31.7
					c-1-10.6-1.5-21.4-1.8-32.2c-0.2-10.8-0.2-21.8,1-33l0-0.1c0.1-1.4,1.4-2.4,2.8-2.2c0.8,0.1,1.5,0.6,1.9,1.3
					c11,19.5,18.9,39.8,25.3,60.4c6.6,20.6,10.7,41.8,13.3,63.2c2.8,21.4,6.4,42.6,9.3,64c3,21.4,5.6,42.8,7.7,64.2
					c4.2,42.9,8.6,85.9,10.7,128.9c0.9,21.5,1.3,43,0.8,64.4c-0.1,21.4-0.5,42.9-12.7,64.5c-0.8,1.3-2.5,1.8-3.8,1.1
					C1691.2,1613.8,1690.8,1613.4,1690.6,1613z"/>
			</g>
		</g>
		<g class="st10">
			<g>
				<path class="st2" d="M1692.7,1477.7c-45,4.4-101.1,6-144.6-5.4v24.2c0,33.4-27.4,60.8-60.9,60.8h-332.1
					c-33.4,0-60.8-27.4-60.8-60.8v-19.3c-43.4,6.6-93.9,3.7-133.2-0.7c2.1-40.4,5.7-79,10.6-115.7c36,1.5,82.5,2.2,122.6-1.3v-43.3
					c0-33.5,27.4-60.8,60.8-60.8h332.1c19.7,0,37.3,9.5,48.4,24.1c7.8,10.2,12.4,22.9,12.4,36.7v40.6c40.4,5.9,92.7,5.9,134.5,4.5
					C1687.3,1398.1,1690.7,1437,1692.7,1477.7z"/>
			</g>
		</g>
		<g>
			<g>
				<path class="st7" d="M1158.5,1414.1c-45.7,18.5-116.3,14.6-164.5,8.8c-28.9-3.5-49.2-30.2-44.9-59v0c3.9-26.3,27-45.4,53.5-44.1
					c45.1,2.1,112.7,3.1,155.5-6.4"/>
			</g>
		</g>
		<g class="st10">
			<g>
				<path class="st2" d="M1158.5,1414c-45.7,18.5-116.4,14.6-164.5,8.8c-28.9-3.5-49.2-30.2-44.9-59c0.8-5.9,2.7-11.4,5.3-16.4
					c7.6,14.5,22,25.2,39.6,27.4c48.1,5.8,118.6,9.7,164.3-8.7L1158.5,1414z"/>
			</g>
		</g>
		<g>
			<g>
				<path class="st2" d="M1067.7,1443.4c-26.6,0-53-2.2-75.6-4.9c-18.2-2.2-34.4-11.5-45.5-26c-11.1-14.6-15.8-32.7-13.1-50.9
					c5.1-34.4,35.1-59.2,69.9-57.6c66.1,3.1,119.8,1,151.3-6c5.7-1.3,25.3-2.8,35.9,31.1c9.9,31.9,8.5,85.6-26.1,99.6l0,0
					C1137.2,1439.7,1102.3,1443.4,1067.7,1443.4z M1158.5,1414.1L1158.5,1414.1L1158.5,1414.1z M1000.2,1335.4
					c-17.8,0-32.9,12.9-35.5,30.7c-1.4,9.7,1,19.4,7,27.1c5.9,7.8,14.5,12.7,24.2,13.9c68.3,8.3,124,5.5,156.7-7.7
					c7-2.8,9.7-14.5,10.6-19.4c3.5-19.8-1.6-42.6-6.3-50.4c-43.8,8.7-108.1,8-155,5.8C1001.3,1335.5,1000.7,1335.4,1000.2,1335.4z"
					/>
			</g>
		</g>
		<g>
			<g>
				<path class="st7" d="M1507.8,1414.1c45.7,18.5,116.3,14.6,164.5,8.8c28.9-3.5,49.2-30.2,44.9-59l0,0
					c-3.9-26.3-27-45.4-53.5-44.1c-45.1,2.1-112.7,3.1-155.5-6.4"/>
			</g>
		</g>
		<g class="st10">
			<g>
				<path class="st2" d="M1672.3,1422.9c-48.2,5.8-118.9,9.7-164.5-8.8l0.2-48.3c45.7,18.4,116.2,14.5,164.3,8.7
					c17.5-2.1,31.8-12.7,39.5-27.2c2.7,5.1,4.6,10.7,5.5,16.7C1721.5,1392.7,1701.2,1419.4,1672.3,1422.9z"/>
			</g>
		</g>
		<g>
			<g>
				<path class="st2" d="M1598.7,1443.4c-34.6,0-69.5-3.7-96.8-14.7l0,0c-34.6-14-36-67.7-26.1-99.6c10.5-33.9,30.1-32.4,35.9-31.1
					c31.5,7,85.2,9.1,151.3,6c34.7-1.7,64.8,23.1,69.9,57.6c2.7,18.2-2,36.3-13.1,50.9c-11.1,14.6-27.3,23.8-45.5,26
					C1651.6,1441.2,1625.2,1443.4,1598.7,1443.4z M1513.7,1399.5c32.8,13.3,88.4,16,156.7,7.7c9.7-1.2,18.3-6.1,24.2-13.9
					c5.9-7.8,8.4-17.4,7-27.1c-2.7-18.4-18.7-31.5-37.2-30.7c-47,2.2-111.3,2.9-155-5.8c-4.7,7.8-9.8,30.6-6.3,50.4
					C1504,1385,1506.8,1396.6,1513.7,1399.5L1513.7,1399.5z"/>
			</g>
		</g>
		<g>
			<g>
				<path class="st7" d="M1525.5,1280.1v161.4c0,29.9-24.5,54.5-54.5,54.5h-297.2c-29.9,0-54.4-24.5-54.4-54.5v-161.4
					c0-29.9,24.5-54.4,54.4-54.4H1471c17.6,0,33.4,8.5,43.3,21.6C1521.3,1256.4,1525.5,1267.7,1525.5,1280.1z"/>
			</g>
		</g>
		<g class="st10">
			<g>
				<path class="st2" d="M1525.5,1280.1v161.4c0,29.9-24.5,54.4-54.4,54.4h-297.2c-29.9,0-54.4-24.5-54.4-54.4v-60.4
					c44.6,45.5,132.4,74.1,212.9,74.5c25.9,0.1,46.7-20.3,48.6-46.1c0-0.3,0-0.5,0.1-0.8c2-22.6,20.6-41,43.3-42.6
					c25.8-1.9,47.6,17.2,50.2,42c39-48.1,27.6-131.7,40-160.9C1521.3,1256.4,1525.5,1267.7,1525.5,1280.1z"/>
			</g>
		</g>
		<g>
			<g>
				<path class="st2" d="M1471,1511.7h-297.2c-38.7,0-70.2-31.5-70.2-70.2v-161.4c0-38.7,31.5-70.2,70.2-70.2H1471
					c38.7,0,70.2,31.5,70.2,70.2v161.4C1541.2,1480.2,1509.7,1511.7,1471,1511.7z M1173.8,1241.4c-21.3,0-38.7,17.3-38.7,38.7v161.4
					c0,21.3,17.4,38.7,38.7,38.7H1471c21.3,0,38.7-17.3,38.7-38.7v-161.4c0-21.3-17.4-38.7-38.7-38.7H1173.8z"/>
			</g>
		</g>
		<g>
			<g>
				
					<ellipse transform="matrix(0.7071 -0.7071 0.7071 0.7071 -544.0426 1408.1051)" class="st11" cx="1427.7" cy="1360.8" rx="46.9" ry="46.9"/>
			</g>
		</g>
		<g class="st12">
			<g>
				<path class="st7" d="M1474.6,1360.8c0,3.2-0.3,6.3-0.9,9.4c-4.3-21.5-23.3-37.6-46-37.6c-22.8,0-41.7,16.1-46,37.6
					c-0.6-3-0.9-6.2-0.9-9.4c0-25.9,21-46.9,47-46.9C1453.6,1313.8,1474.6,1334.8,1474.6,1360.8z"/>
			</g>
		</g>
		<g class="st10">
			<g>
				<path class="st2" d="M1474.6,1360.8c0,25.9-21,46.9-46.9,46.9c-25.9,0-46.9-21-46.9-46.9c0-6,1.1-11.7,3.2-17
					c6.8,17.5,23.8,29.9,43.7,29.9c19.9,0,36.9-12.4,43.7-29.9C1473.5,1349,1474.6,1354.8,1474.6,1360.8z"/>
			</g>
		</g>
		<g>
			<g>
				<path class="st2" d="M1427.7,1419.5c-32.4,0-58.8-26.4-58.8-58.8c0-32.4,26.4-58.8,58.8-58.8s58.8,26.4,58.8,58.8
					C1486.5,1393.2,1460.1,1419.5,1427.7,1419.5z M1427.7,1325.6c-19.4,0-35.1,15.8-35.1,35.1c0,19.4,15.8,35.1,35.1,35.1
					s35.1-15.8,35.1-35.1C1462.8,1341.4,1447.1,1325.6,1427.7,1325.6z"/>
			</g>
		</g>
		<g>
			<g>
				<path class="st2" d="M1294.7,1507.7c-6.5,0-11.8-5.3-11.8-11.8v-85.7c0-14.7-7-28.7-18.7-37.6l-12.6-9.5
					c-17.6-13.3-28.2-34.4-28.2-56.4v-81.1c0-6.5,5.3-11.8,11.8-11.8c6.5,0,11.8,5.3,11.8,11.8v81.1c0,14.7,7,28.7,18.7,37.6
					l12.6,9.5c17.6,13.3,28.2,34.4,28.2,56.4v85.7C1306.5,1502.4,1301.2,1507.7,1294.7,1507.7z"/>
			</g>
		</g>
		<g class="st10">
			<g>
				<path class="st2" d="M1682.6,1004.1c-10.8,10-22,19.5-33.7,28.4c-23.3,17.9-48.3,33.7-74.5,47.1c-85.2,43.4-184.1,62-285.9,47.5
					c-90.8-12.9-172.1-50.4-238.1-104.7c-1.1-0.8-2.2-1.8-3.2-2.7c-38.6-32.3-71.8-70.4-98.5-112.8c36.3,11.3,75.9,19,118.2,20.4
					c-10.5-29.7-29.9-62.3-24.4-78.4c9-26.5,16.8-47.4,22.6-62.1c6.6-16.8,10.6-25.6,10.6-25.6h486.6c0,0,4,8.7,10.8,25.4
					c7,17.3,17,43.2,28.3,77.1c7,20.9,14.6,45,22.3,71.9C1639,951.8,1659.6,974.9,1682.6,1004.1z"/>
			</g>
		</g>
		<g>
			<g>
				<g>
					<path class="st7" d="M1815.9,789.7L1815.9,789.7c-5.4-0.8-9.2-5.8-8.5-11.2l40-284c0.8-5.4,5.8-9.2,11.2-8.5h0
						c57.1,8,96.9,60.9,88.9,118l-13.6,96.8C1925.9,758,1873.1,797.8,1815.9,789.7z"/>
				</g>
				<g>
					<path class="st2" d="M1830.6,793.8c-5,0-10-0.3-15.1-1.1c-3.4-0.5-6.5-2.3-8.6-5.1c-2.1-2.8-3-6.2-2.5-9.7l40-284
						c0.5-3.4,2.3-6.5,5.1-8.6c2.8-2.1,6.2-3,9.7-2.5c28.4,4,53.6,18.8,70.9,41.8c17.3,22.9,24.6,51.2,20.6,79.7l-13.6,96.8
						C1929.4,754.9,1883.3,793.8,1830.6,793.8z M1857.3,489c-1.5,0-2.9,0.5-4.1,1.4c-1.5,1.1-2.4,2.7-2.7,4.5l-40,284
						c-0.3,1.8,0.2,3.6,1.3,5.1c1.1,1.5,2.7,2.4,4.5,2.7c55.3,7.8,106.7-30.9,114.5-86.3l13.6-96.8c7.8-55.4-30.9-106.7-86.3-114.5
						C1858,489,1857.6,489,1857.3,489z"/>
				</g>
			</g>
			<g class="st10">
				<g>
					<path class="st2" d="M1940.3,655.5l-6.4,45.4c-8,57.1-60.9,96.9-118,88.9c-5.4-0.8-9.2-5.8-8.5-11.3l10.6-75.5
						c1,3.7,4.2,6.5,8.1,7.1l6.7,0.9C1878.1,717.4,1920.6,693.9,1940.3,655.5z"/>
				</g>
			</g>
			<g>
				<g>
					<path class="st2" d="M1830.6,807.9c-5.6,0-11.3-0.4-17-1.2c-7.2-1-13.5-4.7-17.8-10.5c-4.3-5.8-6.2-12.9-5.2-20l40-284
						c1-7.2,4.7-13.5,10.5-17.8c5.8-4.3,12.9-6.2,20-5.2c32.1,4.5,60.6,21.3,80.1,47.2c19.5,25.9,27.8,57.9,23.3,90.1l-13.6,96.8
						C1942.3,763.9,1890.2,807.9,1830.6,807.9z M1825.4,773.5c44.9,2.7,85.2-29.7,91.6-75l13.6-96.8c6.4-45.3-23.4-87.6-67.3-97.4
						L1825.4,773.5z"/>
				</g>
			</g>
			<g>
				<g>
					<path class="st7" d="M921.3,354L921.3,354c5.4,0.8,9.2,5.8,8.5,11.2l-40,284c-0.8,5.4-5.8,9.2-11.2,8.5h0
						c-57.1-8-96.9-60.9-88.9-118l13.6-96.8C811.3,385.8,864.2,346,921.3,354z"/>
				</g>
				<g>
					<path class="st2" d="M879.9,660.9c-0.6,0-1.2,0-1.8-0.1c-28.4-4-53.6-18.8-70.9-41.8c-17.3-22.9-24.6-51.2-20.6-79.7l13.6-96.8
						c4-28.4,18.8-53.6,41.8-70.9c22.9-17.3,51.2-24.6,79.7-20.6l0,0c3.4,0.5,6.5,2.3,8.6,5.1c2.1,2.8,3,6.2,2.5,9.7l-40,284
						C891.9,656.2,886.3,660.9,879.9,660.9z M906.5,356.1c-21.9,0-43,7-60.8,20.4c-21.6,16.3-35.6,40-39.4,66.9l-13.6,96.8
						c-3.8,26.8,3.1,53.5,19.4,75.1c16.3,21.6,40,35.6,66.9,39.4c3.8,0.5,7.3-2.1,7.8-5.9l40-284c0.3-1.8-0.2-3.6-1.3-5.1
						c-1.1-1.5-2.7-2.4-4.5-2.7l0,0C916.1,356.4,911.3,356.1,906.5,356.1z"/>
				</g>
			</g>
			<g class="st10">
				<g>
					<path class="st2" d="M900.9,570.5l-11.1,78.8c-0.8,5.4-5.8,9.2-11.3,8.5c-30-4.2-55.2-20.8-71.2-43.9
						c-14.5-20.8-21.4-47-17.6-74.1l5.7-40.8c11.2,38.1,43.8,68.1,85.7,74l10.4,1.5C895.2,575,898.7,573.3,900.9,570.5z"/>
				</g>
			</g>
			<g>
				<g>
					<path class="st2" d="M879.9,674.9c-1.3,0-2.5-0.1-3.8-0.3c-32.1-4.5-60.6-21.3-80.1-47.2c-19.5-25.9-27.8-57.9-23.3-90.1
						l13.6-96.8c4.5-32.1,21.3-60.6,47.2-80.1c25.9-19.5,57.9-27.8,90.1-23.3h0c7.2,1,13.5,4.7,17.8,10.5s6.2,12.9,5.2,20l-40,284
						C904.8,665.1,893.2,674.9,879.9,674.9z M906.5,370.1c-18.8,0-37.1,6.1-52.4,17.6c-18.6,14-30.7,34.5-34,57.6l-13.6,96.8
						c-3.3,23.1,2.7,46.1,16.7,64.8c12.6,16.7,30.4,28.2,50.6,32.7l37.9-269.3C910.1,370.1,908.3,370.1,906.5,370.1z M918.9,370.9
						L918.9,370.9L918.9,370.9z"/>
				</g>
			</g>
			<g>
				<g>
					<circle class="st7" cx="1368.7" cy="571.9" r="488.7"/>
				</g>
				<g>
					<path class="st2" d="M1368.8,1063.8c-34,0-68.5-3.6-103-10.9C1000.6,996,831,734.1,887.8,468.9
						c56.8-265.2,318.7-434.7,583.9-378c265.2,56.8,434.7,318.7,378,583.9l0,0C1800.2,905.5,1595.7,1063.8,1368.8,1063.8z
						 M1368.6,86.2c-224.1,0-426,156.3-474.8,384.1c-56.1,261.9,111.4,520.5,373.2,576.6c261.9,56,520.5-111.4,576.6-373.2
						C1899.6,411.7,1732.2,153,1470.3,97C1436.2,89.7,1402.1,86.2,1368.6,86.2z"/>
				</g>
			</g>
			<g class="st10">
				<g>
					<path class="st2" d="M1856.2,607.1c-1.6,22.3-4.8,44.7-9.6,67.1c-56.5,263.9-316.3,432.1-580.2,375.6
						c-263.9-56.5-432.1-316.3-375.6-580.2c1.6-7.6,3.4-15.1,5.4-22.6c-17.6,239.5,143.7,461.4,385.2,513.1
						C1537.7,1015,1790,857.9,1856.2,607.1z"/>
				</g>
			</g>
			<g>
				<g>
					<path class="st2" d="M1368.8,1077.8c-35,0-70.4-3.7-106-11.3C990.1,1008.1,815.7,738.7,874.1,466
						c58.4-272.7,327.8-447.1,600.5-388.7c272.7,58.4,447.1,327.8,388.7,600.5l0,0C1812.5,915,1602.1,1077.8,1368.8,1077.8z
						 M1368.6,100.2c-217.6,0-413.8,151.8-461.1,373c-54.4,254.3,108.2,505.5,362.5,559.9c254.3,54.4,505.5-108.2,559.9-362.5
						c54.4-254.3-108.2-505.5-362.5-559.9C1434.3,103.6,1401.2,100.2,1368.6,100.2z M1846.6,674.2L1846.6,674.2L1846.6,674.2z"/>
				</g>
			</g>
			<g>
				<g>
					<path class="st2" d="M1842.4,686.1c-18.6,93.8-66.3,174.9-132.7,236.6c-49.8,46.3-229,109-427.6,71.5
						C1098.1,959.4,950.3,828.3,922,766.5c-37.8-82.4-51-175.5-32.4-269.3c49.2-248.3,282.9-308.9,546.1-256.7
						C1698.8,292.7,1891.7,437.9,1842.4,686.1z"/>
				</g>
			</g>
			<g class="st13">
				<g>
					
						<ellipse transform="matrix(0.3663 -0.9305 0.9305 0.3663 495.1581 1970.4933)" class="st7" cx="1694.3" cy="621.7" rx="86.5" ry="62.7"/>
				</g>
			</g>
			<g class="st13">
				<g>
					
						<ellipse transform="matrix(0.4913 -0.871 0.871 0.4913 131.6841 1775.1509)" class="st7" cx="1585.6" cy="774.8" rx="39.7" ry="34.1"/>
				</g>
			</g>
			<g class="st10">
				<g>
					<path class="st14" d="M1795.7,436.2c47.2,67.1,66.5,150.2,46.7,250c-18.6,93.8-66.3,174.9-132.7,236.6
						c-49.8,46.3-229,109-427.6,71.5c-70.1-13.2-134.9-40.5-189.9-72.5c245,40.9,463.6-36.4,525.3-93.8
						c84.2-78.3,144.8-181.2,168.4-300.3C1792.3,495.8,1795.4,465.3,1795.7,436.2z"/>
				</g>
			</g>
			<g>
				<g>
					<path class="st2" d="M1844.6,475.5c-4.4,0-8.7-1.9-11.7-5.5l-1.3-1.5l-0.9-2c-57.9-128.4-200.4-223.8-390.8-261.5
						c-191.5-38-359.8-2.1-461.7,98.4l-1.2,1c-6.4,5.2-15.7,4.3-21.1-1.9c-5.3-6.2-4.8-15.5,1.2-21
						c109.3-107.5,287.3-146.2,488.7-106.3c199.8,39.6,350,141,412.3,278.1c3.3,6.4,1.8,14.4-4.1,19
						C1851.2,474.4,1847.9,475.5,1844.6,475.5z"/>
				</g>
			</g>
			<g class="st13">
				<g>
					<path class="st7" d="M967.3,666.1c0,0-28.3-260.1,123-331.6s341.2-33.4,334.3-22.1c0,0-220.3,9.2-335.5,159.1
						C1000.2,587.1,967.3,666.1,967.3,666.1z"/>
				</g>
			</g>
		</g>
		<g>
			<g>
				<circle class="st2" cx="1724.2" cy="2156.2" r="12.1"/>
			</g>
		</g>
		<g>
			<g class="st8">
				<g>
					<path class="st2" d="M1457.7,1602.4c0,0,168.1-58.6,307.3,82.7c127.8,129.9-21.6,258.1-21.6,258.1s46,177.1-73.5,199.8
						c-101.5,19.3-193.2-78.8-181.4-200.1c9.6-99.8,31.5-90.5,23.5-145.2c-9.1-62-141.2-75.9-141.2-75.9H1321
						c0,0-132.1,14-141.2,75.9c-8.1,54.7,13.8,45.4,23.5,145.2c11.7,121.3-80,219.4-181.4,200.1c-119.6-22.7-73.5-199.8-73.5-199.8
						s-149.4-128.2-21.6-258.1c139.1-141.4,307.3-82.7,307.3-82.7H1457.7z"/>
				</g>
			</g>
			<g>
				<g>
					<path class="st7" d="M1481.4,1551.1c0,0,203.7-118.8,372.3,52.5c154.9,157.4-26.2,312.8-26.2,312.8s55.8,214.5-89.1,242.1
						c-123,23.4-234.1-95.5-219.9-242.5c11.7-120.9,38.2-109.6,28.4-175.9c-11.1-75.1-171.1-92-171.1-92h-60.2
						c0,0-160,16.9-171.1,92c-9.8,66.3,16.8,55,28.4,175.9c14.2,147-96.9,265.9-219.9,242.5c-144.9-27.5-89.1-242.1-89.1-242.1
						s-181.1-155.3-26.2-312.8c168.6-171.3,372.3-52.5,372.3-52.5"/>
				</g>
			</g>
			<g class="st10">
				<g>
					<path class="st2" d="M1816.7,2110.7c-14.9,22.4-39.4,40.4-78.2,47.8c-123,23.4-234.1-95.5-219.9-242.5
						c11.7-120.9,38.2-109.7,28.5-175.9c-11.1-75.1-171.1-92-171.1-92h-60.2c0,0-160,16.9-171.1,92c-9.8,66.3,16.8,55,28.5,175.9
						c14.2,147-96.9,265.9-219.9,242.5c-38.8-7.4-63.3-25.4-78.2-47.8c1.1,0.2,2.1,0.4,3.2,0.6c146.5,25.3,278.8-100.1,261.9-259.4
						c-13.9-130.9-45.6-118.7-33.9-190.6c13.2-81.3,203.8-99.6,203.8-99.6h71.7c0,0,190.6,18.3,203.8,99.6
						c11.6,71.8-20,59.6-33.9,190.6c-16.9,159.2,115.4,284.7,261.9,259.4C1814.6,2111.2,1815.7,2110.9,1816.7,2110.7z"/>
				</g>
			</g>
			<g>
				<g>
					<path class="st2" d="M1478.8,1546.6c27.2-18.7,57.5-31.3,89.2-40c15.9-4.4,32.2-7.3,48.6-9.2c16.5-1.6,33.2-1.9,49.9-1
						c16.7,0.9,33.3,3.8,49.7,7.5c16.4,3.7,32.2,9.6,47.8,16c30.7,13.8,58.8,32.7,83.7,54.8c24.6,21.9,46.9,48.2,62.9,78.5
						c7.7,15.3,13.9,31.6,17.7,48.6c3.6,17,4.7,34.6,3.4,51.8c-2.5,34.6-14.4,67.5-31.1,96.5c-8.3,14.6-17.8,28.3-28.2,41.3
						c-5.2,6.5-10.6,12.8-16.3,18.9c-2.8,3.1-5.7,6.1-8.7,9c-3.1,3-5.9,5.7-9.5,8.9l5-15.9c2.9,11.8,4.8,22.6,6.5,34
						c1.7,11.3,2.9,22.6,3.7,34c1.5,22.8,1.1,46-2.4,69.2c-1.9,11.6-4.5,23.2-8.3,34.6c-3.9,11.4-9,22.6-15.5,33.2
						c-6.8,10.5-15,20.1-24.6,28.4c-9.7,8.2-20.7,14.6-32.2,19.6c-11.6,4.5-23.6,7.9-35.4,9.5c-5.9,1.1-11.9,1.4-17.9,1.9
						c-6,0.1-12,0.4-18.1-0.1c-12-0.5-24-2.4-35.6-5.4c-11.7-2.9-23-7.1-33.8-12.2c-43.4-20.6-77.5-56.7-99-98.3
						c-21.5-41.8-30.8-89.3-28-135.7c0.7-11.8,2.1-22.6,3.4-33.9l2.4-16.8l3-16.8c2.3-11.2,4.8-22.4,8.1-33.4
						c3.1-11,7.1-21.8,10-31.5c3-9.7,4.4-18.2,4.3-27.9c0.1-2.3-0.1-4.8-0.3-7.3c-0.2-2.5-0.3-4.9-0.6-7.5l-0.9-7.6
						c-0.5-2-0.7-3.9-1.3-5.8c-4.5-15.1-19-28.4-36.3-38.1c-17.4-9.9-37.2-17-57.5-22.7c-20.2-5.6-41.6-9.8-62.1-12.3l1.7,0.1h-60.2
						l1.7-0.1c-20.4,2.5-41.8,6.7-62.1,12.3c-20.3,5.6-40.1,12.8-57.5,22.7c-17.4,9.7-31.8,23-36.3,38.1c-0.6,1.9-0.8,3.8-1.3,5.8
						l-0.9,7.6c-0.4,2.6-0.5,5-0.6,7.5c-0.2,2.5-0.4,4.9-0.3,7.3c-0.1,9.6,1.3,18.2,4.3,27.9c2.9,9.7,6.9,20.5,10,31.5
						c3.3,11,5.8,22.2,8.1,33.4l3,16.8l2.4,16.8c1.3,11.2,2.7,22.1,3.4,33.9c2.8,46.4-6.5,93.9-28,135.7
						c-21.5,41.6-55.6,77.7-99,98.3c-10.8,5.1-22.1,9.4-33.8,12.2c-11.6,3-23.6,4.9-35.6,5.4c-6,0.5-12,0.1-18.1,0.1
						c-6-0.5-12-0.8-17.9-1.9c-11.9-1.6-23.9-5-35.4-9.5c-11.5-5-22.5-11.4-32.2-19.6c-9.6-8.3-17.8-18-24.6-28.4
						c-6.5-10.6-11.6-21.8-15.5-33.2c-3.8-11.4-6.4-23-8.3-34.6c-3.5-23.2-3.9-46.4-2.4-69.2c0.8-11.4,2-22.8,3.7-34
						c1.7-11.4,3.7-22.2,6.5-34l5,15.9c-3.6-3.2-6.4-5.9-9.5-8.9c-3-3-5.9-6-8.7-9c-5.7-6.1-11.1-12.4-16.3-18.9
						c-10.4-13-19.9-26.7-28.2-41.3c-16.6-29-28.6-61.9-31-96.5c-1.2-17.3-0.1-34.8,3.6-51.8c3.8-17,10.1-33.2,17.8-48.5
						c16.2-30.2,38.5-56.2,63.3-77.9c24.8-22,52.6-41.1,83.2-54.9c30.5-14,63.5-23,97-25.4c16.7-1.2,33.5-0.8,50.1,0.6
						c16.6,1.7,32.9,4.7,48.9,8.9c15.9,4.4,31.5,10,46.4,16.8c14.9,7,29.1,14.8,42.4,25c2.3,1.8,2.7,5.1,1,7.4
						c-1.4,1.9-3.8,2.5-5.9,1.8l-0.3-0.1c-29.3-10.3-59.6-17.8-89.6-22.8c-15.1-2.5-30.2-3.9-45.2-4.8c-7.5-0.1-15.1-0.5-22.6-0.2
						c-3.8,0.1-7.5,0.1-11.2,0.3l-11.2,0.8c-29.8,2.6-59.1,9.5-86.6,21.4c-13.7,5.9-27,13-39.6,21.3c-12.6,8.2-24.7,17.3-35.9,27.5
						c-23,20.1-42.4,43.2-56.3,69c-6.6,13-11.8,26.6-15,40.6c-3,14.1-3.9,28.5-2.9,42.9c2,28.8,12.1,57.2,26.9,83.1
						c7.4,13,16,25.4,25.4,37.2c4.7,5.9,9.6,11.6,14.8,17.1c2.6,2.8,5.2,5.5,7.8,8.1c2.6,2.6,5.5,5.3,7.8,7.4l7.3,6.4l-2.3,9.5
						c-2.3,9.6-4.3,20.4-5.9,30.7c-1.6,10.5-2.7,21-3.4,31.5c-1.4,21-1,42,2.1,62.3c1.6,10.1,3.9,20,7,29.4
						c3.2,9.4,7.3,18.2,12.3,26.4c5.2,8,11.3,15.1,18.3,21.2c7.1,6,15.3,10.7,23.9,14.5c8.9,3.4,18.1,6.1,28.1,7.5
						c4.9,0.9,9.9,1.1,14.8,1.6c5,0,9.9,0.4,14.9-0.1c9.9-0.4,19.8-2,29.4-4.5c9.7-2.4,19-5.9,28.1-10.2
						c36.3-17.2,65.8-48.1,84.6-84.4c18.7-36.4,27-78.2,24.5-119.4c-0.5-10.1-2-21.1-3.2-31.7l-2.3-15.9l-2.8-15.7
						c-2.2-10.3-4.4-20.6-7.4-30.6c-2.9-10.1-6.5-20-10-31.3c-3.5-11.3-5.9-24.6-5.6-37c-0.1-3.2,0.1-6.2,0.3-9.2
						c0.2-3,0.4-6.1,0.8-8.9l1.1-8.8c0.7-3.3,1.3-6.9,2.3-10.3c4.1-13.6,12.1-25.2,21.2-34.3c9.1-9.2,19.3-16.2,29.7-22.2
						c20.9-11.8,42.8-19.5,64.7-25.7c22.2-6,44-10.4,67.1-13.3l0.7-0.1h0.9h60.2h0.9l0.7,0.1c23.2,2.8,45,7.2,67.1,13.3
						c22,6.1,43.9,13.9,64.7,25.7c10.4,6,20.6,13,29.7,22.2c9.1,9.1,17.1,20.7,21.2,34.3c1,3.3,1.6,6.9,2.3,10.3l1.1,8.8
						c0.4,2.9,0.6,5.9,0.8,8.9c0.2,3,0.4,6,0.3,9.2c0.2,12.3-2.1,25.7-5.6,37c-3.5,11.3-7.1,21.2-10,31.3c-3,10-5.3,20.3-7.4,30.6
						l-2.8,15.7l-2.3,15.9c-1.2,10.6-2.6,21.5-3.2,31.7c-2.5,41.2,5.8,83,24.5,119.4c18.7,36.3,48.3,67.2,84.6,84.4
						c9,4.3,18.4,7.8,28.1,10.2c9.6,2.5,19.5,4.1,29.4,4.5c4.9,0.4,9.9,0.1,14.9,0.1c4.9-0.5,9.9-0.7,14.8-1.6
						c9.9-1.4,19.1-4.1,28.1-7.5c8.7-3.8,16.8-8.5,23.9-14.5c7-6.1,13.1-13.2,18.3-21.2c5-8.2,9.1-17,12.3-26.4
						c3.1-9.4,5.4-19.3,7-29.4c3.1-20.2,3.5-41.3,2.1-62.3c-0.7-10.5-1.8-21-3.4-31.5c-1.5-10.3-3.5-21.1-5.9-30.7l-2.3-9.5l7.3-6.4
						c2.3-2,5.2-4.8,7.8-7.4c2.7-2.6,5.3-5.3,7.8-8.1c5.2-5.5,10-11.3,14.8-17.1c9.4-11.8,18-24.2,25.4-37.2
						c14.8-25.9,25-54.3,26.9-83.1c1-14.4-0.1-28.8-3.1-42.8c-3.2-14-8.5-27.5-15.1-40.4c-14-25.6-33.6-48.4-56.6-68.4
						c-22.6-20.1-47.9-36.6-75-49.1c-27.3-12.1-56.3-20.1-86.3-23c-29.9-3.1-60.4-1.7-90.7,3.2c-30.2,5-60.5,13.2-89.2,24.6
						l-0.4,0.1c-2.7,1.1-5.8-0.2-6.8-2.9C1475.9,1550.6,1476.8,1548,1478.8,1546.6z"/>
				</g>
			</g>
			<g>
				<g>
					<path class="st2" d="M1833.6,1931.1l-10.8,3.4c-4,1.1-8,2.2-12.1,2.9c-8.1,1.6-16.2,2.5-24.3,2.8c-16.1,0.5-31.8-1.4-46.9-4.6
						c-15.1-3.6-29.6-8.3-43.5-14.2c-7-2.8-13.7-6.3-20.5-9.4c-6.7-3.5-13.2-7.1-19.8-10.7c7.1,2.3,14.1,4.8,21.2,7
						c7.2,1.8,14.2,4.1,21.5,5.6c14.4,3.3,28.9,5.2,43.3,6.1c14.4,0.5,28.6-0.4,42.1-3.3c6.7-1.4,13.3-3.4,19.5-5.8
						c3.1-1.2,6.1-2.6,9.1-4l9.8-5.1c7.7-4.1,17.3-1.1,21.4,6.6c4.1,7.7,1.1,17.3-6.6,21.4c-0.8,0.4-1.6,0.8-2.5,1.1L1833.6,1931.1z
						"/>
				</g>
			</g>
			<g>
				<g>
					<path class="st2" d="M871.4,1901.8l9.8,5.1c3,1.4,6,2.8,9.1,4c6.2,2.5,12.7,4.4,19.5,5.8c13.5,2.9,27.7,3.8,42.1,3.3
						c14.4-0.8,28.9-2.8,43.3-6.1c7.2-1.5,14.3-3.7,21.5-5.6c7.1-2.2,14.1-4.7,21.2-7c-6.6,3.5-13.1,7.2-19.8,10.7
						c-6.8,3.1-13.5,6.6-20.5,9.4c-13.9,5.9-28.5,10.6-43.5,14.2c-15.1,3.2-30.8,5.1-46.9,4.6c-8-0.2-16.2-1.1-24.3-2.8
						c-4.1-0.8-8.1-1.8-12.1-2.9l-10.8-3.4l-0.6-0.2c-8.3-2.7-12.9-11.6-10.3-19.9c2.7-8.3,11.6-12.9,19.9-10.3
						C869.7,1901,870.6,1901.4,871.4,1901.8z"/>
				</g>
			</g>
			<g>
				<g>
					<path class="st2" d="M1909.3,1801.7c-0.8,0-1.7-0.1-2.5-0.3c-6.4-1.4-10.4-7.6-9.1-14c5.4-25.4,1.5-43.4-12.1-55.1
						c-56.4-48.4-259,13.4-332.3,41.3c-6.1,2.3-12.9-0.7-15.2-6.8c-2.3-6.1,0.7-12.9,6.8-15.2c28.3-10.8,278.9-103.4,356.1-37.2
						c20.5,17.6,27.2,43.8,19.8,78C1919.7,1797.9,1914.8,1801.7,1909.3,1801.7z"/>
				</g>
			</g>
			<g>
				<g>
					<path class="st2" d="M787.2,1801.7c-5.5,0-10.4-3.8-11.5-9.3c-7.3-34.2-0.6-60.4,19.8-78c77.2-66.2,327.8,26.4,356.1,37.2
						c6.1,2.3,9.2,9.1,6.8,15.2c-2.3,6.1-9.1,9.2-15.2,6.8c-73.3-27.9-276-89.7-332.3-41.3c-13.6,11.7-17.6,29.7-12.1,55.1
						c1.4,6.4-2.7,12.7-9.1,14C788.8,1801.7,788,1801.7,787.2,1801.7z"/>
				</g>
			</g>
		</g>
	</g>
</g>
</svg>
