<svg xmlns="http://www.w3.org/2000/svg" width="16" height="16" fill="currentColor" viewBox="0 0 16 16"><path d="M16.3,11.79l-.47-.29a.14.14,0,0,1-.07-.2,6.77,6.77,0,0,0,.66-2.44,7,7,0,0,0-.24-2.36,6.3,6.3,0,0,0-.83-1.83.18.18,0,0,1,0-.28l.4-.39c.16-.15.16-.18,0-.34a8.86,8.86,0,0,0-1.27-1.33A8.47,8.47,0,0,0,10.12.4,9.47,9.47,0,0,0,6.73.6,8.26,8.26,0,0,0,1.39,4.72,7.39,7.39,0,0,0,.53,9.16a7.7,7.7,0,0,0,1.14,3.3,9,9,0,0,0,.76,1H1.74c-.23,0-.25,0-.25.24,0,.8,0,1.61,0,2.41a.28.28,0,0,0,0,.2h14.8a.32.32,0,0,0,.05-.23v-2.2c0-.46,0-.42-.46-.43a2.17,2.17,0,0,1-.44,0,11.11,11.11,0,0,0,.92-1.31C16.52,12,16.52,11.91,16.3,11.79ZM1.58,9.31A6.55,6.55,0,0,1,1.94,6,7,7,0,0,1,5.39,2.16a7.66,7.66,0,0,1,9.19,1.59L11.05,7.1A3.6,3.6,0,0,0,7.6,6.7,3.37,3.37,0,0,0,5.44,9.3C5.32,9.32,1.82,9.33,1.58,9.31Zm.21.95H6.4V9.77A2.44,2.44,0,0,1,8.18,7.49a2.55,2.55,0,0,1,3.25,1.8,2.48,2.48,0,0,1,.06.54v.22l3.65,2.2A7.24,7.24,0,0,1,14,13.52H3.89A7,7,0,0,1,1.79,10.26Zm13.56,5.13H2.53v-.92H15.35Zm-.55-4.46-2.34-1.4a3.28,3.28,0,0,0-.69-1.75l2.71-2.57A5.78,5.78,0,0,1,14.8,10.93Z" transform="translate(-0.48 -0.34)"/><path d="M4.39,12.58a5.21,5.21,0,0,0,1,0v-.9h-1Z" transform="translate(-0.48 -0.34)"/><path d="M6.37,11.66v.93h1v-.93Z" transform="translate(-0.48 -0.34)"/><path d="M8.94,8.35A1.49,1.49,0,0,0,7.42,9.79,1.47,1.47,0,0,0,9,11.23a1.44,1.44,0,1,0,0-2.88Zm0,2a.54.54,0,0,1-.54-.53A.53.53,0,0,1,9,9.28a.54.54,0,0,1,.54.52A.57.57,0,0,1,9,10.31Z" transform="translate(-0.48 -0.34)"/></svg>