<svg
  xmlns="http://www.w3.org/2000/svg" viewBox="0 0 211.6 209.68" >

  <path d="M139.6,190l-.7-2.3c-1.7-1.6-11.7-4.3-27.7-4.3s-25.7,2.6-27.7,4.3l-.7,2.3H49.1c-5,0-27.7-19.7-32-21.7C25.8,177,52.5,201,65.5,201l17,4.7a102.38,102.38,0,0,0,56.5-.6l13.9-4.1c15,0,39.1-22.3,47.8-32.7-6,4-24.4,21.7-32.4,21.7Z" transform="translate(-3.4 0.29)"/>
  <path d="M3.4,122.6V147a7.34,7.34,0,0,0,7.3,7.3v-39A7.34,7.34,0,0,0,3.4,122.6Z" transform="translate(-3.4 0.29)"/>
  <path d="M96.6,42.8a12.61,12.61,0,0,0,13.8,12.6,12.93,12.93,0,0,0,11.5-13v-.6l34.7-21.6A82.54,82.54,0,0,0,114.2,8.8h-9.7A87,87,0,0,0,61.9,20.1L96.6,41.8Z" transform="translate(-3.4 0.29)"/>
  <path d="M44.8,179.7H78.3c6.3-5.6,26.4-6.3,33-6.3s26.7.3,33,6.3h24c1.4,0,2.4-.3,3.7-.3l18.7-11a10.29,10.29,0,0,0,5.2-9.2V128.3a45.42,45.42,0,0,0-40.7-25.7H63.1A45.26,45.26,0,0,0,21,131v28.4a10.4,10.4,0,0,0,5.1,9ZM130.4,138c4.8,0,8.7,6.9,8.7,15.4s-3.9,15.4-8.7,15.4-8.7-6.9-8.7-15.4S125.6,138,130.4,138Zm-42.9-.2c4.8,0,8.7,6.9,8.7,15.4s-3.9,15.4-8.7,15.4-8.7-6.9-8.7-15.4S82.7,137.8,87.5,137.8Z" transform="translate(-3.4 0.29)"/>
  <path d="M160.4,23,126,44.7a16.49,16.49,0,0,1-16.4,15.4c-8.7,0-15.7-7.1-16.4-15.4L58.8,23A87.65,87.65,0,0,0,26.4,60.1V14a7.51,7.51,0,0,0,5.3-7,7.37,7.37,0,0,0-9.4-7,7,7,0,0,0-4.2,3.3,7.29,7.29,0,0,0,4.3,10.8V69.3a91.93,91.93,0,0,0-4.3,27v21a51.57,51.57,0,0,1,45.1-26H155c19,0,35.3,10.2,45.8,26V96.1A86.24,86.24,0,0,0,160.4,23Z" transform="translate(-3.4 0.29)"/>
  <path d="M207.7,115.6v38.7A7.34,7.34,0,0,0,215,147V122.9A7.34,7.34,0,0,0,207.7,115.6Z" transform="translate(-3.4 0.29)"/>  <title>astronaut.head</title>
</svg>